<svg fill="none" height="24" viewBox="0 0 24 24" width="24" xmlns="http://www.w3.org/2000/svg"><path d="m12 0c6.6 0 12 5.4 12 12s-5.4 12-12 12-12-5.4-12-12 5.4-12 12-12z" fill="#eaeaea"/><path d="m14.4002 8.2002c-.8 0-1.4.6-1.4 1.4 0 1.9-1.5 3.4-3.4 3.4-.8 0-1.4.6-1.4 1.4s.6 1.4 1.4 1.4c3.4 0 6.2-2.8 6.2-6.2 0-.8-.6-1.4-1.4-1.4z" fill="#bababa"/><path d="m14.3999 7.3999c-1.2 0-2.2 1-2.2 2.2 0 1.4-1.2 2.6-2.6 2.6-1.2 0-2.2 1-2.2 2.2s1 2.2 2.2 2.2c3.9 0 7-3.2 7-7 0-1.2-1-2.2-2.2-2.2zm-4.8 8.4c-.8 0-1.4-.6-1.4-1.4s.6-1.4 1.4-1.4c1.9 0 3.4-1.5 3.4-3.4 0-.8.6-1.4 1.4-1.4s1.4.6 1.4 1.4c0 3.4-2.8 6.2-6.2 6.2z" fill="#bababa"/><g fill="#eaeaea"><path d="m14.5998 9.6999v-.4c0-.2-.2-.4-.4-.4s-.4.2-.4.4v.5c0 .2.2.4.4.4.2-.1.4-.2.4-.5z"/><path d="m9.89986 13.9001c-.1-.2-.3-.2-.5-.1l-.2.2c-.2.1-.19999.3-.09999.5s.4.2.5.1l.2-.1c.2-.2.19999-.4.09999-.6z"/></g></svg>