<svg fill="none" height="24" viewBox="0 0 24 24" width="24" xmlns="http://www.w3.org/2000/svg"><rect fill="#fff" height="24" rx="12" width="24"/><path clip-rule="evenodd" d="m12.0031 8.7915c.3481 0 .6819-.13828.9281-.38442.2461-.24614.3844-.57998.3844-.92808 0-.34809-.1383-.68193-.3844-.92807-.2462-.24615-.58-.38443-.9281-.38443s-.6819.13828-.9281.38443c-.2461.24614-.3844.57998-.3844.92807 0 .3481.1383.68194.3844.92808.2462.24614.58.38442.9281.38442zm4.06.71167c.0433.14852.0259.30817-.0485.44382-.0744.13561-.1997.23621-.3482.27951-.693.2018-1.3189.3541-1.9133.4553v6.568c.0002.1503-.0576.2948-.1614.4035-.1037.1087-.2454.1731-.3955.1799-.1501.0069-.2971-.0445-.4102-.1434-.1132-.0988-.1838-.2375-.1972-.3872l-.2917-3.2083c-.0016-.0176-.0024-.0352-.0023-.0528h-.5834c0 .0176-.0007.0352-.0023.0528l-.2917 3.2083c-.0134.1497-.0841.2884-.1972.3872-.1132.0989-.2601.1503-.4102.1434-.1501-.0068-.2918-.0712-.3955-.1799-.1038-.1087-.1616-.2532-.1614-.4035v-6.5788c-.59297-.1021-1.21655-.2511-1.90605-.4425-.07453-.0198-.14438-.0542-.20552-.1012-.06113-.0471-.11233-.1057-.15065-.17267-.03831-.06693-.06297-.1408-.07254-.21732-.00958-.07653-.00389-.15419.01674-.2285.02063-.07432.05579-.1438.10345-.20443.04766-.06064.10687-.11122.17421-.14882.06733-.03761.14145-.06148.21808-.07025.07662-.00877.15422-.00226.22831.01915 1.34397.37275 2.35377.55767 3.34657.56204.9905.00438 1.9979-.17062 3.3341-.56.1485-.04331.3081-.02586.4438.04853.1356.07439.2362.19962.2795.34814z" fill="#1b1b1b" fill-rule="evenodd"/></svg>