<svg enable-background="new 0 0 74 74" viewBox="0 0 74 74" xmlns="http://www.w3.org/2000/svg"><circle cx="37" cy="37" fill="#ffd15c" r="37"/><path d="m49.5 23.5c.1 2.3-1 4.5-2.6 6.9 1.3-7.7-1.3-16.4-11.6-20.4.9 3.3-1.2 7.3-3.3 11.7-1.2-1.4-2.6-2.7-4.3-4 .8 10.8-23 21.7-3.7 40.2 0 0 1.3.8 3.6 1.6-.1-.1-.1-.1-.2-.2-4.1-4.5-6.4-13.8 1.5-19.9-.1 1.5.6 3 1.7 4.5-.8-5 .8-10.7 7.5-13.3-.6 2.1.8 4.7 2.1 7.6.8-.9 1.7-1.8 2.8-2.6-.4 5.8 10.3 11.7 6.5 20.5.8-.6 1.5-1.2 2.2-2 6.3-6.8 9.8-21.1-2.2-30.6z" fill="#f3705b"/></svg>