<svg enable-background="new 0 0 512 512" viewBox="0 0 512 512" xmlns="http://www.w3.org/2000/svg"><path d="m437.1 512h-362.2c-24.1 0-43.6-19.5-43.6-43.6v-358.7c0-24.1 19.5-43.6 43.6-43.6h362.2c24.1 0 43.6 19.5 43.6 43.6v358.7c0 24.1-19.5 43.6-43.6 43.6z" fill="#f8f8f8"/><path d="m437.1 66.1h-42.5c24.1 0 43.6 19.5 43.6 43.6v358.7c0 24.1-19.5 43.6-43.6 43.6h42.5c24.1 0 43.6-19.5 43.6-43.6v-358.7c0-24-19.5-43.6-43.6-43.6z" fill="#e1e1e4"/><path d="m480.7 202.6h-449.4v-93c0-24 19.5-43.5 43.5-43.5h362.4c24 0 43.5 19.5 43.5 43.5z" fill="#f95428"/><path d="m394.7 66.1h42.5c24 0 43.5 19.5 43.5 43.5v93h-42.5v-93c0-24-19.4-43.5-43.5-43.5z" fill="#e54728"/><path d="m142.3 123.9c-14.2 0-25.7-11.5-25.7-25.7v-72.5c0-14.2 11.5-25.7 25.7-25.7s25.7 11.5 25.7 25.7v72.5c0 14.2-11.5 25.7-25.7 25.7z" fill="#ffd92d"/><path d="m365.3 123.9c-14.2 0-25.7-11.5-25.7-25.7v-72.5c0-14.2 11.5-25.7 25.7-25.7s25.7 11.5 25.7 25.7v72.5c-.1 14.2-11.6 25.7-25.7 25.7z" fill="#ffd92d"/><g fill="#f95428"><path d="m208 394.6c-7.1 0-14.1-2.6-19.4-8-4.5-4.5-11.8-4.5-16.3 0s-4.5 11.8 0 16.3c9.8 9.8 22.9 14.9 35.7 14.9 13.1 0 26.1-5.1 35.9-14.9 10-10 14.9-23.1 14.9-35.9s-4.9-25.9-14.9-35.7c-4.1-4.3-9-7.5-14.3-10l25.7-26.5c.8-.8 1.4-1.8 2-2.9.8-1.6 1.4-3.5 1.4-5.5 0-6.3-5.1-11.4-11.6-11.4h-60.2c-6.3 0-11.4 5.1-11.4 11.4 0 6.5 5.1 11.6 11.4 11.6h33l-20.8 21.2c-4.3 4.7-4.3 11.8.4 16.3 0 .2 0 .2.2.2 2 2.4 5.1 3.9 8.4 3.7 7.1.2 14.1 2.6 19.4 8.2 5.5 5.3 8.2 12.2 8.2 19.4 0 7.1-2.7 14.1-8.2 19.6-5.4 5.3-12.3 8-19.5 8z"/><path d="m333.5 285.9c-.2-6-5.1-10.8-11.2-10.8-1.5 0-2.9.3-4.1.8-.1 0-.1 0-.1 0-.1 0-.2.1-.2.1-.5.2-1 .5-1.4.8-.1 0-.1.1-.2.1s-.1.1-.2.1l-25 14.8c-5.3 3.1-7.1 10.2-3.7 15.3 2 3.7 5.7 5.7 9.6 5.7 1.8 0 3.9-.4 5.7-1.6l8.2-4.7v100.4c0 6.3 4.9 11.2 11.2 11.2 6.1 0 11.4-4.9 11.4-11.2v-120.4c0-.1 0-.1 0-.2s0-.1 0-.2 0-.2 0-.2z"/></g></svg>