<svg enable-background="new 0 0 100 100" viewBox="0 0 100 100" xmlns="http://www.w3.org/2000/svg"><path d="m50.5 0c-24.4.1-44.1 19.8-44 44.2 0 21 15 39.1 35.6 43.2v12.6c26.3-4 49.6-24.9 51.4-52.4 1.1-16.7-6.9-32.7-21.1-41.7-.8-.5-1.6-.9-2.4-1.3s-1.7-.8-2.6-1.2c-.4-.2-.6-.3-.9-.4-.8-.3-1.6-.6-2.3-.8-4.5-1.5-9.1-2.2-13.7-2.2z" fill="#10a84b"/><path d="m59.6 16.3c-1.6-.2-3.2.5-4.2 1.7-.7 1-1.3 2.1-1.8 3.2-1.6 3.6-1.1 7.7 1.3 10.8 3.8-.8 7.1-3.4 8.6-7 .5-1.1.8-2.3.8-3.6 0-2.7-2-4.9-4.7-5.1zm-19.6.3c-2.6.2-4.7 2.3-4.8 4.9 0 1.2.3 2.5.8 3.6 1.6 3.6 4.9 6.2 8.8 7 2.9-4.2 2.6-9.9-.8-13.7-.9-1.4-2.5-2-4-1.8zm-13.2 12.9c-2.6.1-4.6 2.3-4.5 4.8.1 1.4.7 2.7 1.8 3.5 1 .7 2.1 1.4 3.2 1.9 3.7 1.6 8 1.1 11.4-1.1-1-3.8-3.7-6.9-7.3-8.3-1.2-.5-2.5-.8-3.8-.8-.3 0-.6 0-.8 0zm41.4 16.4c-2.5 0-4.9.7-7 2 1 3.8 3.7 6.9 7.3 8.3 1.2.5 2.5.8 3.8.8 2.6.3 4.9-1.6 5.2-4.2.2-1.6-.5-3.2-1.8-4.2-1-.7-2.1-1.3-3.2-1.9-1.3-.5-2.8-.8-4.3-.8zm-36.7.3c-1.5 0-3 .3-4.4.9-1.2.4-2.3 1.1-3.2 1.9-2 1.7-2.2 4.8-.4 6.8 1 1.2 2.6 1.8 4.1 1.6 1.3 0 2.6-.3 3.8-.8 3.6-1.4 6.2-4.6 7-8.3-2.1-1.5-4.5-2.2-6.9-2.1zm13.6 8.2c-3.8.8-7 3.4-8.6 7-.5 1.1-.8 2.3-.8 3.5-.1 2.8 2.1 5.1 4.9 5.1 1.4 0 2.8-.5 3.8-1.6.7-1 1.3-2.1 1.8-3.2 1.5-3.5 1.1-7.6-1.1-10.8zm10 .3c-2.9 4.2-2.6 9.9.8 13.8 2.1 2 5.4 2 7.4 0 .9-.9 1.4-2 1.5-3.2 0-1.2-.3-2.4-.8-3.5-1.7-3.8-5-6.4-8.9-7.1z" fill="#fff"/></svg>