<?xml version="1.0" encoding="iso-8859-1"?>
<!-- Generator: Adobe Illustrator 19.0.0, SVG Export Plug-In . SVG Version: 6.00 Build 0)  -->
<svg version="1.1" id="Layer_1" xmlns="http://www.w3.org/2000/svg" xmlns:xlink="http://www.w3.org/1999/xlink" x="0px" y="0px"
	 viewBox="0 0 512 512" style="enable-background:new 0 0 512 512;" xml:space="preserve">
<path style="fill:#FFEE5E;" d="M59.908,512c0-33.089-26.814-59.912-59.908-59.912V0h123.351c0,40.569,32.89,73.455,73.459,73.455
	S270.267,40.569,270.267,0H512v182.826c-24.258,0-43.921,19.66-43.921,43.912s19.663,43.911,43.921,43.911V512H59.908L59.908,512z"
	/>
<path style="fill:#FCE047;" d="M468.079,226.739c0,24.252,19.663,43.911,43.921,43.911V512H59.908
	c0-16.494-6.665-31.429-17.448-42.263L512,0.197v182.629C487.742,182.826,468.079,202.487,468.079,226.739z"/>
<path style="fill:#F4BB19;" d="M98.282,198.036c-14.929,0-27.018-12.097-27.018-27.017c0-14.921,12.088-27.018,27.018-27.018
	c14.916,0,27.018,12.097,27.018,27.018C125.3,185.939,113.199,198.036,98.282,198.036z M341.331,344.281
	c-24.251,0-43.911,19.66-43.911,43.911c0,24.252,19.66,43.913,43.911,43.913c24.251,0,43.911-19.661,43.911-43.913
	C385.242,363.942,365.582,344.281,341.331,344.281z M305.857,264.905c4.917,0,8.904-3.987,8.904-8.904
	c0-4.919-3.987-8.904-8.904-8.904h-2.441c-4.917,0-8.904,3.986-8.904,8.904c0,4.917,3.987,8.904,8.904,8.904H305.857z
	 M116.684,363.664h-2.441c-4.917,0-8.904,3.986-8.904,8.904c0,4.917,3.987,8.904,8.904,8.904h2.441c4.917,0,8.904-3.987,8.904-8.904
	C125.588,367.649,121.602,363.664,116.684,363.664z M401.247,99.339h-2.441c-4.917,0-8.904,3.987-8.904,8.904
	c0,4.919,3.987,8.904,8.904,8.904h2.441c4.917,0,8.904-3.986,8.904-8.904C410.151,103.326,406.164,99.339,401.247,99.339z"/>
<g>
</g>
<g>
</g>
<g>
</g>
<g>
</g>
<g>
</g>
<g>
</g>
<g>
</g>
<g>
</g>
<g>
</g>
<g>
</g>
<g>
</g>
<g>
</g>
<g>
</g>
<g>
</g>
<g>
</g>
</svg>
