<svg enable-background="new 0 0 100 100" viewBox="0 0 100 100" xmlns="http://www.w3.org/2000/svg"><circle cx="50" cy="50" fill="#cb473d" r="47.6"/><path d="m73.3 19.9c-6.4-5-14.5-8-23.3-8-21 0-38.1 17.1-38.1 38.1 0 8.8 3 16.9 8 23.3z" fill="#f0efef"/><path d="m26.6 80.1c6.4 5 14.5 8 23.3 8 21.1 0 38.2-17.1 38.2-38.1 0-8.8-3-16.9-8-23.3z" fill="#f0efef"/><g fill="#010101"><path d="m50 0c-27.6 0-50 22.4-50 50s22.4 50 50 50 50-22.4 50-50-22.4-50-50-50zm0 95.2c-24.9 0-45.2-20.3-45.2-45.2s20.3-45.2 45.2-45.2 45.2 20.3 45.2 45.2-20.3 45.2-45.2 45.2z"/><path d="m75.7 19.8c0-.7-.4-1.3-.9-1.7-7.2-5.6-15.7-8.6-24.8-8.6-22.3 0-40.5 18.2-40.5 40.5 0 9.1 2.9 17.7 8.5 24.8.4.5 1.1.9 1.7.9h.2c.6 0 1.2-.3 1.7-.7l53.4-53.4c.5-.5.8-1.2.7-1.8zm-55.5 49.9c-3.9-5.8-5.9-12.6-5.9-19.7 0-19.7 16-35.7 35.7-35.7 7.1 0 13.8 2.1 19.7 5.9z"/><path d="m81.9 25.2c-.4-.5-1.1-.9-1.7-.9-.7 0-1.3.2-1.8.7l-53.4 53.4c-.5.5-.7 1.2-.7 1.8 0 .7.4 1.3.9 1.7 7.2 5.6 15.7 8.5 24.8 8.5 22.3 0 40.5-18.2 40.5-40.5 0-9-3-17.6-8.6-24.7zm-31.9 60.5c-7.1 0-13.8-2.1-19.7-5.9l49.5-49.5c3.9 5.8 5.9 12.6 5.9 19.7 0 19.7-16 35.7-35.7 35.7z"/></g><path d="m41.1 26.4h17.8v48.2h-17.8z" fill="#b1742a"/><g fill="#e19c2b"><path d="m43.9 67.6c3.5 3.5 5.6 8.3 5.6 13.6-10.7 0-19.3-8.6-19.3-19.3 5.4.1 10.2 2.2 13.7 5.7z"/><path d="m43.9 52.6c3.5 3.5 5.6 8.3 5.6 13.6-10.7 0-19.3-8.6-19.3-19.3 5.4 0 10.2 2.2 13.7 5.7z"/><path d="m43.9 37.5c3.5 3.5 5.6 8.3 5.6 13.6-10.7 0-19.3-8.6-19.3-19.3 5.4.1 10.2 2.2 13.7 5.7z"/><path d="m46.5 25.7c1.9 3 3 6.6 3 10.4-10.7 0-19.3-8.6-19.3-19.3 5.3 0 10.2 2.2 13.6 5.6 1.1 1 2 2.1 2.7 3.3z"/></g><g fill="#f7b237"><path d="m68.8 62c0 10.6-8.6 19.3-19.3 19.3 0-5.3 2.2-10.2 5.6-13.6 3.6-3.6 8.4-5.7 13.7-5.7z"/><path d="m68.8 46.9c0 10.6-8.6 19.3-19.3 19.3 0-5.3 2.2-10.2 5.6-13.6 3.6-3.5 8.4-5.7 13.7-5.7z"/><path d="m68.8 31.9c0 10.6-8.6 19.3-19.3 19.3 0-5.3 2.2-10.2 5.6-13.6 3.6-3.6 8.4-5.7 13.7-5.7z"/><path d="m68.8 16.8c0 10.6-8.6 19.3-19.3 19.3 0-3.8 1.1-7.4 3-10.4.8-1.2 1.6-2.3 2.6-3.2 3.6-3.5 8.4-5.7 13.7-5.7z"/><path d="m49.6 1.7c6.5 6.5 7.4 16.4 2.7 23.8-.8 1.2-1.7 2.4-2.7 3.4-1.1-1.1-2-2.2-2.7-3.4-2-3.1-2.9-6.7-2.9-10.2-.1-4.9 1.8-9.9 5.6-13.6z"/></g><g fill="#fff"><circle cx="62.9" cy="67.9" r="1.7"/><circle cx="62.9" cy="53.2" r="1.7"/><circle cx="62.9" cy="37.8" r="1.7"/><circle cx="62.9" cy="23.4" r="1.7"/><circle cx="49.8" cy="9.2" r="1.7"/></g><path d="m68.8 30.2c-1.2 0-2.3.1-3.4.3 3.2-3.7 5.1-8.4 5.1-13.6 0-.9-.7-1.7-1.7-1.7-4.6 0-8.8 1.5-12.3 4 .2-1.2.4-2.5.4-3.8 0-5.6-2.2-10.9-6.1-14.8-.6-.6-1.7-.6-2.4 0-4 4-6.1 9.2-6.1 14.8 0 1.3.1 2.6.4 3.8-3.5-2.5-7.7-4-12.3-4-.9 0-1.7.7-1.7 1.7 0 5.2 1.9 10 5.1 13.6-1.1-.2-2.2-.3-3.4-.3-.9 0-1.7.7-1.7 1.7 0 5.2 1.9 10 5.1 13.6-1.1-.2-2.2-.3-3.4-.3-.9 0-1.7.7-1.7 1.7 0 5.2 1.9 10 5.1 13.6-1.1-.2-2.2-.3-3.4-.3-.9 0-1.7.7-1.7 1.7 0 11 8.5 20 19.3 20.9v15.4c0 .9.7 1.7 1.7 1.7.9 0 1.7-.7 1.7-1.7v-15.3c10.7-.9 19.2-9.9 19.2-20.9 0-.9-.7-1.7-1.7-1.7-1.2 0-2.3.1-3.4.3 3.2-3.7 5.1-8.4 5.1-13.6 0-.9-.7-1.7-1.7-1.7-1.2 0-2.3.1-3.4.3 3.2-3.7 5.1-8.4 5.1-13.6-.1-1.1-.8-1.8-1.8-1.8zm-19.2 37.7c1.2 0 2.3-.1 3.4-.3-1.4 1.6-2.5 3.5-3.4 5.4-.9-2-2-3.8-3.4-5.4 1.1.2 2.2.3 3.4.3zm0-9.9c-.9-2-2-3.8-3.4-5.4 1.1.2 2.2.3 3.4.3s2.3-.1 3.4-.3c-1.4 1.6-2.6 3.4-3.4 5.4zm0-15.1c-.8-2-2-3.8-3.4-5.4 1.1.2 2.2.3 3.4.3s2.3-.1 3.4-.3c-1.4 1.6-2.6 3.4-3.4 5.4zm1.7-8.6c.8-8.3 7.5-14.9 15.8-15.8-.9 8.4-7.5 15-15.8 15.8zm-1.7-30.1c2.6 3.1 4 7 4 11.2s-1.4 8-4 11.2c-2.6-3.1-4-7-4-11.2s1.4-8.1 4-11.2zm-1.8 30.1c-8.3-.8-14.9-7.5-15.8-15.8 8.3.9 15 7.5 15.8 15.8zm0 15.1c-8.3-.8-14.9-7.5-15.8-15.8 8.3.8 15 7.5 15.8 15.8zm0 15c-8.3-.8-14.9-7.4-15.8-15.7 8.3.8 15 7.4 15.8 15.7zm-15.8-.7c8.3.8 14.9 7.5 15.8 15.8-8.3-.8-14.9-7.5-15.8-15.8zm19.3 15.8c.8-8.3 7.5-14.9 15.8-15.8-.9 8.3-7.5 15-15.8 15.8zm0-15.1c.8-8.3 7.5-14.9 15.8-15.8-.9 8.4-7.5 15-15.8 15.8zm0-15c.4-4 2.2-7.8 5.1-10.7s6.7-4.7 10.7-5.1c-.9 8.3-7.5 15-15.8 15.8z" fill="#333"/></svg>