<?xml version="1.0" encoding="utf-8"?>
<!-- Generator: Adobe Illustrator 24.1.2, SVG Export Plug-In . SVG Version: 6.00 Build 0)  -->
<svg version="1.1" id="Layer_1" xmlns="http://www.w3.org/2000/svg" xmlns:xlink="http://www.w3.org/1999/xlink" x="0px" y="0px"
	 viewBox="0 0 512 512" style="enable-background:new 0 0 512 512;" xml:space="preserve">
<style type="text/css">
	.st0{fill:#CA463D;}
	.st1{fill:#EFEFEF;}
	.st2{fill:#B27214;}
	.st3{fill:#E09B2D;}
	.st4{fill:#F7B239;}
	.st5{fill:#FFFFFF;}
	.st6{fill:#333333;}
</style>
<circle class="st0" cx="258.3" cy="256" r="243.8"/>
<g>
	<path class="st1" d="M377.8,102c-33-25.7-74.5-41-119.5-41c-107.5,0-195,87.5-195,195c0,45,15.3,86.5,41,119.5L377.8,102z"/>
	<path class="st1" d="M138.7,410c33,25.7,74.5,41,119.5,41c107.5,0,195-87.5,195-195c0-45-15.3-86.5-41-119.5L138.7,410z"/>
</g>
<path d="M258.3,0C117.1,0,2.3,114.8,2.3,256s114.8,256,256,256s256-114.8,256-256S399.4,0,258.3,0z M258.3,487.6
	C130.6,487.6,26.7,383.7,26.7,256S130.6,24.4,258.3,24.4S489.9,128.3,489.9,256S386,487.6,258.3,487.6z"/>
<path d="M390,101.2c-0.2-3.5-1.9-6.7-4.7-8.9c-36.7-28.5-80.6-43.6-127-43.6C144,48.8,51,141.7,51,256c0,46.4,15.1,90.4,43.6,127
	c2.1,2.8,5.4,4.5,8.9,4.7c0.3,0,0.5,0,0.8,0c3.2,0,6.3-1.3,8.6-3.6l273.6-273.6C388.9,108.1,390.2,104.7,390,101.2z M105.8,356.8
	C85.9,326.9,75.4,292.3,75.4,256c0-100.8,82-182.9,182.9-182.9c36.3,0,70.9,10.5,100.8,30.3L105.8,356.8z"/>
<path d="M421.9,129c-2.1-2.8-5.4-4.5-8.9-4.7c-3.5-0.2-6.9,1.1-9.4,3.5L130.1,401.4c-2.5,2.5-3.8,5.9-3.5,9.4
	c0.2,3.5,1.9,6.7,4.7,8.9c36.7,28.5,80.6,43.6,127,43.6c114.3,0,207.2-93,207.2-207.2C465.5,209.6,450.4,165.6,421.9,129z
	 M258.3,438.9c-36.3,0-70.9-10.5-100.8-30.3l253.3-253.3c19.9,29.9,30.4,64.5,30.4,100.8C441.1,356.8,359.1,438.9,258.3,438.9z"/>
<rect x="212.6" y="135.2" class="st2" width="91.4" height="246.9"/>
<g>
	<path class="st3" d="M227.1,346.3c17.9,17.9,28.9,42.6,28.9,69.8c-54.6,0-98.8-44.2-98.8-98.8C184.5,317.3,209.2,328.4,227.1,346.3
		z"/>
	<path class="st3" d="M227.1,269.2C245,287.1,256,311.7,256,339c-54.6,0-98.8-44.2-98.8-98.8C184.5,240.3,209.2,251.3,227.1,269.2z"
		/>
	<path class="st3" d="M227.1,192.1C245,210,256,234.6,256,261.9c-54.6,0-98.8-44.2-98.8-98.8C184.5,163.2,209.2,174.2,227.1,192.1z"
		/>
	<path class="st3" d="M240.4,131.6c9.8,15.4,15.6,33.6,15.6,53.2c-54.6,0-98.8-44.2-98.8-98.8c27.3,0,52,11.1,69.8,28.9
		C232.1,120,236.6,125.6,240.4,131.6z"/>
</g>
<g>
	<path class="st4" d="M354.8,317.3c0,54.5-44.2,98.8-98.8,98.8c0-27.3,11.1-52,28.9-69.8C302.8,328.4,327.5,317.3,354.8,317.3z"/>
	<path class="st4" d="M354.8,240.3c0,54.5-44.2,98.8-98.8,98.8c0-27.3,11.1-52,28.9-69.8C302.8,251.3,327.5,240.3,354.8,240.3z"/>
	<path class="st4" d="M354.8,163.2c0,54.5-44.2,98.8-98.8,98.8c0-27.3,11.1-52,28.9-69.8C302.8,174.2,327.5,163.2,354.8,163.2z"/>
	<path class="st4" d="M354.8,86.1c0,54.5-44.2,98.8-98.8,98.8c0-19.6,5.7-37.9,15.6-53.2c3.9-6,8.3-11.6,13.4-16.6
		C302.8,97.1,327.5,86.1,354.8,86.1z"/>
	<path class="st4" d="M256,8.6c33.1,33.1,37.8,84,14,122.1c-3.9,6.2-8.6,12.1-14,17.6c-5.4-5.4-10.1-11.3-14-17.6
		c-10-15.9-14.9-34.1-14.9-52.3C227.1,53.1,236.7,27.9,256,8.6z"/>
</g>
<g>
	<circle class="st5" cx="324.6" cy="347.7" r="8.6"/>
	<circle class="st5" cx="324.6" cy="272.3" r="8.6"/>
	<circle class="st5" cx="324.6" cy="193.4" r="8.6"/>
	<circle class="st5" cx="324.6" cy="119.7" r="8.6"/>
	<circle class="st5" cx="257.1" cy="47.2" r="8.6"/>
</g>
<path class="st6" d="M354.8,154.6c-5.9,0-11.7,0.5-17.4,1.4c16.2-18.8,26-43.2,26-69.9c0-4.7-3.8-8.6-8.6-8.6
	c-23.5,0-45.3,7.6-63,20.5c1.2-6.4,1.8-13,1.8-19.6c0-28.7-11.2-55.6-31.4-75.9c-3.3-3.3-8.8-3.3-12.1,0
	c-20.3,20.3-31.4,47.2-31.4,75.9c0,6.7,0.6,13.2,1.8,19.6c-17.7-12.9-39.5-20.5-63-20.5c-4.7,0-8.6,3.8-8.6,8.6
	c0,26.7,9.8,51.1,26,69.9c-5.7-0.9-11.5-1.4-17.4-1.4c-4.7,0-8.6,3.8-8.6,8.6c0,26.7,9.8,51.1,26,69.9c-5.7-0.9-11.5-1.4-17.4-1.4
	c-4.7,0-8.6,3.8-8.6,8.6c0,26.7,9.8,51.1,26,69.9c-5.7-0.9-11.5-1.4-17.4-1.4c-4.7,0-8.6,3.8-8.6,8.6c0,56.3,43.6,102.6,98.8,107
	v79.1c0,4.7,3.8,8.6,8.6,8.6c4.7,0,8.6-3.8,8.6-8.6v-79.1c55.2-4.4,98.8-50.7,98.8-107c0-4.7-3.8-8.6-8.6-8.6
	c-5.9,0-11.7,0.5-17.4,1.4c16.2-18.8,26-43.2,26-69.9c0-4.7-3.8-8.6-8.6-8.6c-5.9,0-11.7,0.5-17.4,1.4c16.2-18.8,26-43.2,26-69.9
	C363.3,158.4,359.5,154.6,354.8,154.6z M256,347.6L256,347.6L256,347.6c5.9,0,11.7-0.5,17.4-1.4c-7.1,8.3-13,17.7-17.4,27.9
	c-4.4-10.2-10.3-19.6-17.4-27.9C244.3,347.1,250.1,347.6,256,347.6z M256,297c-4.4-10.2-10.3-19.6-17.4-27.9
	c5.7,0.9,11.5,1.4,17.4,1.4l0,0l0,0c5.9,0,11.7-0.5,17.4-1.4C266.3,277.4,260.4,286.8,256,297z M256,219.8
	c-4.3-10-10.1-19.4-17.4-27.8c5.6,0.9,11.4,1.4,17.3,1.4l0,0l0,0c5.9,0,11.7-0.5,17.4-1.4C266.3,200.3,260.4,209.6,256,219.8z
	 M265,175.8c4.2-42.5,38.2-76.5,80.7-80.7C341.5,137.6,307.6,171.6,265,175.8z M256,21.3c13.2,16.1,20.4,36,20.4,57.1
	s-7.2,41-20.4,57.1c-13.2-16.1-20.4-36-20.4-57.1S242.8,37.4,256,21.3z M247,175.8c-42.5-4.2-76.5-38.2-80.7-80.7
	C208.8,99.3,242.7,133.3,247,175.8z M247,252.9c-42.5-4.2-76.5-38.2-80.7-80.7C208.8,176.4,242.7,210.4,247,252.9z M247,330
	c-42.5-4.2-76.5-38.2-80.7-80.7C208.8,253.5,242.7,287.4,247,330z M166.3,326.4c42.5,4.2,76.5,38.2,80.7,80.7
	C204.4,402.8,170.5,368.9,166.3,326.4z M265,407.1c4.2-42.5,38.2-76.5,80.7-80.7C341.5,368.9,307.6,402.8,265,407.1z M265,330
	c4.2-42.5,38.2-76.5,80.7-80.7C341.5,291.8,307.6,325.7,265,330z M265,252.9c2-20.7,11.1-39.9,26-54.8c14.9-14.9,34.1-23.9,54.8-26
	C341.5,214.7,307.6,248.7,265,252.9z"/>
</svg>
