<?xml version="1.0" encoding="iso-8859-1"?>
<!-- Generator: Adobe Illustrator 19.0.0, SVG Export Plug-In . SVG Version: 6.00 Build 0)  -->
<svg version="1.1" id="Layer_1" xmlns="http://www.w3.org/2000/svg" xmlns:xlink="http://www.w3.org/1999/xlink" x="0px" y="0px"
	 viewBox="0 0 512 512" style="enable-background:new 0 0 512 512;" xml:space="preserve">
<circle style="fill:#D35933;" cx="256" cy="256" r="256"/>
<path style="fill:#B54324;" d="M499.486,335.22l-64.512-64.512l-78.384,26.939L184.363,125.421l-40.129,41.51v55.468l-44.841-12.681
	l44.841,44.839v24.716l-3.527,8.54l-63.938,10.135l70.658,70.658l-3.193,10.547v14.686l-38.684,9.623l104.401,104.401
	C224.89,510.574,240.278,512,256,512C369.733,512,466.125,437.826,499.486,335.22z"/>
<path style="fill:#FFFFFF;" d="M173.684,380.552h-19.825V179.286c0-4.76-3.86-8.62-8.62-8.62s-8.62,3.86-8.62,8.62v201.266h-19.825
	c-7.854,0-14.222,6.368-14.222,14.222c0,7.854,6.368,14.222,14.222,14.222h56.889c7.854,0,14.222-6.368,14.222-14.222
	C187.906,386.92,181.538,380.552,173.684,380.552z"/>
<path style="fill:#D0D1D3;" d="M398.222,380.552h-19.825v-96.108c0-4.76-3.86-8.62-8.62-8.62s-8.62,3.86-8.62,8.62v96.108h-19.825
	c-7.854,0-14.222,6.368-14.222,14.222c0,7.854,6.368,14.222,14.222,14.222h56.889c7.854,0,14.222-6.368,14.222-14.222
	C412.444,386.92,406.076,380.552,398.222,380.552z"/>
<path style="fill:#FEE187;" d="M421.926,303.407H90.074c-10.473,0-18.963-8.49-18.963-18.963l0,0
	c0-10.473,8.49-18.963,18.963-18.963h331.852c10.473,0,18.963,8.49,18.963,18.963l0,0
	C440.889,294.917,432.399,303.407,421.926,303.407z"/>
<path style="fill:#FFC61B;" d="M421.926,265.481H255.857v37.926h166.069c10.473,0,18.963-8.49,18.963-18.963
	S432.399,265.481,421.926,265.481z"/>
<circle style="fill:#3F3B3B;" cx="145.239" cy="170.96" r="60.049"/>
<path style="fill:#272525;" d="M145.239,110.904c-0.145,0-0.286,0.01-0.431,0.01v120.077c0.145,0.002,0.286,0.01,0.431,0.01
	c33.164,0,60.049-26.884,60.049-60.049C205.288,137.79,178.404,110.904,145.239,110.904z"/>
<circle style="fill:#808183;" cx="145.239" cy="170.96" r="48.04"/>
<path style="fill:#59595B;" d="M145.239,122.914c-0.145,0-0.286,0.01-0.431,0.01v96.058c0.145,0.002,0.286,0.01,0.431,0.01
	c26.531,0,48.04-21.507,48.04-48.038S171.77,122.914,145.239,122.914z"/>
<circle style="fill:#3F3B3B;" cx="145.239" cy="170.96" r="16.984"/>
<path style="fill:#272525;" d="M157.248,158.944c-3.425-3.427-7.951-5.067-12.44-4.954v33.928c4.489,0.114,9.014-1.527,12.44-4.955
	C163.881,176.331,163.881,165.578,157.248,158.944z"/>
<circle style="fill:#FFEDB5;" cx="145.239" cy="170.96" r="6.551"/>
<g>
</g>
<g>
</g>
<g>
</g>
<g>
</g>
<g>
</g>
<g>
</g>
<g>
</g>
<g>
</g>
<g>
</g>
<g>
</g>
<g>
</g>
<g>
</g>
<g>
</g>
<g>
</g>
<g>
</g>
</svg>
