<svg fill="none" height="127" viewBox="0 0 127 127" width="127" xmlns="http://www.w3.org/2000/svg" xmlns:xlink="http://www.w3.org/1999/xlink"><radialGradient id="a" cx="0" cy="0" gradientTransform="matrix(86.7817 0 0 88.2396 55.7043 83.6525)" gradientUnits="userSpaceOnUse" r="1"><stop offset=".39" stop-color="#ffd600"/><stop offset=".69" stop-color="#ff9800"/><stop offset="1" stop-color="#f44336"/></radialGradient><linearGradient id="b" gradientUnits="userSpaceOnUse" x1="65.8575" x2="67.3338" y1="54.7459" y2="7.85904"><stop offset=".165" stop-color="#ffeb3b"/><stop offset="1" stop-color="#ffd600"/></linearGradient><radialGradient id="c" cx="64.0496" cy="118.181" gradientUnits="userSpaceOnUse" r="99.6504"><stop offset=".119" stop-color="#ff6d00"/><stop offset=".485" stop-color="#f44336"/><stop offset=".814" stop-color="#b71c1c"/></radialGradient><linearGradient id="d" gradientUnits="userSpaceOnUse" x1="44.4967" x2="59.2644" y1="95.37" y2="140.226"><stop offset=".076" stop-color="#ffeb3b"/><stop offset="1" stop-color="#ffd600" stop-opacity="0"/></linearGradient><linearGradient id="e" gradientUnits="userSpaceOnUse" x1="93.9809" x2="119.666" y1="46.1089" y2="60.6643"><stop offset="0" stop-color="#ffd600"/><stop offset="1" stop-color="#ffd600" stop-opacity="0"/></linearGradient><linearGradient id="f" gradientUnits="userSpaceOnUse" x1="86.9683" x2="94.1666" y1="64.8434" y2="139.235"><stop offset=".187" stop-color="#ffeb3b"/><stop offset=".934" stop-color="#ffd600" stop-opacity="0"/></linearGradient><path d="m98.8813 50.6212c-2.6392-15.2102-9.0685-19.9132-14.7439-24.0605-3.8993-2.8476-7.2727-5.3082-8.9693-10.7057-1.8157-5.7547 2.7781-11.7475 2.8277-11.80704.129-.15875.1389-.38695.0298-.56554-.0511-.0875-.1284-.15667-.2211-.19764-.0926-.04098-.1958-.05167-.2949-.03057-.3869.06946-.883.13891-1.4684.20836-6.0524.80368-22.1159 2.91703-26.3426 24.45743-.5556 2.8376-2.2721 5.1395-4.068 5.4669-1.1509.2084-2.2324-.4266-3.1055-1.8454-3.4727-5.6356 3.8199-15.1309 3.8993-15.2301.129-.1587.1389-.387.0298-.5655-.0525-.0862-.13-.1542-.2222-.195-.0923-.0408-.1948-.0524-.2938-.0332-.2083.0396-20.5383 4.2763-28.7933 25.0626-2.5102 6.3202-9.5448 28.4163 5.2388 47.3869 14.8233 19.0198 23.8224 20.3198 24.0208 20.4288.0695.05 57.5965-20.7265 52.4768-57.7748z" fill="url(#a)"/><path d="m70.1973 36.6017c-3.939-7.6597-10.3287-23.7232 6.4988-32.50404-12.6504 2.27211-21.9472 11.27124-21.1931 26.46164.4862 9.902 6.0523 18.7325 8.642 28.2972 3.4825 12.9282.8532 21.0046-.6648 27.1065 21.59-14.1684 11.7673-39.5585 6.7171-49.3613z" fill="url(#b)" opacity=".8"/><path d="m86.6278 40.769c-16.5199 0-22.5821 16.8771-22.5821 16.8771s-4.3458-16.8771-22.6219-16.8771c-12.5016 0-26.7494 9.9021-21.4809 32.4247 5.2685 22.5128 44.1424 50.5723 44.1424 50.5723s38.7447-28.0496 44.0137-50.5624c5.268-22.5325-7.967-32.4346-21.4712-32.4346z" fill="url(#c)"/><path d="m28.6246 52.7247c2.8277-3.5322 7.8779-6.4393 12.1543-3.0857 2.3118 1.8157 1.2997 5.5464-.764 7.114-3.0163 2.292-5.6456 3.6711-7.4712 7.2628-1.1013 2.163-1.7661 4.5145-2.1034 6.9255-.129.9525-1.3792 1.1807-1.8455.3473-3.1948-5.6555-4.0977-13.4144.0298-18.5639zm45.3231 7.4117c-1.3295 0-2.2622-1.2799-1.776-2.5202.9029-2.2721 2.0538-4.4847 3.4528-6.4393 2.0637-2.8972 5.9928-4.5839 8.4832-2.8277 2.5499 1.7958 2.2225 5.3876.4266 7.114-3.8496 3.7207-8.6816 4.6732-10.5866 4.6732z" fill="#ff7043"/><path d="m62.0713 122.257c-12.0055-1.597-17.661-4.921-21.8182-13.593-2.1233-4.435-2.1332-12.0151-2.2126-16.7081-.0893-5.1991-1.657-9.6937-1.657-9.6937 3.1354.5556 8.8206 6.0623 11.44 16.2421 4.5541 17.6707 14.2478 23.7527 14.2478 23.7527z" fill="url(#d)"/><path d="m104.001 82.2622s9.019-5.2089 11.251-17.7502c1.459-8.1855-.277-16.3612-8.126-24.388-2.788-2.8575-11.9058-9.8127-8.4034-21.7983 0 0-8.5725 7.2727-5.6654 20.3894 3.2742 14.7737 17.2148 19.8438 10.9438 43.5471z" fill="url(#e)"/><path d="m97.1154 65.4844c2.411.8533 12.1746 16.0635 3.0956 32.0377-8.0764 14.2079-23.8621 16.4109-23.8621 16.4109s12.4619-12.482 17.3335-24.3285c4.4053-10.6859 3.433-24.1201 3.433-24.1201z" fill="url(#f)"/><path d="m63.6522 77.6522c0-.173-.0687-.3389-.191-.4612-.1224-.1223-.2882-.191-.4612-.191s-.3389.0687-.4612.191-.191.2882-.191.4612v3.6956h-3.6956c-.173 0-.3389.0687-.4612.191s-.191.2882-.191.4612.0687.3388.191.4612c.1223.1223.2882.191.4612.191h3.6956v3.6956c0 .173.0687.3389.191.4612s.2882.191.4612.191.3388-.0687.4612-.191c.1223-.1223.191-.2882.191-.4612v-3.6956h3.6956c.173 0 .3389-.0687.4612-.191.1223-.1224.191-.2882.191-.4612s-.0687-.3389-.191-.4612-.2882-.191-.4612-.191h-3.6956z" fill="#fff"/></svg>