<?xml version="1.0" encoding="iso-8859-1"?>
<!-- Generator: Adobe Illustrator 19.0.0, SVG Export Plug-In . SVG Version: 6.00 Build 0)  -->
<svg version="1.1" id="Layer_1" xmlns="http://www.w3.org/2000/svg" xmlns:xlink="http://www.w3.org/1999/xlink" x="0px" y="0px"
	 viewBox="0 0 512 512" style="enable-background:new 0 0 512 512;" xml:space="preserve">
<polygon style="fill:#3EAF64;" points="434.813,447.938 335.855,359.012 402.487,359.012 309.864,264.157 351.091,264.157 
	255.999,133.112 160.907,264.157 202.135,264.157 109.511,359.012 176.143,359.012 77.185,447.938 "/>
<rect x="210.496" y="447.933" style="fill:#A18671;" width="91.013" height="53.356"/>
<polygon style="fill:#F8A805;" points="255.999,10.707 275.51,53.506 322.242,58.836 287.568,90.617 296.94,136.709 
	255.999,113.552 215.058,136.709 224.43,90.617 189.757,58.836 236.489,53.506 "/>
<g>
	<circle style="fill:#E87078;" cx="337.014" cy="373.335" r="26.768"/>
	<circle style="fill:#E87078;" cx="249.931" cy="236.28" r="26.768"/>
	<circle style="fill:#E87078;" cx="222.092" cy="339.778" r="26.768"/>
</g>
<path style="fill:#231F20;" d="M441.969,439.973l-67.898-61.015c0.277-1.836,0.424-3.714,0.424-5.627
	c0-1.218-0.063-2.423-0.178-3.613h28.17c4.308,0,8.195-2.582,9.868-6.551c1.672-3.969,0.802-8.555-2.208-11.637l-74.863-76.666
	h15.807c4.026,0,7.71-2.257,9.539-5.844c1.828-3.586,1.492-7.895-0.873-11.153l-90.255-124.376l22.163,12.536
	c1.641,0.928,3.457,1.388,5.27,1.388c2.218,0,4.428-0.688,6.295-2.045c3.393-2.466,5.035-6.686,4.199-10.796l-8.165-40.157
	l30.21-27.688c3.092-2.834,4.244-7.213,2.949-11.202c-1.297-3.99-4.802-6.854-8.971-7.329l-40.714-4.644L265.742,6.266
	C264.003,2.45,260.193,0,255.999,0s-8.004,2.45-9.743,6.266l-16.999,37.287l-40.714,4.644c-4.168,0.475-7.674,3.341-8.971,7.329
	c-1.296,3.99-0.143,8.368,2.949,11.202l30.21,27.688l-8.165,40.157c-0.835,4.111,0.806,8.33,4.199,10.796
	c3.392,2.465,7.915,2.723,11.565,0.657l22.163-12.536L152.24,257.867c-2.364,3.257-2.7,7.566-0.873,11.153
	c1.829,3.586,5.513,5.844,9.539,5.844h15.807l-74.863,76.666c-3.01,3.082-3.879,7.668-2.208,11.637
	c1.671,3.969,5.559,6.551,9.868,6.551h38.699l-78.18,70.254c-3.299,2.965-4.43,7.655-2.842,11.796
	c1.588,4.142,5.564,6.875,9.999,6.875h122.6v42.649c0,5.914,4.795,10.707,10.707,10.707h91.013c5.913,0,10.707-4.794,10.707-10.707
	v-42.649h122.6c4.435,0,8.411-2.734,9.999-6.875S445.268,442.937,441.969,439.973z M353.08,373.332
	c0,8.856-7.205,16.061-16.061,16.061s-16.061-7.205-16.061-16.061c0-8.856,7.205-16.061,16.061-16.061
	S353.08,364.476,353.08,373.332z M249.931,220.216c8.856,0,16.061,7.205,16.061,16.061s-7.205,16.061-16.061,16.061
	c-8.856,0-16.061-7.205-16.061-16.061S241.075,220.216,249.931,220.216z M267.2,203.033c-5.172-2.698-11.043-4.233-17.269-4.233
	c-11.853,0-22.43,5.538-29.302,14.154c-3.574,0.366-6.907,0.631-9.931,0.818L256,151.344l31.21,43.009
	C280.753,197.811,273.999,200.67,267.2,203.033z M231.666,82.723l-17.36-15.91l23.396-2.668c3.734-0.425,6.972-2.778,8.53-6.197
	L256,36.521l9.768,21.427c1.558,3.419,4.796,5.771,8.529,6.197l23.396,2.668l-17.36,15.91c-2.77,2.54-4.007,6.344-3.258,10.027
	l4.692,23.076l-20.497-11.594c-1.635-0.925-3.453-1.388-5.271-1.388s-3.636,0.463-5.271,1.388l-20.496,11.593l4.692-23.076
	C235.673,89.067,234.435,85.262,231.666,82.723z M134.933,348.303l74.863-76.666c3.01-3.082,3.879-7.668,2.208-11.637
	s-5.559-6.551-9.868-6.551h-20.229l12.936-17.826c0.835,0.015,1.86,0.026,3.06,0.026c3.507,0,8.51-0.1,14.581-0.478
	c-0.011,0.368-0.028,0.735-0.028,1.105c0,20.664,16.812,37.476,37.476,37.476s37.476-16.812,37.476-37.476
	c0-5.942-1.396-11.562-3.869-16.558c5.539-2.292,11.018-4.909,16.341-7.904l30.213,41.636h-20.229c-3.729,0-7.139,1.94-9.072,5.036
	l-0.006-0.004c-0.292,0.469-18.878,29.659-51.911,55.123c-6.809-6.964-16.296-11.297-26.781-11.297
	c-20.664,0-37.476,16.812-37.476,37.476c0,2.123,0.186,4.202,0.528,6.23c-3.298,0.874-6.663,1.634-10.082,2.292h-40.129V348.303z
	 M206.031,339.781c0-8.856,7.205-16.061,16.061-16.061c8.856,0,16.061,7.205,16.061,16.061s-7.205,16.061-16.061,16.061
	C213.236,355.842,206.031,348.637,206.031,339.781z M157.252,390.382c16.831,8.14,63.093,30.001,108.325,46.847H105.12
	L157.252,390.382z M290.798,490.585H221.2v-31.941h69.598V490.585z M346.048,437.23c-42.642-2.996-135.931-45.475-171.543-62.351
	l6.606-5.936c4.705-0.965,9.298-2.114,13.784-3.419c6.836,7.218,16.496,11.734,27.198,11.734c20.664,0,37.476-16.812,37.476-37.476
	c0-2.317-0.223-4.582-0.626-6.783c25.153-18.717,42.88-39.652,52.272-52.134l65.853,67.438h-12.182
	c-6.866-7.637-16.813-12.448-27.865-12.448c-20.664,0-37.476,16.812-37.476,37.476s16.812,37.476,37.476,37.476
	c10.75,0,20.45-4.556,27.29-11.832l42.569,38.254h-60.832V437.23z"/>
<g>
</g>
<g>
</g>
<g>
</g>
<g>
</g>
<g>
</g>
<g>
</g>
<g>
</g>
<g>
</g>
<g>
</g>
<g>
</g>
<g>
</g>
<g>
</g>
<g>
</g>
<g>
</g>
<g>
</g>
</svg>
