<svg width="17" height="16" viewBox="0 0 17 16" fill="none" xmlns="http://www.w3.org/2000/svg">
<path d="M13.3329 7.33142C13.0295 6.64869 12.5886 6.03591 12.0375 5.53142L11.5829 5.11423C11.5674 5.10046 11.5488 5.09068 11.5287 5.08576C11.5086 5.08084 11.4876 5.08093 11.4676 5.08602C11.4475 5.09111 11.429 5.10105 11.4137 5.11496C11.3984 5.12887 11.3867 5.14632 11.3797 5.1658L11.1766 5.74861C11.05 6.11423 10.8172 6.48767 10.4875 6.85486C10.4657 6.87829 10.4407 6.88454 10.4235 6.88611C10.4063 6.88767 10.3797 6.88454 10.3563 6.86267C10.3344 6.84392 10.3235 6.81579 10.325 6.78767C10.3829 5.84704 10.1016 4.78611 9.48599 3.63142C8.97661 2.67205 8.2688 1.92361 7.38442 1.40174L6.73911 1.02205C6.65474 0.972052 6.54692 1.03768 6.55161 1.13611L6.58599 1.88611C6.60942 2.39861 6.55005 2.85174 6.40942 3.2283C6.23755 3.68923 5.99067 4.11736 5.67505 4.50173C5.4554 4.76886 5.20644 5.01048 4.93286 5.22205C4.27396 5.72855 3.73819 6.37756 3.36567 7.12048C2.99407 7.86987 2.8005 8.69494 2.80005 9.53141C2.80005 10.2689 2.94536 10.983 3.23286 11.6564C3.51046 12.3048 3.91108 12.8932 4.41255 13.3892C4.9188 13.8892 5.5063 14.283 6.16099 14.5564C6.83911 14.8408 7.55786 14.9845 8.30005 14.9845C9.04224 14.9845 9.76099 14.8408 10.4391 14.558C11.0922 14.2861 11.6861 13.8897 12.1875 13.3908C12.6938 12.8908 13.0907 12.3064 13.3672 11.658C13.6543 10.9864 13.8016 10.2633 13.8 9.53298C13.8 8.77048 13.6438 8.02985 13.3329 7.33142Z" fill="white"/>
</svg>
