<svg width="13" height="16" viewBox="0 0 13 16" fill="none" xmlns="http://www.w3.org/2000/svg">
<g clip-path="url(#clip0_687_181)">
<path d="M11.2001 0H2.20007C1.37164 0 0.700073 0.671562 0.700073 1.5V14.5C0.700073 15.3281 1.37164 16 2.20007 16H11.2001C12.0285 16 12.7001 15.3284 12.7001 14.5V1.5C12.7001 0.671562 12.0282 0 11.2001 0ZM6.70007 4C7.80476 4 8.70007 4.89531 8.70007 6C8.70007 7.10469 7.80476 8 6.70007 8C5.59539 8 4.70007 7.10313 4.70007 6C4.70007 4.89687 5.59695 4 6.70007 4ZM9.70007 12H3.70007C3.42395 12 3.20007 11.7761 3.20007 11.5C3.20007 10.1187 4.31882 9 5.70007 9H7.70007C9.0807 9 10.2001 10.1194 10.2001 11.5C10.2001 11.775 9.97507 12 9.70007 12Z" fill="white"/>
</g>
<defs>
<clipPath id="clip0_687_181">
<rect width="12" height="16" fill="white" transform="translate(0.700073)"/>
</clipPath>
</defs>
</svg>
