<svg width="17" height="16" viewBox="0 0 17 16" fill="none" xmlns="http://www.w3.org/2000/svg">
<path d="M15.322 4.43126C15.1126 3.94631 14.8106 3.50686 14.433 3.13751C14.055 2.76705 13.6095 2.47265 13.1205 2.27032C12.6134 2.05969 12.0695 1.95187 11.5205 1.95314C10.7501 1.95314 9.99858 2.16407 9.34546 2.56251C9.18921 2.65782 9.04077 2.76251 8.90015 2.87657C8.75952 2.76251 8.61108 2.65782 8.45483 2.56251C7.80171 2.16407 7.05015 1.95314 6.27983 1.95314C5.72515 1.95314 5.18765 2.05939 4.67983 2.27032C4.18921 2.47345 3.74702 2.76563 3.36733 3.13751C2.9892 3.50645 2.68714 3.946 2.47827 4.43126C2.26108 4.93594 2.15015 5.47188 2.15015 6.02344C2.15015 6.54375 2.2564 7.08594 2.46733 7.6375C2.6439 8.09843 2.89702 8.57656 3.22046 9.05937C3.73296 9.82343 4.43765 10.6203 5.31265 11.4281C6.76265 12.7672 8.19858 13.6922 8.25952 13.7297L8.62983 13.9672C8.7939 14.0719 9.00483 14.0719 9.1689 13.9672L9.53921 13.7297C9.60015 13.6906 11.0345 12.7672 12.4861 11.4281C13.3611 10.6203 14.0658 9.82343 14.5783 9.05937C14.9017 8.57656 15.1564 8.09843 15.3314 7.6375C15.5423 7.08594 15.6486 6.54375 15.6486 6.02344C15.6501 5.47188 15.5392 4.93594 15.322 4.43126Z" fill="white"/>
</svg>
