<svg width="17" height="16" viewBox="0 0 17 16" fill="none" xmlns="http://www.w3.org/2000/svg">
<path d="M8.146 1.14592C8.19245 1.09935 8.24762 1.06241 8.30837 1.0372C8.36911 1.012 8.43423 0.999023 8.5 0.999023C8.56577 0.999023 8.63089 1.012 8.69163 1.0372C8.75238 1.06241 8.80755 1.09935 8.854 1.14592C9.115 1.40792 10.262 2.59592 11.347 4.14892C12.417 5.67992 13.5 7.66492 13.5 9.49992C13.5 11.2799 12.923 12.6649 11.984 13.6049C11.049 14.5419 9.791 14.9999 8.5 14.9999C7.209 14.9999 5.951 14.5419 5.016 13.6049C4.077 12.6649 3.5 11.2809 3.5 9.49992C3.5 7.66492 4.583 5.67992 5.653 4.14992C6.40219 3.08342 7.23588 2.07886 8.146 1.14592Z" fill="white"/>
</svg>
