<svg enable-background="new 0 0 100 100" viewBox="0 0 100 100" xmlns="http://www.w3.org/2000/svg"><circle cx="50" cy="50" fill="#f2d383" r="50"/><circle cx="50" cy="50" fill="#daa561" r="40.6"/><path d="m83.3 43.5c-2.2 4.1-.4 6.5-2.6 10.7-2.2 4.1-5.1 4-7.3 8.2-2.2 4.1-.4 6.5-2.6 10.7-2.2 4.1-5.1 4-7.3 8.2l-10.7-5.6c2.2-4.2 5.2-4.1 7.3-8.2 2.2-4.2.4-6.6 2.6-10.7 2.2-4.2 5.2-4.1 7.3-8.2 2.2-4.2.4-6.6 2.6-10.7z" fill="#c04232"/><path d="m76.5 39.9c-2.2 4.1-.4 6.5-2.6 10.7-2.2 4.1-5.1 4-7.3 8.2-2.2 4.1-.4 6.5-2.6 10.7-2.2 4.1-5.1 4-7.3 8.2l-1.7-.7c2.2-4.2 5.2-4.1 7.3-8.2 2.2-4.2.4-6.6 2.6-10.7 2.2-4.2 5.2-4.1 7.3-8.2 2.2-4.2.4-6.6 2.6-10.7z" fill="#f37661"/><path d="m80.5 42c-2.2 4.1-.4 6.5-2.6 10.7-2.2 4.1-5.1 4-7.3 8.2-2.2 4.1-.4 6.5-2.6 10.7-2.2 4.1-5.1 4-7.3 8.2l-1.7-.7c2.2-4.2 5.2-4.1 7.3-8.2 2.2-4.2.4-6.6 2.6-10.7 2.2-4.2 5.2-4.1 7.3-8.2 2.2-4.2.4-6.6 2.6-10.7z" fill="#f37661"/><path d="m28.9 20.9c4.7.2 6-2.4 10.8-2.2 4.7.2 5.8 2.9 10.6 3.2 4.7.2 6-2.4 10.8-2.2 4.7.2 5.8 2.9 10.6 3.2l-.5 12.1c-4.8-.2-5.9-2.9-10.6-3.2-4.8-.2-6.1 2.4-10.8 2.2-4.8-.2-5.9-2.9-10.6-3.2-4.8-.2-6.1 2.4-10.8 2.2z" fill="#c04232"/><path d="m28.5 28.6c4.7.2 6-2.4 10.8-2.2 4.7.2 5.8 2.9 10.6 3.2 4.7.2 6-2.4 10.8-2.2 4.7.2 5.8 2.9 10.6 3.2l-.1 1.8c-4.8-.2-5.9-2.9-10.6-3.2-4.8-.2-6.1 2.4-10.8 2.2-4.8-.2-5.9-2.9-10.6-3.2-4.8-.2-6.1 2.4-10.8 2.2z" fill="#f37661"/><path d="m28.7 24.1c4.7.2 6-2.4 10.8-2.2 4.7.2 5.8 2.9 10.6 3.2 4.7.2 6-2.4 10.8-2.2 4.7.2 5.8 2.9 10.6 3.2l-.1 1.8c-4.8-.2-5.9-2.9-10.6-3.2-4.8-.2-6.1 2.4-10.8 2.2-4.8-.2-5.9-2.9-10.6-3.2-4.8-.2-6.1 2.4-10.8 2.2z" fill="#f37661"/><circle cx="37.1" cy="55.9" fill="#fff" r="19.5"/><circle cx="40" cy="54" fill="#fddd3f" r="7.4"/><g fill="#d2d3d3"><path d="m25.1 59.5c0-1.1-.9-2-2-2s-2 .9-2 2 .9 2 2 2c1 .1 2-.8 2-2z"/><circle cx="26.5" cy="49.3" r="1.4"/><circle cx="35.7" cy="70.3" r="1.4"/></g></svg>