<svg enable-background="new 0 0 100 100" viewBox="0 0 100 100" xmlns="http://www.w3.org/2000/svg"><path d="m91.6 34.3c0 .6-.3 7.3-1 15.6h-6.4c-1.1 0-1.9.1-1.9 1.2s.9 1.8 1.9 1.8h6c-.5 5.3-1.1 10.5-1.9 16.5h-4.1c-1.1 0-1.9 1-1.9 2s.9 1.3 1.9 1.3l3.7.1c-1.1 6.6-2.5 14.1-4.6 18.9-2.3-7.4-4.2-19.7-5.3-28.9h-2 5c1.1 0 1.9-.6 1.9-1.6s-.9-1.6-1.9-1.6h-3.4c-.5-5.3-1.1-14.5-1.3-18h4.7c1.1 0 1.9.7 1.9-.6s-.9-1.9-1.9-1.9h-4.9c-.1-1.3-.1-2-.1-2.1 0-1.5 1.6-3 4-4 .1 0 1.9-.8 4.9-.8 2.5 0 4.8.8 4.9.9.1-.1 1.2.4 1.8 1.2z" fill="#ee8826"/><path d="m83.4 91.9c-.1.3-.2.6-.3.9.1-.3.2-.6.3-.9z" fill="#ee8826"/><path d="m82.7 5c.4 0 .6.3.6.6v-1.2c0-.4-.3-.6-.6-.6s-.6.2-.6.6v1.2c0-.3.3-.6.6-.6z" fill="#fff"/><path d="m92.3 12.8c-.1-.1-.3-.3-.7.2-2.2 2.2-3.3 5.3-4.6 8.2-.4.8-1.2 1.3-2.1 1.2-.9-.2-1.6-1-1.6-1.9v-1.2-14.9c0-.4-.3-.6-.6-.6-.4 0-.7.2-.7.6v14.8 1.2c0 .9-.6 1.7-1.5 1.9s-1.8-.3-2.1-1.2c-1.2-3-2.7-5.7-4.6-8.2-.1-.2-.5-.5-.7-.2 0 0 0 .1-.1.1 0 0 0 0 0-.1 2.9 3.9 4.8 8.4 5.8 13.4 1.2-.3 2.5-.4 3.9-.4s2.7.2 3.9.4c.9-4.8 2.9-9.4 5.7-13.3.1.1 0 .1 0 0z" fill="#85bd94"/><path d="m95 8.9c-.9-.9-2-1.3-3.2-1.3-1.3.1-2.4.7-3.2 1.7-.5.7-1 1.4-1.5 2.1v-7c0-2.4-2-4.4-4.4-4.4s-4.4 2-4.4 4.4v7.1c-.5-.7-1-1.4-1.5-2.1-.8-1.1-2-1.7-3.2-1.7-1.2-.1-2.4.4-3.2 1.3-1.6 1.7-1.8 4.2-.4 6.1 2.6 3.5 4.4 7.8 5.2 12.4-3.2 1.5-5.2 4-5.2 6.9v.1c.1 2 1.8 48.4 11 64.6.3.6 1 1 1.6 1s1.3-.4 1.6-1c9.2-16.2 11-62.7 11-64.6v-.1c0-2.9-2-5.4-5.2-6.9.8-4.6 2.6-8.8 5.2-12.4 1.6-1.9 1.4-4.5-.2-6.2zm-4.3 40.3h-6.4c-1.1 0-1.9.9-1.9 1.9 0 1.1.9 1.9 1.9 1.9h6c-.5 5.2-1.1 10.9-1.9 16.6h-4.1c-1.1 0-1.9.9-1.9 1.9s.9 1.9 1.9 1.9h3.5c-1.3 7.7-2.9 15.1-5.1 20.4-3.1-7.6-5.2-19.5-6.5-30.6h4.9c1.1 0 1.9-.9 1.9-1.9 0-1.1-.9-1.9-1.9-1.9h-5.4c-.7-6.3-1.2-12.1-1.5-16.6h6.8c1.1 0 1.9-.9 1.9-1.9 0-1.1-.9-1.9-1.9-1.9h-7c-.2-2.7-.2-4.4-.2-4.7 0-1.5 1.6-3 4-3.9.1 0 1.9-.8 4.9-.8 2.5 0 4.8.8 4.9.8 2.5.9 4 2.5 4 3.9 0 .6-.2 6.6-.9 14.9zm-17.5-37.6c.3-.3.6 0 .7.2 1.9 2.4 3.4 5.2 4.6 8.2.3.9 1.2 1.3 2.1 1.2.9-.2 1.5-1 1.5-1.9v-14.9c0-.4.3-.6.6-.6s.6.3.6.6v14.8c0 .9.7 1.7 1.5 1.9.9.2 1.7-.4 2.1-1.2 1.3-2.8 2.4-6 4.6-8.2.5-.5.6-.3.7-.2.3.4.4.9.1 1.3-2.9 3.9-4.8 8.4-5.8 13.4-1.2-.3-2.5-.4-3.9-.4s-2.7.2-3.9.4c-.9-4.9-2.9-9.5-5.8-13.4-.1-.3-.1-.9.3-1.2z" fill="#402e21"/><circle cx="35.3" cy="68.3" fill="#f2d383" r="31.7"/><circle cx="35.3" cy="68.3" fill="#daa561" r="25.7"/><path d="m56.4 64.2c-1.4 2.6-.2 4.1-1.6 6.8-1.4 2.6-3.2 2.5-4.6 5.2-1.4 2.6-.2 4.1-1.6 6.8-1.4 2.6-3.2 2.5-4.6 5.2l-6.8-3.5c1.4-2.7 3.3-2.6 4.6-5.2 1.4-2.7.3-4.2 1.6-6.8 1.4-2.7 3.3-2.6 4.6-5.2 1.4-2.7.3-4.2 1.6-6.8z" fill="#c04232"/><path d="m52.1 61.9c-1.4 2.6-.2 4.1-1.6 6.8-1.4 2.6-3.2 2.5-4.6 5.2-1.4 2.6-.2 4.1-1.6 6.8-1.4 2.6-3.2 2.5-4.6 5.2l-1-.5c1.4-2.7 3.3-2.6 4.6-5.2 1.4-2.7.3-4.2 1.6-6.8 1.4-2.7 3.3-2.6 4.6-5.2 1.4-2.7.3-4.2 1.6-6.8z" fill="#f37661"/><path d="m54.6 63.2c-1.4 2.6-.2 4.1-1.6 6.8-1.4 2.6-3.2 2.5-4.6 5.2-1.4 2.6-.2 4.1-1.6 6.8-1.4 2.6-3.2 2.5-4.6 5.2l-1-.5c1.4-2.7 3.3-2.6 4.6-5.2 1.4-2.7.3-4.2 1.6-6.8 1.4-2.7 3.3-2.6 4.6-5.2 1.4-2.7.3-4.2 1.6-6.8z" fill="#f37661"/><path d="m21.9 49.8c3 .1 3.8-1.5 6.8-1.4s3.7 1.9 6.7 2 3.8-1.5 6.8-1.4 3.7 1.9 6.7 2l-.4 7.6c-3-.1-3.7-1.9-6.7-2s-3.9 1.5-6.8 1.4c-3-.1-3.7-1.9-6.7-2s-3.9 1.5-6.8 1.4z" fill="#c04232"/><path d="m21.7 54.7c3 .1 3.8-1.5 6.8-1.4s3.7 1.9 6.7 2 3.8-1.5 6.8-1.4 3.7 1.9 6.7 2l-.1 1.2c-3-.1-3.7-1.9-6.7-2s-3.9 1.5-6.8 1.4c-3-.1-3.7-1.9-6.7-2s-3.9 1.5-6.8 1.4z" fill="#f37661"/><path d="m21.9 51.9c3 .1 3.8-1.5 6.8-1.4s3.7 1.9 6.7 2 3.8-1.5 6.8-1.4 3.7 1.9 6.7 2l-.1 1.2c-3-.1-3.7-1.9-6.7-2s-3.9 1.5-6.8 1.4c-3-.1-3.7-1.9-6.7-2s-3.9 1.5-6.8 1.4z" fill="#f37661"/><circle cx="27.2" cy="72.1" fill="#fff" r="12.4"/><circle cx="29" cy="70.8" fill="#fddd3f" r="4.7"/><g fill="#d2d3d3"><path d="m19.5 74.3c0-.7-.6-1.3-1.3-1.3s-1.3.6-1.3 1.3.6 1.3 1.3 1.3c.8 0 1.3-.6 1.3-1.3z"/><circle cx="20.4" cy="67.8" r=".9"/><circle cx="26.2" cy="81.1" r=".9"/></g></svg>