<?xml version="1.0" encoding="utf-8"?>
<!-- Generator: Adobe Illustrator 24.1.2, SVG Export Plug-In . SVG Version: 6.00 Build 0)  -->
<svg version="1.1" id="Capa_1" xmlns="http://www.w3.org/2000/svg" xmlns:xlink="http://www.w3.org/1999/xlink" x="0px" y="0px"
	 viewBox="0 0 398.9 398.9" style="enable-background:new 0 0 398.9 398.9;" xml:space="preserve">
<style type="text/css">
	.st0{fill:#EF8829;}
	.st1{fill:#FFFFFF;}
	.st2{fill:#84BD93;}
	.st3{fill:#3F2D20;}
	.st4{fill:#F2D383;}
	.st5{fill:#D9A460;}
	.st6{fill:#BF4132;}
	.st7{fill:#F47660;}
	.st8{fill:#FEDD3D;}
	.st9{fill:#D1D3D3;}
</style>
<g>
	<g>
		<path class="st0" d="M350.9,136.9c-0.1,2.2-1,29.1-3.8,62.1h-25.4c-4.2,0-7.5,0.5-7.5,4.7c0,4.2,3.4,7.3,7.5,7.3h24.1
			c-1.9,21-4.4,42-7.7,66h-16.3c-4.2,0-7.5,3.9-7.5,8.1s3.4,5.3,7.5,5.3l14.8,0.5c-4.5,26.3-9.8,56.3-18.4,75.6
			c-9-29.5-16.7-78.5-21.2-115.5h-7.8H309c4.2,0,7.5-2.3,7.5-6.5s-3.4-6.5-7.5-6.5h-13.5c-2.1-21-4.2-58-5.2-72h18.7
			c4.2,0,7.5,2.9,7.5-2.4s-3.4-7.6-7.5-7.6h-19.6c-0.2-5-0.3-7.8-0.4-8.5c0.1-5.8,6.2-12.1,16.1-15.8c0.3-0.1,7.4-3.2,19.4-3.2
			c10,0,19.2,3.3,19.4,3.4C343.9,131.8,348.4,133.7,350.9,136.9z"/>
		<path class="st0" d="M318.2,366.7c-0.4,1.2-0.9,2.4-1.3,3.6C317.3,369.1,317.8,367.9,318.2,366.7z"/>
	</g>
	<g>
		<path class="st1" d="M315.4,19.9c1.4,0,2.5,1.1,2.5,2.5v-4.9c0-1.4-1.1-2.5-2.5-2.5c-1.4,0-2.5,1.1-2.5,2.5v4.9
			C313,21,314.1,19.9,315.4,19.9z"/>
		<path class="st2" d="M353.6,51.1c-0.3-0.3-1.1-1.2-2.9,0.6c-8.7,8.7-13.2,21.3-18.3,32.6c-1.5,3.3-4.9,5.3-8.5,4.7
			c-3.6-0.7-6.2-3.8-6.2-7.4v-4.9V17.5c0-1.4-1.1-2.5-2.5-2.5c-1.4,0-2.5,1.1-2.5,2.5v59.2v4.9c0,3.6-2.4,6.7-6,7.4
			c-3.6,0.7-7-1.3-8.3-4.7c-4.7-11.9-10.8-22.9-18.3-32.6c-0.5-0.7-1.8-1.8-2.9-0.6c-0.1,0.1-0.1,0.2-0.2,0.3c0-0.1-0.1-0.1-0.1-0.2
			c11.4,15.4,19.2,33.7,23,53.4c4.9-1,10.1-1.6,15.5-1.6c5.4,0,10.6,0.6,15.5,1.6c3.7-19.7,11.6-38,23-53.4c0,0.1-0.1,0.1-0.1,0.2
			C353.7,51.3,353.7,51.2,353.6,51.1z"/>
	</g>
	<path class="st3" d="M364.4,35.7c-3.4-3.5-8-5.3-12.8-5.1c-5,0.3-9.5,2.7-12.8,6.9c-2.1,2.7-4,5.4-5.9,8.2V17.5
		c0-9.6-7.9-17.5-17.5-17.5c-9.6,0-17.5,7.9-17.5,17.5v28.3c-1.9-2.8-3.8-5.6-5.9-8.2c-3.2-4.2-7.8-6.7-12.8-6.9
		c-4.8-0.3-9.4,1.6-12.8,5.1c-6.4,6.6-7.1,16.9-1.6,24.4c10.4,14.1,17.5,31,20.7,49.3c-12.6,6.1-20.6,16.1-20.6,27.6
		c0,0.1,0,0.2,0,0.3c0.3,7.9,7.3,193.2,44,257.8c1.3,2.4,3.8,3.8,6.5,3.8c2.7,0,5.2-1.5,6.5-3.8c36.7-64.6,43.7-250,44-257.8
		c0-0.1,0-0.2,0-0.3c0-11.5-8.1-21.4-20.6-27.6c3.1-18.3,10.2-35.2,20.7-49.3C371.5,52.6,370.8,42.4,364.4,35.7z M347.2,196.2h-25.4
		c-4.2,0-7.5,3.4-7.5,7.5c0,4.2,3.4,7.5,7.5,7.5h24.1c-1.9,20.6-4.4,43.5-7.7,66.2h-16.3c-4.2,0-7.5,3.4-7.5,7.5s3.4,7.5,7.5,7.5
		h13.9c-5.1,30.9-11.7,60.2-20.4,81.5c-12.5-30.5-20.7-77.8-26.1-122.1H309c4.2,0,7.5-3.4,7.5-7.5c0-4.2-3.4-7.5-7.5-7.5h-21.5
		c-2.7-25-4.6-48.3-5.8-66.2h27.2c4.2,0,7.5-3.4,7.5-7.5c0-4.2-3.4-7.5-7.5-7.5h-28.1c-0.6-10.8-0.9-17.6-0.9-18.8
		c0.1-5.8,6.2-11.9,16.1-15.6c0.3-0.1,7.4-3.3,19.4-3.3c10,0,19.2,3.2,19.4,3.3c9.9,3.6,16,9.8,16.1,15.6
		C350.9,139.1,349.9,163.2,347.2,196.2z M277.3,46.2c1.1-1.2,2.3-0.1,2.9,0.6c7.5,9.7,13.6,20.6,18.3,32.6c1.3,3.4,4.8,5.3,8.4,4.7
		c3.6-0.7,6.1-3.8,6.1-7.4V17.5c0-1.4,1.1-2.5,2.5-2.5c1.4,0,2.5,1.1,2.5,2.5v59.2c0,3.6,2.6,6.7,6.1,7.4c3.5,0.7,6.9-1.4,8.4-4.7
		c5.1-11.3,9.6-23.9,18.3-32.6c1.8-1.8,2.5-1,2.9-0.6c1.3,1.4,1.4,3.5,0.3,5c-11.4,15.4-19.3,33.7-23,53.4c-4.9-1-10.1-1.6-15.5-1.6
		c-5.4,0-10.6,0.6-15.5,1.6c-3.7-19.7-11.6-38-23-53.4C275.8,49.7,276,47.6,277.3,46.2z"/>
</g>
<g>
	<circle class="st4" cx="126.3" cy="272.5" r="126.3"/>
	<circle class="st5" cx="126.3" cy="272.5" r="102.4"/>
	<g>
		<path class="st6" d="M210.4,256c-5.5,10.5-0.9,16.4-6.5,27.1c-5.5,10.5-12.9,10.1-18.5,20.8c-5.5,10.5-0.9,16.4-6.5,27.1
			c-5.5,10.5-12.9,10.1-18.5,20.8l-27-14.1c5.6-10.7,13-10.4,18.5-20.8c5.6-10.7,1-16.6,6.5-27.1c5.6-10.7,13-10.4,18.5-20.8
			c5.6-10.7,1.1-16.6,6.5-27.1L210.4,256z"/>
		<path class="st7" d="M193.1,246.9c-5.5,10.5-0.9,16.4-6.5,27.1c-5.5,10.5-12.9,10.1-18.5,20.8c-5.5,10.5-0.9,16.4-6.5,27.1
			c-5.5,10.5-12.9,10.1-18.5,20.8l-4.1-2.1c5.6-10.7,13-10.4,18.5-20.8c5.6-10.7,1.1-16.6,6.5-27.1c5.6-10.7,13-10.4,18.5-20.8
			c5.6-10.7,1-16.6,6.5-27.1L193.1,246.9z"/>
		<path class="st7" d="M203.2,252.2c-5.5,10.5-0.9,16.4-6.5,27.1c-5.5,10.5-12.9,10.1-18.5,20.8c-5.5,10.5-0.9,16.4-6.5,27.1
			c-5.5,10.5-12.9,10.1-18.5,20.8l-4.1-2.1c5.6-10.7,13-10.4,18.5-20.8c5.6-10.7,1-16.6,6.5-27.1c5.6-10.7,13-10.4,18.5-20.8
			c5.6-10.7,1.1-16.6,6.5-27.1L203.2,252.2z"/>
	</g>
	<g>
		<path class="st6" d="M72.9,198.9c11.8,0.5,15.3-6.1,27.3-5.5c11.8,0.5,14.7,7.4,26.7,8c11.8,0.5,15.3-6.1,27.3-5.5
			c11.8,0.5,14.7,7.4,26.7,8l-1.4,30.5c-12-0.5-14.9-7.4-26.7-8c-12-0.5-15.5,6.1-27.3,5.5c-12-0.5-14.9-7.4-26.7-8
			c-12-0.5-15.5,6.1-27.3,5.5L72.9,198.9z"/>
		<path class="st7" d="M72.1,218.4c11.8,0.5,15.3-6.1,27.3-5.5c11.8,0.5,14.7,7.4,26.7,8c11.8,0.5,15.3-6.1,27.3-5.5
			c11.8,0.5,14.7,7.4,26.7,8l-0.2,4.6c-12-0.5-14.9-7.4-26.7-8c-12-0.5-15.5,6.1-27.3,5.5c-12-0.5-14.9-7.4-26.7-8
			c-12-0.5-15.5,6.1-27.3,5.5L72.1,218.4z"/>
		<path class="st7" d="M72.6,207.1c11.8,0.5,15.3-6.1,27.3-5.5c11.8,0.5,14.7,7.4,26.7,8c11.8,0.5,15.3-6.1,27.3-5.5
			c11.8,0.5,14.7,7.4,26.7,8l-0.2,4.6c-12-0.5-14.9-7.4-26.7-8c-12-0.5-15.5,6.1-27.3,5.5c-12-0.5-14.9-7.4-26.7-8
			c-12-0.5-15.5,6.1-27.3,5.5L72.6,207.1z"/>
	</g>
	<g>
		<circle class="st1" cx="93.7" cy="287.5" r="49.4"/>
		<circle class="st8" cx="101" cy="282.6" r="18.6"/>
		<path class="st9" d="M63.3,296.5c0-2.9-2.3-5.2-5.2-5.2c-2.9,0-5.2,2.3-5.2,5.2c0,2.9,2.3,5.2,5.2,5.2
			C61,301.7,63.3,299.4,63.3,296.5z"/>
		<circle class="st9" cx="66.9" cy="270.7" r="3.6"/>
		<circle class="st9" cx="90" cy="323.7" r="3.6"/>
	</g>
</g>
</svg>
