<?xml version="1.0" encoding="iso-8859-1"?>
<!-- Generator: Adobe Illustrator 19.0.0, SVG Export Plug-In . SVG Version: 6.00 Build 0)  -->
<svg version="1.1" id="Layer_1" xmlns="http://www.w3.org/2000/svg" xmlns:xlink="http://www.w3.org/1999/xlink" x="0px" y="0px"
	 viewBox="0 0 340.642 340.642" style="enable-background:new 0 0 340.642 340.642;" xml:space="preserve">
<g>
	<circle style="fill:#F2D383;" cx="170.321" cy="170.321" r="170.321"/>
	<circle style="fill:#D9A460;" cx="170.321" cy="170.321" r="138.143"/>
	<g>
		<path style="fill:#BF4132;" d="M283.848,148.11c-7.375,14.127-1.269,22.135-8.792,36.541
			c-7.375,14.125-17.437,13.689-24.961,28.096c-7.376,14.127-1.268,22.135-8.792,36.54c-7.376,14.126-17.438,13.689-24.962,28.094
			l-36.485-19.052c7.523-14.406,17.584-13.972,24.961-28.096c7.523-14.407,1.416-22.414,8.792-36.54
			c7.523-14.406,17.585-13.968,24.96-28.096c7.524-14.406,1.417-22.415,8.793-36.54L283.848,148.11z"/>
		<path style="fill:#F47660;" d="M260.476,135.906c-7.377,14.124-1.269,22.134-8.791,36.54
			c-7.377,14.125-17.439,13.689-24.962,28.096c-7.376,14.125-1.268,22.133-8.792,36.537c-7.376,14.128-17.438,13.691-24.96,28.098
			l-5.508-2.876c7.522-14.405,17.584-13.97,24.961-28.097c7.523-14.404,1.417-22.413,8.792-36.538
			c7.523-14.405,17.585-13.97,24.962-28.095c7.523-14.408,1.415-22.416,8.791-36.543L260.476,135.906z"/>
		<path style="fill:#F47660;" d="M274.07,143.004c-7.376,14.127-1.27,22.133-8.792,36.54c-7.376,14.126-17.438,13.688-24.962,28.095
			c-7.376,14.127-1.268,22.137-8.791,36.539c-7.376,14.127-17.438,13.691-24.961,28.098l-5.509-2.878
			c7.522-14.404,17.585-13.969,24.962-28.096c7.522-14.405,1.414-22.413,8.791-36.538c7.523-14.408,17.583-13.971,24.96-28.096
			c7.523-14.406,1.417-22.415,8.793-36.54L274.07,143.004z"/>
	</g>
	<g>
		<path style="fill:#BF4132;" d="M98.396,71.134c15.92,0.709,20.595-8.211,36.832-7.482c15.918,0.711,19.776,10.014,36.015,10.741
			c15.92,0.712,20.594-8.21,36.83-7.483c15.92,0.713,19.778,10.016,36.013,10.744l-1.839,41.119
			c-16.237-0.727-20.097-10.029-36.015-10.74c-16.237-0.729-20.912,8.191-36.831,7.48c-16.236-0.727-20.093-10.03-36.014-10.741
			c-16.237-0.728-20.913,8.194-36.831,7.481L98.396,71.134z"/>
		<path style="fill:#F47660;" d="M97.218,97.473c15.919,0.714,20.595-8.208,36.83-7.481c15.919,0.712,19.778,10.014,36.014,10.74
			c15.92,0.713,20.595-8.206,36.829-7.479c15.922,0.711,19.78,10.014,36.016,10.74l-0.277,6.205
			c-16.234-0.725-20.094-10.029-36.016-10.738c-16.234-0.729-20.91,8.191-36.829,7.479c-16.234-0.727-20.095-10.029-36.013-10.742
			c-16.239-0.725-20.913,8.195-36.833,7.483L97.218,97.473z"/>
		<path style="fill:#F47660;" d="M97.903,82.152c15.921,0.713,20.594-8.205,36.831-7.48c15.92,0.713,19.776,10.014,36.015,10.742
			c15.919,0.711,20.596-8.21,36.829-7.482c15.919,0.711,19.778,10.015,36.015,10.741l-0.278,6.207
			c-16.233-0.726-20.094-10.028-36.015-10.739c-16.235-0.727-20.908,8.193-36.828,7.48c-16.238-0.727-20.096-10.028-36.015-10.742
			c-16.236-0.727-20.911,8.193-36.831,7.481L97.903,82.152z"/>
	</g>
	<g>
		<circle style="fill:#FFFFFF;" cx="126.368" cy="190.563" r="66.582"/>
		<circle style="fill:#FEDD3D;" cx="136.298" cy="183.944" r="25.096"/>
		<path style="fill:#D1D3D3;" d="M85.35,202.811c0-3.854-3.124-6.98-6.977-6.98c-3.854,0-6.979,3.126-6.979,6.98
			c0,3.852,3.125,6.979,6.979,6.979C82.226,209.79,85.35,206.663,85.35,202.811z"/>
		<circle style="fill:#D1D3D3;" cx="90.263" cy="167.893" r="4.913"/>
		<circle style="fill:#D1D3D3;" cx="121.456" cy="239.391" r="4.912"/>
	</g>
</g>
<g>
</g>
<g>
</g>
<g>
</g>
<g>
</g>
<g>
</g>
<g>
</g>
<g>
</g>
<g>
</g>
<g>
</g>
<g>
</g>
<g>
</g>
<g>
</g>
<g>
</g>
<g>
</g>
<g>
</g>
</svg>
