<svg fill="none" height="24" viewBox="0 0 24 24" width="24" xmlns="http://www.w3.org/2000/svg"><path d="m12 0c6.6 0 12 5.4 12 12s-5.4 12-12 12-12-5.4-12-12 5.4-12 12-12z" fill="#eaeaea"/><g fill="#bababa"><path d="m12.9001 8.1001h-1.6c-2.60003 0-4.80003 2-5.20003 4.6l-.1.5c-.2 1.4.9 2.7 2.4 2.7h1c1.50003 0 2.80003-1 3.20003-2.4l.6-5c0-.2-.1-.4-.3-.4zm-2.3 2.5c-1.00003.2-1.80003 1-2.10003 1.9-.1.2-.3.4-.6.3-.2-.1-.4-.3-.3-.6.5-1.2 1.5-2.2 2.80003-2.5.2-.1.5.1.5.3.1.3 0 .5-.3.6z"/><path d="m16.4 8.1001h-2c-.1 0-.3.1-.3.3l-.6 4.8c0 .2.1.3.3.3h.1c2.1 0 3.8-1.5 4.1-3.6.1-.9-.7-1.8-1.6-1.8z"/></g></svg>