<svg enable-background="new 0 0 74 74" viewBox="0 0 74 74" xmlns="http://www.w3.org/2000/svg"><path d="m11.5 63.8c2.3-11.1 7.6-21.7 7.6-21.7l-17.6-15.5c-1 3.3-1.5 6.8-1.5 10.4 0 10.5 4.4 20.1 11.5 26.8z" fill="#db6a26"/><path d="m39 .1 17.8 17.4c5.1 5 7.2 12.3 5.5 19.3l-1 4.1 1 23.2c7.2-6.8 11.7-16.4 11.7-27.1 0-19.8-15.5-35.9-35-36.9z" fill="#db6a26"/><path d="m37 74c9.8 0 18.7-3.8 25.3-10l-1-23.2 1-4.1c1.7-6.9-.3-14.3-5.5-19.3l-17.8-17.3c-.7-.1-1.3-.1-2-.1-16.8 0-31 11.2-35.5 26.6l17.6 15.5s-5.4 10.6-7.6 21.7c6.6 6.3 15.6 10.2 25.5 10.2z" fill="#fbcf9e"/><path d="m36.4 8.9c-1.8-2-4.3-3-6.7-3-3 .1-6.1-.8-8.7-2.4-4.1 2-7.8 4.7-10.9 8 2.4 3 3.6 6.7 3.5 10.5 0 2.4.9 4.9 3 6.7 3.1 2.8 7.8 3 11 .4 1.3-1 2.2-2.4 2.7-3.8.4-1.3 1.5-2.4 2.8-2.8 1.4-.5 2.8-1.4 3.8-2.7 2.5-3.1 2.3-7.8-.5-10.9z" fill="#f7f2d6"/><path d="m47.8 46c-1.7-.2-3.2.1-4.6.8-1.2.6-2.7.6-4 0-1.4-.7-2.9-1-4.6-.8-4 .5-7.2 3.9-7.4 8.1-.2 2.7.9 5.1 2.6 6.8 3.1 3 5.1 7.1 5.1 11.5v1.6c.7 0 1.4.1 2.1.1 3.7 0 7.2-.5 10.6-1.5v-.1c0-4.4 1.9-8.5 5-11.5 1.8-1.7 2.8-4.1 2.6-6.8-.2-4.3-3.4-7.8-7.4-8.2z" fill="#f7f2d6"/><circle cx="41.2" cy="33.2" fill="#fff" r="8.9"/></svg>