<?xml version="1.0" encoding="utf-8"?>
<!-- Generator: Adobe Illustrator 24.1.2, SVG Export Plug-In . SVG Version: 6.00 Build 0)  -->
<svg version="1.1" id="Layer_1" xmlns="http://www.w3.org/2000/svg" xmlns:xlink="http://www.w3.org/1999/xlink" x="0px" y="0px"
	 viewBox="0 0 512 512" style="enable-background:new 0 0 512 512;" xml:space="preserve">
<style type="text/css">
	.st0{fill:#CA463D;}
	.st1{fill:#EFEFEF;}
	.st2{fill:#51C0C2;}
	.st3{fill:#C8FEFF;}
	.st4{fill:#F9EBDB;}
	.st5{fill:#700D00;}
	.st6{fill:#FFFFFF;}
</style>
<circle class="st0" cx="256" cy="256" r="243.8"/>
<g>
	<path class="st1" d="M375.5,102C342.5,76.3,301,61,256,61C148.5,61,61,148.5,61,256c0,45,15.3,86.5,41,119.5L375.5,102z"/>
	<path class="st1" d="M136.5,410c33,25.7,74.5,41,119.5,41c107.5,0,195-87.5,195-195c0-45-15.3-86.5-41-119.5L136.5,410z"/>
</g>
<path d="M256,0C114.8,0,0,114.8,0,256s114.8,256,256,256s256-114.8,256-256S397.2,0,256,0z M256,487.6
	C128.3,487.6,24.4,383.7,24.4,256S128.3,24.4,256,24.4S487.6,128.3,487.6,256S383.7,487.6,256,487.6z"/>
<path d="M387.7,101.2c-0.2-3.5-1.9-6.7-4.7-8.9c-36.7-28.5-80.6-43.6-127-43.6c-114.3,0-207.2,93-207.2,207.2
	c0,46.4,15.1,90.4,43.6,127c2.1,2.8,5.4,4.5,8.9,4.7c0.3,0,0.5,0,0.8,0c3.2,0,6.3-1.3,8.6-3.6l273.6-273.6
	C386.6,108.1,387.9,104.7,387.7,101.2z M103.5,356.8C83.6,326.9,73.1,292.3,73.1,256c0-100.8,82-182.9,182.9-182.9
	c36.3,0,70.9,10.5,100.8,30.3L103.5,356.8z"/>
<path d="M419.6,129c-2.1-2.8-5.4-4.5-8.9-4.7c-3.5-0.2-6.9,1.1-9.4,3.5L127.8,401.4c-2.5,2.5-3.8,5.9-3.5,9.4
	c0.2,3.5,1.9,6.7,4.7,8.9c36.7,28.5,80.6,43.6,127,43.6c114.3,0,207.2-93,207.2-207.2C463.2,209.6,448.2,165.6,419.6,129z
	 M256,438.9c-36.3,0-70.9-10.5-100.8-30.3l253.3-253.3c19.9,29.9,30.4,64.5,30.4,100.8C438.9,356.8,356.8,438.9,256,438.9z"/>
<rect x="197" y="8.2" class="st2" width="118" height="32.7"/>
<path class="st3" d="M304.1,73.5l36.1,71.6c-21.1,0-21.1,15.7-42.1,15.7s-21.1-15.7-42.1-15.7c-21.1,0-21.1,15.7-42.1,15.7
	s-21.1-15.7-42.1-15.7l36.1-71.6V40.9h96.2L304.1,73.5L304.1,73.5z"/>
<path class="st4" d="M364.2,214.5V482c0,12-9.8,21.8-21.8,21.8H169.6c-12,0-21.8-9.8-21.8-21.8V214.5c0-12,4.4-30.5,9.8-41.2
	l14.2-28.1c21.1,0,21.1,15.7,42.1,15.7s21.1-15.7,42.1-15.7c21.1,0,21.1,15.7,42.1,15.7c21.1,0,21.1-15.7,42.1-15.7l14.2,28.1
	C359.8,183.9,364.2,202.5,364.2,214.5z"/>
<path class="st5" d="M361.7,169.5l-49.4-98V49h2.7c4.5,0,8.2-3.7,8.2-8.2V8.2c0-4.5-3.7-8.2-8.2-8.2H197c-4.5,0-8.2,3.7-8.2,8.2
	v32.7c0,4.5,3.7,8.2,8.2,8.2h2.7v22.6l-49.4,98c-6,11.9-10.7,31.6-10.7,44.9V482c0,16.5,13.4,30,30,30h172.9c16.5,0,30-13.4,30-30
	V214.5C372.4,201.2,367.7,181.4,361.7,169.5z M205.2,16.3h101.6v16.3H205.2V16.3z M215.2,77.2c0.6-1.1,0.9-2.4,0.9-3.7V49h79.8v24.5
	c0,1.3,0.3,2.5,0.9,3.7l31.1,61.6c-5.9,1.9-10,5-13.6,7.7c-4.9,3.6-8.4,6.2-16.2,6.2s-11.3-2.6-16.2-6.2c-5.7-4.2-12.7-9.5-26-9.5
	c-13.2,0-20.3,5.3-25.9,9.5c-4.8,3.6-8.4,6.2-16.2,6.2s-11.3-2.6-16.2-6.2c-3.6-2.7-7.7-5.8-13.6-7.7L215.2,77.2z M356,482
	c0,7.5-6.1,13.6-13.6,13.6H169.6c-7.5,0-13.6-6.1-13.6-13.6V214.5c0-10.8,4.1-28,8.9-37.6l11.7-23.2c4.7,0.9,7.6,3.1,11.3,5.8
	c5.7,4.2,12.7,9.5,25.9,9.5c13.2,0,20.3-5.3,25.9-9.5c4.8-3.6,8.4-6.2,16.2-6.2c7.8,0,11.3,2.6,16.2,6.2c5.7,4.2,12.7,9.5,26,9.5
	c13.2,0,20.3-5.3,26-9.5c3.7-2.8,6.7-5,11.3-5.8l11.7,23.2c4.8,9.6,8.9,26.8,8.9,37.6L356,482L356,482z"/>
<g>
	<path class="st6" d="M180.5,479.3c-4.5,0-8.2-3.7-8.2-8.2v-32.7c0-4.5,3.7-8.2,8.2-8.2s8.2,3.7,8.2,8.2v32.7
		C188.6,475.7,185,479.3,180.5,479.3z"/>
	<path class="st6" d="M180.5,414c-4.5,0-8.2-3.7-8.2-8.2V214.5c0-8.1,3.6-23,7.2-30.2c2-4,6.9-5.6,11-3.6s5.6,6.9,3.6,11
		c-2.5,4.9-5.4,17.3-5.4,22.8v191.3C188.6,410.3,185,414,180.5,414z"/>
	<path class="st6" d="M271.4,81.7h-30.8c-4.5,0-8.2-3.7-8.2-8.2s3.7-8.2,8.2-8.2h30.8c4.5,0,8.2,3.7,8.2,8.2S275.9,81.7,271.4,81.7z
		"/>
</g>
</svg>
