<?xml version="1.0" encoding="iso-8859-1"?>
<!-- Generator: Adobe Illustrator 18.0.0, SVG Export Plug-In . SVG Version: 6.00 Build 0)  -->
<!DOCTYPE svg PUBLIC "-//W3C//DTD SVG 1.1//EN" "http://www.w3.org/Graphics/SVG/1.1/DTD/svg11.dtd">
<svg version="1.1" id="Capa_1" xmlns="http://www.w3.org/2000/svg" xmlns:xlink="http://www.w3.org/1999/xlink" x="0px" y="0px"
	 viewBox="0 0 297.5 297.5" style="enable-background:new 0 0 297.5 297.5;" xml:space="preserve">
<g id="XMLID_29_">
	<g>
		<path style="fill:#8E4942;" d="M222.03,187.33c24.18,0,43.86,19.68,43.86,43.86s-19.68,43.85-43.86,43.85
			s-43.85-19.67-43.85-43.85S197.85,187.33,222.03,187.33z"/>
		<path style="fill:#8E4942;" d="M75.47,187.33c24.19,0,43.86,19.68,43.86,43.86s-19.67,43.85-43.86,43.85
			c-24.18,0-43.85-19.67-43.85-43.85S51.29,187.33,75.47,187.33z"/>
		<path style="fill:#7AC1A3;" d="M132.2,47.82c-12.1,11.99-28.56,25.23-37.24,25.65c-0.12,0.01-0.23,0.01-0.35,0.01
			c-9.71,0-33.89-11.61-53.94-22.91c19.26-13.52,42.56-27.65,51.79-28.11c0.08,0,0.17,0,0.26,0
			C101.47,22.46,119.14,35.75,132.2,47.82z"/>
		<path d="M228.67,165.46c33.32,3.34,59.42,31.54,59.42,65.73c0,36.43-29.63,66.06-66.06,66.06s-66.06-29.63-66.06-66.06
			c0-30.28,20.49-55.85,48.32-63.62l-54.11-94.71l-43.02,100.38c20.47,11.23,34.38,32.99,34.38,57.95
			c0,36.43-29.64,66.06-66.07,66.06c-36.42,0-66.06-29.63-66.06-66.06s29.64-66.06,66.06-66.06c3.62,0,7.17,0.3,10.63,0.86
			l34.1-79.56c-8.05,5.1-16.46,8.85-24.15,9.22c-0.47,0.03-0.95,0.04-1.44,0.04c-22.89,0-70.61-28.9-79.95-34.7
			c-3.1-1.92-5.06-5.24-5.23-8.89c-0.18-3.64,1.44-7.14,4.34-9.36c9-6.89,55.07-41.35,77.6-42.46c0.44-0.02,0.89-0.03,1.35-0.03
			c22.51,0,53.03,29.35,61.74,38.22c1.58,0.95,2.95,2.3,3.93,4.01L228.67,165.46z M265.89,231.19c0-24.18-19.68-43.86-43.86-43.86
			s-43.85,19.68-43.85,43.86s19.67,43.85,43.85,43.85S265.89,255.37,265.89,231.19z M94.96,73.47c8.68-0.42,25.14-13.66,37.24-25.65
			c-13.06-12.07-30.73-25.36-39.48-25.36c-0.09,0-0.18,0-0.26,0c-9.23,0.46-32.53,14.59-51.79,28.11
			c20.05,11.3,44.23,22.91,53.94,22.91C94.73,73.48,94.84,73.48,94.96,73.47z M119.33,231.19c0-24.18-19.67-43.86-43.86-43.86
			c-24.18,0-43.85,19.68-43.85,43.86s19.67,43.85,43.85,43.85C99.66,275.04,119.33,255.37,119.33,231.19z"/>
	</g>
	<g>
	</g>
</g>
<g>
</g>
<g>
</g>
<g>
</g>
<g>
</g>
<g>
</g>
<g>
</g>
<g>
</g>
<g>
</g>
<g>
</g>
<g>
</g>
<g>
</g>
<g>
</g>
<g>
</g>
<g>
</g>
<g>
</g>
</svg>
