<svg fill="none" height="133" viewBox="0 0 140 133" width="140" xmlns="http://www.w3.org/2000/svg"><path d="m139.652 38.7485c-.536-8.0008-2.343-14.4991-8.207-21.1927-11.743-13.38108-38.7409-15.60883-50.8159-2.7265-2.1066 1.8952-4.0928 4.177-6.0922 6.9035l-4.5172 6.17-4.5216-6.17c-2.0037-2.7265-3.9965-5.0104-6.1031-6.9035-12.0859-12.88233-39.0797-10.65666-50.81563 2.7265-5.87125 6.6936-7.675933 13.1919-8.214059 21.1927-.765624 23.7862 17.403789 42.8322 19.645889 45.6231 12.331 13.7427 25.7819 26.7374 39.4407 38.7094 2.4718 2.055 4.6069 3.768 6.7419 5.463 1.284.996 2.5506 2.002 3.8259 2.991 1.2731-.992 2.5353-1.997 3.8128-2.991 2.1416-1.695 4.2787-3.408 6.7419-5.463 13.6653-11.972 27.1186-24.9584 39.4406-38.7094 2.244-2.7909 20.414-21.8369 19.644-45.6231" fill="#98f7be"/><g fill="#fff"><path d="m132.125 34.505c-.022-2.0506-.359-4.0871-1-6.0453-.585-1.7878-1.448-3.4828-2.559-5.0291-6.504-9.0793-20.674-12.3503-32.5129-10.0519-4.6156 1.0557-9.2422 2.7058-11.3663 6.8953-.724 1.7975.7985 2.662 3.15 2.5519 8.5182-.904 17.9402-.0894 25.4732 3.3873 1.875.8729 3.634 1.9078 5.239 3.1235 5.406 3.9754 7.738 10.1558 8.794 16.2862 2.627-.5029 4.056-3.4975 4.397-6.1616.308-1.648.472-3.3229.387-4.9563"/><path d="m70.6522 62.6522c0-.173-.0687-.3389-.191-.4612-.1224-.1223-.2882-.191-.4612-.191s-.3389.0687-.4612.191-.191.2882-.191.4612v3.6956h-3.6956c-.173 0-.3389.0687-.4612.191s-.191.2882-.191.4612.0687.3388.191.4612c.1223.1223.2882.191.4612.191h3.6956v3.6956c0 .173.0687.3389.191.4612s.2882.191.4612.191.3388-.0687.4612-.191c.1223-.1223.191-.2882.191-.4612v-3.6956h3.6956c.173 0 .3389-.0687.4612-.191.1223-.1224.191-.2882.191-.4612s-.0687-.3389-.191-.4612-.2882-.191-.4612-.191h-3.6956z"/></g></svg>