<svg enable-background="new 0 0 100 100" viewBox="0 0 100 100" xmlns="http://www.w3.org/2000/svg"><path d="m54.8 87c-1.1-.1-1.9-1-1.9-2.1v-14.7h-5.7v14.7c0 1.1-.8 2-1.9 2.1-2.2.2-4 2.1-4 4.4 0 2.4 2 4.4 4.4 4.4 1.1 0 2.2-.4 3-1.2s2.1-.8 2.9 0c.8.7 1.9 1.2 3 1.2 2.4 0 4.4-2 4.4-4.4-.2-2.3-2-4.2-4.2-4.4z" fill="#fdd44b"/><g fill="#ee8826"><path d="m46.2 4.6c-7.4 1.2-13.7 5.8-17.4 12.2 3.7-6.4 10-11.1 17.4-12.2z"/><path d="m43.3 65.9c-2.5-7-11.2-17.5-12.3-18.9-3.5-4.4-5.5-9.9-5.8-15.6.2 5.7 2.3 11.2 5.8 15.6 1.1 1.4 9.8 11.9 12.3 18.9z"/><path d="m26.3 22.6c.2-.8.5-1.6.8-2.4-.3.8-.6 1.6-.8 2.4z"/><path d="m27.1 20.2c.3-.8.7-1.5 1-2.3-.4.7-.7 1.5-1 2.3z"/><path d="m53.7 4.5c-.5-.1-1-.1-1.6-.2.5.1 1 .2 1.6.2z"/><path d="m57.2 5.3c-.5-.2-1-.3-1.5-.4.5.1 1 .3 1.5.4z"/><path d="m58.8 5.9c-.5-.2-1-.4-1.6-.6.5.2 1.1.4 1.6.6z"/><path d="m67.6 11.9c-1.6-1.7-3.4-3.1-5.3-4.3.5.3 1 .6 1.4.9-1.2-.4-2.4-.7-3.7-.9-1.9-.5-3.7-.6-5.6-.6h-.1c-13.7 0-24.9 11.6-24.9 26 0 6.1 2.1 12 5.8 16.7 1 1.2 7.9 10.9 11.2 17.4h10.2c2.5-6.5 11.3-18.6 12.4-20 3.7-4.7 5.8-10.6 5.8-16.7.1-7.1-2.5-13.6-7.2-18.5zm-10 9.4c-.4.4-.9.6-1.5.6s-1.1-.2-1.5-.6-.6-.9-.6-1.5.2-1.1.6-1.5.9-.6 1.5-.6 1.1.2 1.5.6.6.9.6 1.5c.1.5-.2 1.1-.6 1.5zm1.8-8.4c-.4.4-.9.6-1.5.6s-1.1-.2-1.5-.6-.6-.9-.6-1.5.2-1.1.6-1.5.9-.6 1.5-.6 1.1.2 1.5.6.6.9.6 1.5-.2 1.1-.6 1.5zm6.6 6.6c-.4.4-.9.6-1.5.6s-1.1-.2-1.5-.6-.6-.9-.6-1.5.2-1.1.6-1.5.9-.6 1.5-.6 1.1.2 1.5.6.6.9.6 1.5c0 .5-.3 1.1-.6 1.5z"/><path d="m59 6c1 .4 2 .9 3 1.5-.9-.6-1.9-1.1-3-1.5z"/><path d="m53.7 4.5c.5.1 1.1.2 1.6.3-.5-.1-1.1-.2-1.6-.3z"/><path d="m51.7 4.3c-.5 0-1.1-.1-1.6-.1.5.1 1.1.1 1.6.1z"/></g><g fill="#402e21"><path d="m57.9 9.3c-.6 0-1.1.2-1.5.6s-.6.9-.6 1.5.2 1.1.6 1.5.9.6 1.5.6 1.1-.2 1.5-.6.6-.9.6-1.5-.2-1.1-.6-1.5-.9-.6-1.5-.6z"/><path d="m64.4 15.8c-.6 0-1.1.2-1.5.6s-.6.9-.6 1.5.2 1.1.6 1.5.9.6 1.5.6 1.1-.2 1.5-.6.6-.9.6-1.5-.2-1.1-.6-1.5c-.3-.3-.9-.6-1.5-.6z"/><path d="m56.1 17.6c-.6 0-1.1.2-1.5.6s-.6.9-.6 1.5.2 1.1.6 1.5.9.6 1.5.6 1.1-.2 1.5-.6.6-.9.6-1.5-.2-1.1-.6-1.5-.9-.6-1.5-.6z"/><path d="m70.6 8.9c-5.4-5.7-12.7-8.9-20.5-8.9h-.1c-16 0-29.1 13.6-29.1 30.3 0 7.1 2.4 14 6.8 19.4 3 3.5 10.9 13.7 11.9 18.7.2 1 1.1 1.7 2.1 1.7h1.2v13c-3.5 1.1-5.9 4.4-5.9 8.2 0 4.8 3.9 8.6 8.6 8.6 1.6 0 3.1-.4 4.4-1.2 1.3.8 2.8 1.2 4.4 1.2 4.8 0 8.6-3.9 8.6-8.6 0-3.8-2.4-7.1-5.9-8.2v-13h1.2c1 0 1.9-.7 2.1-1.7 1.1-5 9-15.2 11.9-18.7 4.4-5.4 6.8-12.3 6.8-19.4 0-8.1-3-15.7-8.5-21.4zm-1.5 38.1c-1.1 1.4-9.8 11.8-12.3 18.9h-13.5c-2.5-7-11.2-17.5-12.3-18.9-3.7-4.7-5.8-10.6-5.8-16.7 0-14.4 11.1-26 24.8-26h.1c6.6 0 12.8 2.7 17.5 7.6s7.3 11.5 7.3 18.4c0 6.1-2.1 12.1-5.8 16.7zm-14.7 48.7c-1.1 0-2.2-.4-3-1.2s-2.1-.8-2.9 0c-.8.7-1.9 1.2-3 1.2-2.4 0-4.4-2-4.4-4.4 0-2.2 1.7-4.2 4-4.4 1.1-.1 1.9-1 1.9-2.1v-14.6h5.7v14.7c0 1.1.8 2 1.9 2.1 2.2.2 4 2.1 4 4.4.2 2.4-1.8 4.3-4.2 4.3z"/></g></svg>