<svg enable-background="new 0 0 100 100" viewBox="0 0 100 100" xmlns="http://www.w3.org/2000/svg"><path d="m7.2 69.2c-3 0-5.4-2.7-5.4-6v-.2c0-3.1 2.1-5.6 4.8-6h.6c2.8-.4 4.8-3 4.8-6v-.6c0-3.1-2.1-5.6-4.8-6l-.6-.1c-2.7-.4-4.8-2.9-4.8-6v-.1c0-3.3 2.4-6 5.4-6 .6 0 1.2.1 1.8.3 4.6 1.8 8.8 4.1 12.9 6.4s8.3 4.6 12.9 6.4c9.6-2.7 18.6-4 27-4 13.1 0 22.3 3.3 27.6 6.2 4 2.1 6.6 4.2 7.7 5.3l1.2 1.1-1 1.3c-.7 1-2 2.4-4.1 3.8-2.8 1.8-6.2 3.2-10.3 4 0 0-3.4.7-5.6.7-1.2.1-2.4.1-3.6.1-10.6 0-23.8-2.8-39-8.2-4.6 1.8-8.8 4.3-12.9 6.7s-8.2 4.9-12.8 6.7c-.6.1-1.2.2-1.8.2z" fill="#61abd2"/><path d="m78 43.1c-5-1.2-10.5-1.9-16.3-1.9-3.3 0-6.7.2-10.2.6l-1.9.2-.2-1.9c-.2-1.7 1.1-2.6 1.6-2.9.3-.2.6-.4 1-.6 1.2-.7 2-1.2 2-2 0-1.1-1.5-2.5-5-4.8-1.7-1.1-2.7-2.1-3-3.1l-.2-.7.6-.8c.3-.3.6-.7 1.1-1 .9-.5 2-.8 3.1-.8.5 0 1 .1 1.6.2 15.1 3.6 24.3 8.4 27.2 14.2.6 1.1.9 2.3.9 3.4l.1 2.4z" fill="#f4a126"/><path d="m49 76.5c-.6 0-1.2-.1-1.7-.4-.6-.3-1.1-.6-1.4-1.1-.7-.8-.9-1.8-.7-2.9.2-1 1-2.3 3.5-2.5 1.7-.1 2.9-.9 3.6-2.3s.7-2.9.6-4l-.3-2.5 2.5.5c5.3 1.2 10.3 1.9 14.8 2.1l4 .2-2.8 2.9c-3.8 3.9-10.6 8.8-21.7 9.9-.1.1-.3.1-.4.1z" fill="#f4a126"/><g fill="#010101"><circle cx="86.5" cy="53.4" r="1.8"/><path d="m99.6 52.6c-.3-.4-5.7-6.4-17.5-10.2.1-1.4 0-3.2-1.1-5.3-3.2-6.4-12.8-11.5-28.4-15.2-.6-.2-1.3-.2-2-.2-1.4 0-2.8.4-4 1.1-1.9 1.1-2.4 2.5-2.4 3.5 0 1.8 1.3 3.5 4 5.3 2.6 1.7 3.6 2.6 4 3.1-.3.2-1.6 1-2 1.2-2.2 1.4-2.6 3.2-2.4 4.7-4.2.7-8.5 1.6-12.9 2.8-4.3-1.7-8.2-3.9-12.1-6.1-4.1-2.3-8.4-4.7-13.1-6.5-.8-.3-1.6-.5-2.4-.5-4 0-7.2 3.5-7.2 7.8v.1c0 4 2.7 7.3 6.4 7.8l.5.2c1.8.2 3.2 2 3.2 4.2v.6c0 2.1-1.4 3.9-3.2 4.2l-.6.1c-3.7.4-6.4 3.8-6.4 7.7v.1c0 4.4 3.2 7.9 7.2 7.9.8 0 1.6-.2 2.4-.5 4.7-1.8 9-4.4 13.1-6.8 3.8-2.3 7.7-4.6 12-6.3 5.7 2 11 3.6 16.1 4.9.5 1.5.5 3.2-.1 4.3-.4.8-1.1 1.2-2.2 1.3-3.8.3-4.8 2.6-5.1 3.9-.4 1.6 0 3.1 1 4.4 1.1 1.3 2.8 2.1 4.6 2.1h.6c14.8-1.4 22.4-9.6 24.9-12.8 4.1-.1 7.6-.5 10.5-1.2.1.4.2 1.3-.2 2.2-.7 1.5-2.4 2.7-5.1 3.5-1 .3-1.5 1.3-1.2 2.3.2.8 1 1.3 1.7 1.3.2 0 .4 0 .6-.1 3.7-1.2 6.2-3.1 7.3-5.5.9-2 .6-3.7.4-4.7 8.8-3.1 11.2-8.5 11.4-8.8.2-.7.1-1.4-.3-1.9zm-47.5-13.8c.3-.2.6-.4.9-.6 1.3-.8 2.8-1.7 2.9-3.5 0-1.8-1.5-3.6-5.8-6.3-1.9-1.2-2.2-2-2.3-2.1 0-.1.2-.2.6-.5 1-.6 2.2-.7 3.3-.4 18.1 4.3 24.1 9.6 26 13.3.5 1 .7 1.9.7 2.6-4.7-1.2-10.2-1.9-16.7-1.9-3.4 0-6.8.2-10.4.6 0-.5.2-.8.8-1.2zm-2.9 35.9c-.1 0-.2 0-.2 0-.3 0-.7-.1-1-.2s-.6-.3-.8-.6c-.3-.4-.4-.8-.3-1.3.1-.3.2-.9 1.9-1.1 2.3-.2 4.1-1.3 5.1-3.2.8-1.6 1-3.4.8-5.1 5.4 1.2 10.4 1.9 15.1 2.2-3.2 3.3-9.8 8.2-20.6 9.3zm43-17.3c-2 1.3-5.1 2.8-9.6 3.7-2-.9-3.3-2.1-3.8-3.7-1.1-3.2 1.1-7 1.1-7.1.5-.9.2-2-.6-2.5-.9-.5-2-.2-2.5.6-.1.2-3.1 5.3-1.5 10.1.4 1.2 1.1 2.3 1.9 3.2-1.1.1-2.3.1-3.5.1-10.4 0-23.4-2.7-38.4-8.1-.4-.1-.9-.1-1.3 0-4.7 1.8-9 4.4-13.1 6.8-4 2.4-8.1 4.9-12.6 6.6-.4.1-.7.2-1.1.2-2 0-3.6-1.9-3.6-4.2v-.1c0-2.1 1.4-3.9 3.2-4.2l.6-.1c3.6-.5 6.4-3.8 6.4-7.8v-.6c0-4-2.7-7.3-6.4-7.8l-.6-.1c-1.8-.2-3.2-2-3.2-4.2v-.1c0-2.3 1.6-4.2 3.6-4.2.4 0 .7.1 1.1.2 4.5 1.7 8.6 4 12.6 6.3 4.1 2.3 8.4 4.7 13.1 6.5.4.1.8.2 1.1.1 9.4-2.6 18.3-4 26.5-4 12.7 0 21.6 3.2 26.8 6 3.7 2 6.1 3.9 7.4 5-.5.9-1.7 2.1-3.6 3.4z"/></g></svg>