<?xml version="1.0" encoding="iso-8859-1"?>
<!-- Generator: Adobe Illustrator 19.0.0, SVG Export Plug-In . SVG Version: 6.00 Build 0)  -->
<svg xmlns="http://www.w3.org/2000/svg" xmlns:xlink="http://www.w3.org/1999/xlink" version="1.1" id="Layer_1" x="0px" y="0px" viewBox="0 0 440.001 440.001" style="enable-background:new 0 0 440.001 440.001;" xml:space="preserve" width="512" height="512">
<g>
	<path style="fill:#61ACD2;" d="M31.689,304.481C18.627,304.481,8,292.575,8,277.941v-0.61c0-13.486,9.036-24.808,21.019-26.335   l2.831-0.368c11.994-1.541,21.03-12.863,21.03-26.337v-2.63c0-13.48-9.036-24.806-21.02-26.346l-2.826-0.358   C17.036,193.415,8,182.089,8,168.611v-0.61c0-14.629,10.627-26.53,23.689-26.53c2.627,0,5.239,0.493,7.764,1.464   c20.283,7.813,38.761,18.11,56.631,28.068c17.869,9.959,36.348,20.258,56.623,28.073c42.036-11.742,82.044-17.695,118.913-17.695   c57.735,0,98,14.739,121.61,27.103c17.506,9.174,28.853,18.556,34.058,23.332l5.299,4.862l-4.271,5.785   c-3.104,4.205-8.748,10.511-18,16.676c-12.129,8.091-27.386,13.949-45.342,17.408c0,0-15.14,2.955-24.52,3.078   c-5.109,0.488-10.492,0.507-15.964,0.507c-46.833,0-104.629-12.154-171.779-36.126c-20.304,7.813-38.771,18.841-56.629,29.505   l-0.177,0.105c-17.825,10.63-36.259,21.622-56.452,29.393C36.914,303.985,34.302,304.481,31.689,304.481z"/>
	<path style="fill:#F4A026;" d="M343.159,189.664c-22.104-5.497-46.173-8.284-71.539-8.284c-14.317,0-29.4,0.927-44.829,2.754   l-8.18,0.969l-0.73-8.205c-0.673-7.57,4.95-11.275,7.067-12.669c1.408-0.928,2.817-1.774,4.257-2.632   c5.247-3.131,8.694-5.434,8.756-8.767c0.086-4.624-6.656-11.089-21.858-20.961c-7.414-4.81-11.903-9.326-13.341-13.421   l-1.396-3.978l2.492-3.4c1.112-1.519,2.787-2.93,4.977-4.196c4.037-2.346,8.787-3.589,13.723-3.589c2.29,0,4.586,0.27,6.824,0.802   c66.481,15.693,106.756,36.746,119.69,62.57c2.475,4.949,3.823,9.973,4.012,14.939l0.404,10.636L343.159,189.664z"/>
	<path style="fill:#F4A026;" d="M215.61,336.72c-2.616,0-5.239-0.559-7.585-1.615c-2.461-1.108-4.625-2.769-6.26-4.801   c-2.904-3.621-3.936-8.113-2.909-12.656c0.949-4.386,4.407-9.901,15.403-10.867c7.271-0.636,12.794-4.121,15.972-10.077   c3.274-6.14,3.275-12.977,2.699-17.631l-1.386-11.195l11.023,2.395c23.313,5.064,45.208,8.21,65.08,9.351l17.472,1.003   l-12.19,12.557c-16.676,17.176-46.769,38.653-95.426,43.445C216.733,336.711,216.057,336.72,215.61,336.72z"/>
	<g>
		<circle cx="380.672" cy="234.963" r="8"/>
		<path d="M438.05,231.261c-1.4-1.62-25.12-28.33-77.13-44.89c0.58-5.97-0.08-14.07-4.7-23.29c-14.05-28.05-56.11-50.51-125-66.78    c-2.86-0.68-5.79-1.02-8.7-1.02c-6.31,0-12.44,1.62-17.72,4.69c-8.52,4.95-10.43,11.07-10.54,15.33    c-0.19,7.9,5.53,15.51,17.48,23.28c11.65,7.56,15.91,11.65,17.47,13.57c-1.17,0.82-7.07,4.36-8.64,5.39    c-9.72,6.38-11.34,14.29-10.51,20.82c-18.48,2.87-37.48,6.96-56.92,12.29c-18.79-7.48-36.26-17.21-53.17-26.64    c-18.12-10.09-36.86-20.54-57.64-28.54c-3.45-1.33-7.03-2-10.64-2c-17.47,0-31.69,15.49-31.69,34.53v0.61    c0,17.5,12.04,32.23,28,34.28l2.84,0.36c8,1.03,14.04,8.94,14.04,18.41v2.63c0,9.46-6.04,17.37-14.04,18.4l-2.84,0.37    c-15.96,2.05-28,16.78-28,34.27v0.61c0,19.05,14.22,34.54,31.69,34.54c3.61,0,7.19-0.68,10.64-2    c20.89-8.05,39.68-19.26,57.85-30.11c16.78-10.01,34.09-20.34,52.68-27.83c24.89,8.8,48.53,15.98,70.82,21.53    c2.16,6.44,2.06,14.06-0.51,18.87c-1.92,3.6-4.97,5.47-9.61,5.87c-16.57,1.45-21.22,11.33-22.52,17.1    c-1.55,6.96,0.04,13.85,4.48,19.38c4.73,5.91,12.24,9.43,20.09,9.43c0.87,0,1.76-0.04,2.63-0.13    c64.93-6.38,98.55-42.04,109.65-56.49c18.01-0.22,33.25-2.21,46.1-5.28c0.45,1.95,0.86,5.65-0.93,9.67    c-2.88,6.43-10.64,11.82-22.45,15.58c-4.21,1.35-6.53,5.85-5.19,10.06c1.08,3.4,4.23,5.57,7.62,5.57c0.8,0,1.62-0.12,2.43-0.38    c16.5-5.26,27.33-13.43,32.19-24.29c3.84-8.59,2.83-16.39,1.68-20.71c38.78-13.76,49.41-37.27,50.01-38.67    C440.56,236.841,440.06,233.581,438.05,231.261z M229.35,170.911c1.29-0.85,2.64-1.66,3.95-2.44c5.58-3.33,12.51-7.48,12.66-15.49    c0.15-8.11-6.76-15.65-25.5-27.82c-8.34-5.41-9.89-8.62-10.15-9.36c0.22-0.3,0.87-1.04,2.53-2c4.2-2.44,9.56-3.15,14.69-1.93    c79.81,18.84,106.26,42.14,114.39,58.37c2.27,4.54,3.05,8.5,3.17,11.66c-20.67-5.14-45.06-8.52-73.47-8.52    c-14.79,0-30.07,0.95-45.77,2.81C225.65,173.951,226.77,172.611,229.35,170.911z M216.68,328.671c-0.36,0.04-0.72,0.05-1.07,0.05    c-1.52,0-2.99-0.32-4.3-0.91c-1.31-0.59-2.45-1.45-3.31-2.52c-1.38-1.72-1.83-3.71-1.34-5.88c0.26-1.2,0.9-4.01,8.3-4.66    c9.95-0.87,17.88-5.94,22.33-14.28c3.69-6.92,4.5-14.95,3.58-22.38c23.8,5.17,45.94,8.35,66.32,9.52    C292.83,302.401,264.21,324.001,216.68,328.671z M405.88,252.481c-8.71,5.81-22.28,12.33-42.42,16.21    c-8.87-3.94-14.55-9.43-16.88-16.35c-4.81-14.24,4.93-30.99,5.05-31.19c2.26-3.79,1.03-8.69-2.76-10.95    c-3.79-2.28-8.7-1.04-10.97,2.74c-0.56,0.94-13.63,23.12-6.52,44.4c1.79,5.37,4.65,10.14,8.55,14.3    c-4.87,0.32-10.01,0.49-15.44,0.49c-45.92,0-102.81-12-169.09-35.66c-1.8-0.65-3.78-0.62-5.57,0.06    c-20.89,8.05-39.68,19.26-57.85,30.11c-17.59,10.49-35.78,21.35-55.4,28.9c-1.61,0.62-3.25,0.94-4.89,0.94    c-8.65,0-15.69-8.32-15.69-18.54v-0.61c0-9.46,6.03-17.38,14.03-18.4l2.85-0.37c15.96-2.05,28-16.78,28-34.27v-2.63    c0-17.49-12.04-32.23-28-34.28l-2.84-0.36c-8.01-1.03-14.04-8.94-14.04-18.41v-0.61c0-10.22,7.04-18.53,15.69-18.53    c1.64,0,3.28,0.31,4.89,0.93c19.73,7.6,37.97,17.76,55.61,27.59c18.12,10.1,36.86,20.54,57.64,28.55c1.61,0.62,3.38,0.7,5.03,0.24    c41.35-11.55,80.64-17.4,116.76-17.4c56.1,0,95.08,14.24,117.9,26.19c16.39,8.59,27.03,17.25,32.36,22.14    C419.14,241.421,414.15,246.971,405.88,252.481z"/>
	</g>
</g>















</svg>
