<?xml version="1.0" encoding="iso-8859-1"?>
<!-- Generator: Adobe Illustrator 19.0.0, SVG Export Plug-In . SVG Version: 6.00 Build 0)  -->
<svg version="1.1" id="Layer_1" xmlns="http://www.w3.org/2000/svg" xmlns:xlink="http://www.w3.org/1999/xlink" x="0px" y="0px"
	 viewBox="0 0 512 512" style="enable-background:new 0 0 512 512;" xml:space="preserve">
<circle style="fill:#EDEDEE;" cx="256" cy="256" r="256"/>
<g>
	<path style="fill:#DDDCDF;" d="M512,256c0,141.384-114.616,256-256,256V0C397.384,0,512,114.616,512,256z"/>
	<circle style="fill:#DDDCDF;" cx="256" cy="256" r="144.607"/>
</g>
<path style="fill:#CCCCCF;" d="M400.61,256c0,79.866-64.745,144.61-144.61,144.61V111.39C335.866,111.39,400.61,176.134,400.61,256z
	"/>
<path style="fill:#F5DC49;" d="M373.121,142.939c-39.161-39.161-85.69-66.464-135.123-81.917l-99.12,316.159l316.159-99.119
	C439.585,228.629,412.284,182.102,373.121,142.939z"/>
<path style="fill:#ECAE44;" d="M373.121,142.939c-34.187,34.187-234.242,234.242-234.242,234.242l316.159-99.119
	C439.585,228.629,412.284,182.102,373.121,142.939z"/>
<path style="fill:#E3744E;" d="M264.517,206.323c0-21.919-17.769-39.687-39.688-39.688c-8.154,0-15.732,2.462-22.037,6.679
	l-14.899,47.524c5.797,14.736,20.143,25.171,36.936,25.171C246.748,246.01,264.517,228.242,264.517,206.323z"/>
<path style="fill:#E05323;" d="M261.668,289.197c-21.918,0-39.687,17.769-39.688,39.688c0,7.48,2.072,14.474,5.669,20.445
	l73.609-23.078C299.902,305.562,282.701,289.197,261.668,289.197z"/>
<path style="fill:#ECAE44;" d="M373.121,142.939c-39.161-39.161-85.69-66.464-135.123-81.917l-16.04,51.164
	c41.376,13.069,80.312,35.998,113.115,68.801c32.804,32.804,55.731,71.739,68.801,113.115l51.164-16.04
	C439.585,228.629,412.284,182.102,373.121,142.939z"/>
<path style="fill:#E89918;" d="M373.121,142.939l-38.048,38.048c32.804,32.804,55.731,71.739,68.801,113.115l51.164-16.04
	C439.585,228.629,412.284,182.102,373.121,142.939z"/>
<g>
</g>
<g>
</g>
<g>
</g>
<g>
</g>
<g>
</g>
<g>
</g>
<g>
</g>
<g>
</g>
<g>
</g>
<g>
</g>
<g>
</g>
<g>
</g>
<g>
</g>
<g>
</g>
<g>
</g>
</svg>
