<?xml version="1.0" encoding="iso-8859-1"?>
<!-- Generator: Adobe Illustrator 19.0.0, SVG Export Plug-In . SVG Version: 6.00 Build 0)  -->
<svg version="1.1" id="Layer_1" xmlns="http://www.w3.org/2000/svg" xmlns:xlink="http://www.w3.org/1999/xlink" x="0px" y="0px"
	 viewBox="0 0 512 512" style="enable-background:new 0 0 512 512;" xml:space="preserve">
<path style="fill:#FFCE76;" d="M256.002,512c-374.35,0-171.976-512,0-512C427.974,0,630.346,512,256.002,512L256.002,512z"/>
<path style="fill:#FFBB5E;" d="M364.967,492.491C335.935,504.943,299.943,512,256.002,512c-298.345,0-230.38-325.198-103.43-457.252
	c-1.015,12.734-1.54,25.607-1.54,38.601C151.033,259.907,236.009,406.61,364.967,492.491z"/>
<path style="fill:#FFFFFF;" d="M376.834,241.556c-0.939,0.244-1.882,0.361-2.809,0.361c-4.946,0-9.461-3.321-10.764-8.331
	c-9.755-37.495-26.975-74.372-47.246-101.178c-20.224-26.742-41.537-41.471-60.011-41.471c-6.147,0-11.13-4.983-11.13-11.13
	c0-6.147,4.983-11.13,11.13-11.13c25.987,0,52.878,17.395,77.767,50.304c22.293,29.478,40.418,68.189,51.035,109.001
	C386.351,233.931,382.784,240.009,376.834,241.556z"/>
<g>
</g>
<g>
</g>
<g>
</g>
<g>
</g>
<g>
</g>
<g>
</g>
<g>
</g>
<g>
</g>
<g>
</g>
<g>
</g>
<g>
</g>
<g>
</g>
<g>
</g>
<g>
</g>
<g>
</g>
</svg>
