<?xml version="1.0" encoding="iso-8859-1"?>
<!-- Generator: Adobe Illustrator 19.0.0, SVG Export Plug-In . SVG Version: 6.00 Build 0)  -->
<svg version="1.1" id="Layer_1" xmlns="http://www.w3.org/2000/svg" xmlns:xlink="http://www.w3.org/1999/xlink" x="0px" y="0px"
	 viewBox="0 0 512 512" style="enable-background:new 0 0 512 512;" xml:space="preserve">
<circle style="fill:#31BAFD;" cx="256" cy="256" r="256"/>
<path style="fill:#2B9ED8;" d="M511.679,268.845l-93.155-93.155l-142.851,44.547l-37.04-37.04l-78.97,74.971l88.743,90.264
	l-133.392,42.825l119.87,119.87C241.848,511.697,248.889,512,256,512C393.078,512,504.987,404.261,511.679,268.845z"/>
<rect x="165.84" y="410.979" style="fill:#F9B54C;" width="100.28" height="25.071"/>
<rect x="214.626" y="410.979" style="fill:#F4A200;" width="51.497" height="25.071"/>
<path style="fill:#FFD15D;" d="M252.575,418.949H179.39c-49.019,0-88.759-39.738-88.759-88.759v-35.833h250.702v35.833
	C341.333,379.209,301.596,418.949,252.575,418.949z"/>
<path style="fill:#F9B54C;" d="M214.626,294.357v124.592h37.948c49.019,0,88.759-39.74,88.759-88.759v-35.833H214.626z"/>
<path style="fill:#FFFFFF;" d="M155.974,212.485c0,0,21.844-30.498,44.699-42.441c17.808-9.304,48.138,11.817,59.644,53.865
	C269.526,257.565,182.768,289.897,155.974,212.485z"/>
<path style="fill:#E6F3FF;" d="M260.317,223.909c-8.144-29.765-25.721-49.026-41.612-54.448l-18.253,88.885
	C232.446,266.659,266.24,245.562,260.317,223.909z"/>
<path style="fill:#C7F2F2;" d="M418.525,175.69c0,0-98.794-4.675-158.208,48.219s-104.343-11.424-104.343-11.424l-2.755,5.168
	c-9.925,18.627-0.655,41.622,19.358,48.323c24.024,8.044,58.275,10.368,95.775-15.7c0,0,61.437-66.317,141.007-57.385
	L418.525,175.69z"/>
<path style="fill:#B5F1F4;" d="M260.317,223.909c-21.301,18.963-40.738,22.859-56.911,20.056l-5.582,27.179
	c20.454,1.564,44.722-2.929,70.53-20.868c0,0,61.437-66.317,141.007-57.385l9.166-17.203
	C418.525,175.69,319.731,171.015,260.317,223.909z"/>
<g>
</g>
<g>
</g>
<g>
</g>
<g>
</g>
<g>
</g>
<g>
</g>
<g>
</g>
<g>
</g>
<g>
</g>
<g>
</g>
<g>
</g>
<g>
</g>
<g>
</g>
<g>
</g>
<g>
</g>
</svg>
