<svg fill="none" height="24" viewBox="0 0 24 24" width="24" xmlns="http://www.w3.org/2000/svg"><path d="m12 0c6.6 0 12 5.4 12 12s-5.4 12-12 12-12-5.4-12-12 5.4-12 12-12z" fill="#ff961b"/><path d="m11.9999 18.5999c2.5 0 4.6-2.1 4.6-4.6 0-4.2-4-8.2-4.2-8.4-.1-.1-.3-.2-.4-.2s-.3.1-.4.2c-.2.2-4.2 4.2-4.2 8.4 0 2.5 2.1 4.6 4.6 4.6z" fill="#fff"/><path d="m10.2 13.2c-.1-.1-.1-.3 0-.5.1-.1.3-.1.5 0l1 1v-2.4c0-.2.1-.3.3-.3s.3.1.3.3v2.4l1-1c.1-.1.3-.1.5 0 .1.1.1.3 0 .5l-1.6 1.5c-.1.1-.1.1-.2.1s-.2 0-.3-.1z" fill="#ff961b"/></svg>