<?xml version="1.0" encoding="iso-8859-1"?>
<!-- Generator: Adobe Illustrator 19.0.0, SVG Export Plug-In . SVG Version: 6.00 Build 0)  -->
<svg version="1.1" id="Layer_1" xmlns="http://www.w3.org/2000/svg" xmlns:xlink="http://www.w3.org/1999/xlink" x="0px" y="0px"
	 viewBox="0 0 512 512" style="enable-background:new 0 0 512 512;" xml:space="preserve">
<circle style="fill:#FFEC97;" cx="256" cy="255.996" r="255.996"/>
<path style="fill:#FFDB2D;" d="M217.588,509.13c12.531,1.886,25.358,2.87,38.416,2.87c136.349,0,247.785-106.6,255.551-241.003
	L346.586,106.027h-2.335l-65.832-65.927h-44.831c-6.177,5.526-10.031,13.538-10.031,23.116c0,11.433,5.489,22.418,13.872,29.198
	c1.105,1.357,2.3,2.627,3.572,3.798v9.815h-75.58l0,0l-16.8,35.625v279.992l16.8,35.625L217.588,509.13z"/>
<polygon style="fill:#00CDB3;" points="346.586,106.027 165.421,106.027 148.622,141.653 148.622,421.645 165.421,457.27 
	346.586,457.27 363.385,421.645 363.385,141.653 "/>
<polygon style="fill:#00B5A3;" points="346.585,106.027 256,106.027 256,457.27 346.585,457.27 363.385,421.645 363.385,141.653 "/>
<polygon style="fill:#394CE2;" points="165.421,457.27 346.586,457.27 363.385,421.645 148.622,421.645 "/>
<polygon style="fill:#1B2DDD;" points="256,457.27 346.586,457.27 363.385,421.645 256,421.645 "/>
<circle style="fill:#FFFFFF;" cx="256" cy="281.648" r="82.295"/>
<path style="fill:#E1E1E3;" d="M256.003,199.358c-0.001,0-0.002,0-0.003,0V363.94c0.001,0,0.002,0,0.003,0
	c45.448,0,82.291-36.843,82.291-82.291C338.294,236.201,301.451,199.358,256.003,199.358z"/>
<circle style="fill:#394CE2;" cx="256" cy="281.648" r="60.739"/>
<path style="fill:#1B2DDD;" d="M256.003,342.391c33.547,0,60.742-27.195,60.742-60.743s-27.195-60.742-60.742-60.742
	c-0.001,0-0.002,0-0.003,0v121.485C256.001,342.391,256.002,342.391,256.003,342.391z"/>
<path style="fill:#394CE2;" d="M346.586,106.027h-75.58V94.944c10.365-6.323,17.444-18.739,17.444-31.728
	c0-9.578-3.855-17.59-10.031-23.116h-44.83c-6.177,5.526-10.031,13.538-10.031,23.116c0,12.988,7.079,25.405,17.444,31.728v11.083
	h-75.581l-16.8,35.625h214.763L346.586,106.027z M235.009,65.503c0-6.197,2.494-11.381,6.491-14.958h29.008
	c3.997,3.576,6.491,8.759,6.491,14.958c0,12.043-9.4,23.337-20.995,23.337C244.408,88.839,235.009,77.545,235.009,65.503z"/>
<path style="fill:#1B2DDD;" d="M270.507,50.545c3.997,3.576,6.491,8.759,6.491,14.958c0,12.043-9.4,23.337-20.995,23.337
	c-0.001,0-0.002,0-0.003,0v52.814h107.385l-16.8-35.625h-75.58V94.944c10.365-6.323,17.444-18.739,17.444-31.728
	c0-9.578-3.855-17.59-10.031-23.116H256v10.445H270.507z"/>
<g>
</g>
<g>
</g>
<g>
</g>
<g>
</g>
<g>
</g>
<g>
</g>
<g>
</g>
<g>
</g>
<g>
</g>
<g>
</g>
<g>
</g>
<g>
</g>
<g>
</g>
<g>
</g>
<g>
</g>
</svg>
