<svg enable-background="new 0 0 100 100" viewBox="0 0 100 100" xmlns="http://www.w3.org/2000/svg"><path d="m0 0h100v100h-100z" fill="#fff" fill-opacity=".01"/><g stroke-width="4"><path clip-rule="evenodd" d="m50 89.6h12.4c.2-5.7 1-8.8 2.5-9.4 15.6-5.9 26.8-20.9 26.8-38.5h-83.4c0 17.2 10.6 31.9 25.7 38.1 1.6.6 2.8 3.9 3.5 9.8z" fill="#4f7fc0" fill-rule="evenodd" stroke="#010101" stroke-linejoin="round"/><g fill="none" stroke-linecap="round"><path d="m30.1 56.3c.7 2.5 1.7 4.5 3 6.1 1.2 1.6 2.7 3 4.5 4.4" stroke="#fff"/><path d="m52.5 41.7c7.9-16.1 12.5-25.6 13.8-28.5 2.2-4.6 6.6-5.7 10.7-4s5.8 6.8 4 10.2c-1 2.2-4.6 9.6-10.7 22.3" stroke="#010101"/></g></g></svg>