<svg width="24" height="32" viewBox="0 0 24 32" fill="none" xmlns="http://www.w3.org/2000/svg">
<path d="M19.9327 13.1747C14.4339 7.0151 16.4728 0 16.4728 0C8.09542 2.51949 3.09158 8.89595 3.97341 17.0551C3.97341 17.0551 2.54219 16.434 0.283604 15.12C-1.48447 27.7798 5.27573 31.9985 13.2943 31.9985C21.3111 31.9985 28.9342 23.2563 19.9327 13.1747Z" fill="#4E4E4E" fill-opacity="0.25"/>
<path d="M1.9741 17.0553C1.93744 16.7066 1.9111 16.3609 1.89357 16.0196C1.42331 15.7676 0.882827 15.4688 0.283657 15.1201C0.235281 15.4732 0.192813 15.8189 0.15625 16.1587C1.30321 16.7637 1.9741 17.0553 1.9741 17.0553Z" fill="#636363" fill-opacity="0.25"/>
<path d="M19.9328 13.1747C14.4341 7.0151 16.473 0 16.473 0C15.723 0.225568 15.001 0.48198 14.3067 0.767642C13.9609 2.75247 13.5244 8.23828 17.9319 13.1748C26.6228 22.9078 19.8186 31.3921 12.124 31.9694C12.5108 31.9899 12.9004 31.9987 13.2944 31.9987C21.3113 31.9985 28.9344 23.2563 19.9328 13.1747Z" fill="#636363" fill-opacity="0.25"/>
</svg>
