<svg enable-background="new 0 0 100 100" viewBox="0 0 100 100" xmlns="http://www.w3.org/2000/svg"><path d="m58.9 34.3c0 .6-.3 7.3-.9 15.6h-6.4c-1 0-1.9.1-1.9 1.2 0 1 .8 1.8 1.9 1.8h6c-.5 5.3-1.1 10.5-1.9 16.5h-4.1c-1 0-1.9 1-1.9 2s.8 1.3 1.9 1.3l3.7.1c-1.1 6.6-2.4 14.1-4.6 18.9-2.3-7.4-4.2-19.7-5.3-28.9h-1.9 4.9c1 0 1.9-.6 1.9-1.6s-.8-1.6-1.9-1.6h-3.4c-.5-5.3-1.1-14.5-1.3-18.1h4.7c1 0 1.9.7 1.9-.6s-.8-1.9-1.9-1.9h-4.9c-.1-1.3-.1-1.9-.1-2.1 0-1.4 1.5-3 4-4 .1 0 1.9-.8 4.9-.8 2.5 0 4.8.8 4.9.9-.1.1 1.1.5 1.7 1.3z" fill="#ee8826"/><path d="m50.7 91.9c-.1.3-.2.6-.3.9.1-.3.2-.6.3-.9z" fill="#ee8826"/><path d="m50 5c.3 0 .6.3.6.6v-1.2c0-.3-.3-.6-.6-.6s-.6.3-.6.6v1.2c0-.3.3-.6.6-.6z" fill="#fff"/><path d="m59.6 12.8c-.1-.1-.3-.3-.7.2-2.2 2.2-3.3 5.3-4.6 8.2-.4.8-1.2 1.3-2.1 1.2-.9-.2-1.6-.9-1.6-1.9v-1.2-14.9c0-.3-.3-.6-.6-.6s-.6.3-.6.6v14.8 1.2c0 .9-.6 1.7-1.5 1.9s-1.8-.3-2.1-1.2c-1.2-3-2.7-5.7-4.6-8.2-.1-.2-.5-.5-.7-.2v.1c2.9 3.9 4.8 8.4 5.8 13.4 1.2-.3 2.5-.4 3.9-.4s2.7.1 3.9.4c.7-4.9 2.7-9.5 5.5-13.4 0 0 0 .1 0 0z" fill="#85bd94"/><path d="m62.3 9c-.8-.9-2-1.3-3.2-1.3-1.3.1-2.4.7-3.2 1.7-.5.7-1 1.4-1.5 2.1v-7.1c0-2.4-2-4.4-4.4-4.4s-4.4 2-4.4 4.4v7.1c-.5-.7-1-1.4-1.5-2.1-.8-1.1-2-1.7-3.2-1.7-1.2-.1-2.4.4-3.2 1.3-1.6 1.7-1.8 4.2-.4 6.1 2.6 3.5 4.4 7.8 5.2 12.4-3.2 1.5-5.2 4-5.2 6.9v.1c.1 2 1.8 48.4 11 64.6.3.6 1 1 1.6 1 .7 0 1.3-.4 1.6-1 9.2-16.2 11-62.7 11-64.6 0 0 0 0 0-.1 0-2.9-2-5.4-5.2-6.9.8-4.6 2.6-8.8 5.2-12.4 1.6-1.9 1.4-4.5-.2-6.1zm-4.3 40.2h-6.4c-1 0-1.9.8-1.9 1.9 0 1 .8 1.9 1.9 1.9h6c-.5 5.2-1.1 10.9-1.9 16.6h-4.1c-1 0-1.9.8-1.9 1.9s.8 1.9 1.9 1.9h3.5c-1.3 7.7-2.9 15.1-5.1 20.4-3.1-7.7-5.2-19.5-6.6-30.6h4.9c1 0 1.9-.8 1.9-1.9 0-1-.8-1.9-1.9-1.9h-5.3c-.7-6.3-1.2-12.1-1.4-16.6h6.8c1 0 1.9-.8 1.9-1.9s-.9-1.9-1.9-1.9h-7c-.2-2.7-.2-4.4-.2-4.7 0-1.4 1.5-3 4-3.9.1 0 1.9-.8 4.9-.8 2.5 0 4.8.8 4.9.8 2.5.9 4 2.5 4 3.9-.1.6-.4 6.6-1 14.9zm-17.6-37.6c.3-.3.6 0 .7.2 1.9 2.4 3.4 5.2 4.6 8.2.3.8 1.2 1.3 2.1 1.2.9-.2 1.5-.9 1.5-1.9v-14.9c0-.3.3-.6.6-.6s.6.3.6.6v14.8c0 .9.6 1.7 1.5 1.9s1.7-.3 2.1-1.2c1.3-2.8 2.4-6 4.6-8.2.5-.5.6-.2.7-.2.3.3.4.9.1 1.2-2.9 3.9-4.8 8.4-5.8 13.4-1.2-.3-2.5-.4-3.9-.4s-2.7.1-3.9.4c-.9-4.9-2.9-9.5-5.8-13.4 0-.3 0-.8.3-1.1z" fill="#402e21"/></svg>