<?xml version="1.0" encoding="utf-8"?>
<!-- Generator: Adobe Illustrator 24.1.2, SVG Export Plug-In . SVG Version: 6.00 Build 0)  -->
<svg version="1.1" id="Capa_1" xmlns="http://www.w3.org/2000/svg" xmlns:xlink="http://www.w3.org/1999/xlink" x="0px" y="0px"
	 viewBox="0 0 398.9 398.9" style="enable-background:new 0 0 398.9 398.9;" xml:space="preserve">
<style type="text/css">
	.st0{fill:#EF8829;}
	.st1{fill:#FFFFFF;}
	.st2{fill:#84BD93;}
	.st3{fill:#3F2D20;}
	.st4{fill:#98D9D5;}
	.st5{fill:#C1E8E6;}
	.st6{fill:#FFCC75;}
	.st7{fill:#F2EBD9;}
	.st8{fill:#082947;}
</style>
<g>
	<g>
		<path class="st0" d="M126.3,136.9c-0.1,2.2-1,29.1-3.8,62.1H97.2c-4.2,0-7.5,0.5-7.5,4.7c0,4.2,3.4,7.3,7.5,7.3h24.1
			c-1.9,21-4.4,42-7.7,66H97.3c-4.2,0-7.5,3.9-7.5,8.1s3.4,5.3,7.5,5.3l14.8,0.5c-4.5,26.3-9.8,56.3-18.4,75.6
			c-9-29.5-16.7-78.5-21.2-115.5h-7.8h19.7c4.2,0,7.5-2.3,7.5-6.5s-3.4-6.5-7.5-6.5H70.9c-2.1-21-4.2-58-5.2-72h18.7
			c4.2,0,7.5,2.9,7.5-2.4s-3.4-7.6-7.5-7.6H64.8c-0.2-5-0.3-7.8-0.4-8.5c0.1-5.8,6.2-12.1,16.1-15.8c0.3-0.1,7.4-3.2,19.4-3.2
			c10,0,19.2,3.3,19.4,3.4C119.3,131.8,123.8,133.7,126.3,136.9z"/>
		<path class="st0" d="M93.6,366.7c-0.4,1.2-0.9,2.4-1.3,3.6C92.7,369.1,93.2,367.9,93.6,366.7z"/>
	</g>
	<g>
		<path class="st1" d="M90.8,19.9c1.4,0,2.5,1.1,2.5,2.5v-4.9c0-1.4-1.1-2.5-2.5-2.5c-1.4,0-2.5,1.1-2.5,2.5v4.9
			C88.4,21,89.5,19.9,90.8,19.9z"/>
		<path class="st2" d="M129,51.1c-0.3-0.3-1.1-1.2-2.9,0.6c-8.7,8.7-13.2,21.3-18.3,32.6c-1.5,3.3-4.9,5.3-8.5,4.7
			c-3.6-0.7-6.2-3.8-6.2-7.4v-4.9V17.5c0-1.4-1.1-2.5-2.5-2.5c-1.4,0-2.5,1.1-2.5,2.5v59.2v4.9c0,3.6-2.4,6.7-6,7.4
			c-3.6,0.7-7-1.3-8.3-4.7C69.1,72.3,63,61.4,55.5,51.7c-0.5-0.7-1.8-1.8-2.9-0.6c-0.1,0.1-0.1,0.2-0.2,0.3c0-0.1-0.1-0.1-0.1-0.2
			c11.4,15.4,19.2,33.7,23,53.4c4.9-1,10.1-1.6,15.5-1.6c5.4,0,10.6,0.6,15.5,1.6c3.7-19.7,11.6-38,23-53.4c0,0.1-0.1,0.1-0.1,0.2
			C129.1,51.3,129.1,51.2,129,51.1z"/>
	</g>
	<path class="st3" d="M139.8,35.7c-3.4-3.5-8-5.3-12.8-5.1c-5,0.3-9.5,2.7-12.8,6.9c-2.1,2.7-4,5.4-5.9,8.2V17.5
		c0-9.6-7.9-17.5-17.5-17.5c-9.6,0-17.5,7.9-17.5,17.5v28.3c-1.9-2.8-3.8-5.6-5.9-8.2c-3.2-4.2-7.8-6.7-12.8-6.9
		c-4.8-0.3-9.4,1.6-12.8,5.1c-6.4,6.6-7.1,16.9-1.6,24.4c10.4,14.1,17.5,31,20.7,49.3c-12.6,6.1-20.6,16.1-20.6,27.6
		c0,0.1,0,0.2,0,0.3c0.3,7.9,7.3,193.2,44,257.8c1.3,2.4,3.8,3.8,6.5,3.8c2.7,0,5.2-1.5,6.5-3.8c36.7-64.6,43.7-250,44-257.8
		c0-0.1,0-0.2,0-0.3c0-11.5-8.1-21.4-20.6-27.6c3.1-18.3,10.2-35.2,20.7-49.3C146.9,52.6,146.2,42.4,139.8,35.7z M122.6,196.2H97.2
		c-4.2,0-7.5,3.4-7.5,7.5c0,4.2,3.4,7.5,7.5,7.5h24.1c-1.9,20.6-4.4,43.5-7.7,66.2H97.3c-4.2,0-7.5,3.4-7.5,7.5s3.4,7.5,7.5,7.5
		h13.9c-5.1,30.9-11.7,60.2-20.4,81.5c-12.5-30.5-20.7-77.8-26.1-122.1h19.7c4.2,0,7.5-3.4,7.5-7.5c0-4.2-3.4-7.5-7.5-7.5H63
		c-2.7-25-4.6-48.3-5.8-66.2h27.2c4.2,0,7.5-3.4,7.5-7.5c0-4.2-3.4-7.5-7.5-7.5H56.3c-0.6-10.8-0.9-17.6-0.9-18.8
		c0.1-5.8,6.2-11.9,16.1-15.6c0.3-0.1,7.4-3.3,19.4-3.3c10,0,19.2,3.2,19.4,3.3c9.9,3.6,16,9.8,16.1,15.6
		C126.3,139.1,125.3,163.2,122.6,196.2z M52.7,46.2c1.1-1.2,2.3-0.1,2.9,0.6c7.5,9.7,13.6,20.6,18.3,32.6c1.3,3.4,4.8,5.3,8.4,4.7
		c3.6-0.7,6.1-3.8,6.1-7.4V17.5c0-1.4,1.1-2.5,2.5-2.5c1.4,0,2.5,1.1,2.5,2.5v59.2c0,3.6,2.6,6.7,6.1,7.4c3.5,0.7,6.9-1.4,8.4-4.7
		c5.1-11.3,9.6-23.9,18.3-32.6c1.8-1.8,2.5-1,2.9-0.6c1.3,1.4,1.4,3.5,0.3,5c-11.4,15.4-19.3,33.7-23,53.4c-4.9-1-10.1-1.6-15.5-1.6
		c-5.4,0-10.6,0.6-15.5,1.6c-3.7-19.7-11.6-38-23-53.4C51.2,49.7,51.4,47.6,52.7,46.2z"/>
</g>
<g>
	<path class="st1" d="M229.2,338.4c11.1,0,20.2-9,20.2-20.2c0-4.4-1.4-8.5-4-12l-16.2-21.7L213,306.2c-2.6,3.5-4,7.7-4,12
		C209.1,329.4,218.1,338.4,229.2,338.4z"/>
	<path class="st4" d="M292.5,363.4c0-2.2,1.8-3.9,3.9-3.9H363v-98.5h-66.5c-2.2,0-3.9-1.8-3.9-3.9h-7.9v106.4
		C284.7,363.4,292.5,363.4,292.5,363.4z"/>
	<path class="st5" d="M181.7,359.5h95.1v-98.5h-95.1V359.5z M226.1,275.6c0.7-1,1.9-1.6,3.2-1.6s2.4,0.6,3.2,1.6l19.3,25.9
		c3.6,4.9,5.5,10.7,5.5,16.7c0,15.5-12.6,28-28,28s-28-12.6-28-28c0-6.1,1.9-11.9,5.5-16.7L226.1,275.6z"/>
	<path class="st6" d="M363,367.3h-66.5c-2.2,0-3.9-1.8-3.9-3.9h-7.9V391H363V367.3z"/>
	<path class="st6" d="M292.5,257c0-2.2,1.8-3.9,3.9-3.9H363v-23.6h-78.3V257C284.7,257,292.5,257,292.5,257z"/>
	<polygon class="st6" points="289.4,221.5 358.2,221.5 323.8,182.6 	"/>
	<path class="st7" d="M236.6,172.7c2.2,0,3.9,1.8,3.9,3.9h7.9c0-2.2,1.8-3.9,3.9-3.9h67.5v-12.9h-95.1v12.9H236.6z"/>
	<path class="st1" d="M240.6,176.6c0,2.2-1.8,3.9-3.9,3.9h-14l-36.1,41h92.5l36.1-41h-62.7c-2.2,0-3.9-1.8-3.9-3.9
		C248.4,176.6,240.6,176.6,240.6,176.6z"/>
	<rect x="181.7" y="367.3" class="st7" width="95.1" height="23.6"/>
	<rect x="181.7" y="229.4" class="st7" width="95.1" height="23.6"/>
	<path class="st8" d="M370.8,225.1c0-0.1,0-0.1,0-0.2c0-0.1,0-0.1,0-0.2c0-0.1,0-0.1,0-0.2c0-0.1,0-0.1,0-0.2c0-0.1,0-0.1-0.1-0.2
		c0-0.1,0-0.1-0.1-0.2c0-0.1-0.1-0.1-0.1-0.2c0,0,0-0.1-0.1-0.1c0-0.1-0.1-0.1-0.1-0.2c0-0.1-0.1-0.1-0.1-0.1c0-0.1-0.1-0.1-0.1-0.2
		c0-0.1-0.1-0.1-0.1-0.1c0,0-0.1-0.1-0.1-0.1c0,0,0,0,0-0.1l-42.1-47.7v-19.3c0-2.2-1.8-3.9-3.9-3.9h-103c-2.2,0-3.9,1.8-3.9,3.9
		v19.3l-42.1,47.7c0,0,0,0,0,0c0,0-0.1,0.1-0.1,0.1c0,0-0.1,0.1-0.1,0.1c0,0.1-0.1,0.1-0.1,0.2c0,0-0.1,0.1-0.1,0.1
		c0,0.1-0.1,0.1-0.1,0.2c0,0,0,0.1-0.1,0.1c0,0.1-0.1,0.1-0.1,0.2c0,0,0,0.1-0.1,0.1c0,0.1,0,0.1-0.1,0.2c0,0.1,0,0.1,0,0.2
		c0,0.1,0,0.1,0,0.2c0,0.1,0,0.1,0,0.2c0,0.1,0,0.1,0,0.2c0,0.1,0,0.3,0,0.4v169.5c0,2.2,1.8,3.9,3.9,3.9h189.2
		c2.2,0,3.9-1.8,3.9-3.9V225.4C370.9,225.3,370.9,225.2,370.8,225.1z M276.8,229.4V253h-95.1v-23.6H276.8z M276.8,359.5h-95.1v-98.5
		h95.1V359.5z M289.4,221.5l34.4-39l34.4,39H289.4z M319.9,159.8v12.9h-67.5c-2.2,0-3.9,1.8-3.9,3.9c0,2.2,1.8,3.9,3.9,3.9h62.7
		l-36.1,41h-92.5l36.1-41h14c2.2,0,3.9-1.8,3.9-3.9c0-2.2-1.8-3.9-3.9-3.9h-11.8v-12.9H319.9z M181.7,367.3h95.1V391h-95.1V367.3z
		 M284.7,229.4H363V253h-66.5c-2.2,0-3.9,1.8-3.9,3.9c0,2.2,1.8,3.9,3.9,3.9H363v98.5h-66.5c-2.2,0-3.9,1.8-3.9,3.9
		c0,2.2,1.8,3.9,3.9,3.9H363V391h-78.3V229.4z"/>
	<path class="st8" d="M229.2,346.3c15.5,0,28-12.6,28-28c0-6.1-1.9-11.9-5.5-16.7l-19.3-25.9c-0.7-1-1.9-1.6-3.2-1.6
		c-1.2,0-2.4,0.6-3.2,1.6l-19.4,25.9c-3.6,4.9-5.5,10.7-5.5,16.7C201.2,333.7,213.8,346.3,229.2,346.3z M229.2,284.6l16.2,21.7
		c2.6,3.5,4,7.7,4,12c0,11.1-9,20.2-20.2,20.2c-11.1,0-20.2-9-20.2-20.2c0-4.4,1.4-8.5,4-12L229.2,284.6z"/>
</g>
</svg>
