<?xml version="1.0" encoding="iso-8859-1"?>
<!-- Generator: Adobe Illustrator 19.0.0, SVG Export Plug-In . SVG Version: 6.00 Build 0)  -->
<svg version="1.1" id="Layer_1" xmlns="http://www.w3.org/2000/svg" xmlns:xlink="http://www.w3.org/1999/xlink" x="0px" y="0px"
	 viewBox="0 0 512 512" style="enable-background:new 0 0 512 512;" xml:space="preserve">
<path style="fill:#72CCC5;" d="M414.414,446.341l-93.359-76.384l-27.492-114.048h-70.697l-86.536,197.49
	c-3.282,7.111-2.005,15.707,3.2,21.559c5.768,6.484,15.395,8.455,23.256,4.794c4.242-1.976,7.689-5.44,9.65-9.689l52.14-112.97
	l30.881-61.053l30.803,93.804c1.256,3.015,3.235,5.673,5.763,7.741l97.208,79.534c6.992,5.722,17.289,5.951,24.516,0.527
	c6.324-4.746,9.266-12.996,7.383-20.669C420.109,452.815,417.73,449.054,414.414,446.341z"/>
<path style="fill:#F4F3EC;" d="M384.485,226.1c-5.667-9.898-34.64-67.998-38.403-70.35l-72.408-49.704h-35.348
	c0,0-106.045,99.141-118.543,111.222c-7.019,6.784-6.902,18.093,0,24.995c6.584,6.584,16.616,6.313,24.005,0.896
	c24.67-18.087,79.079-66.415,79.079-66.415v79.166h70.697v-83.589l25.635,12.418c0,0,28.678,52.292,39.166,64.354
	c7.365,8.469,19.22,8.906,26.121,2.004C391.387,244.193,388.372,232.89,384.485,226.1z"/>
<path style="fill:#E8E6D9;" d="M238.326,141.389c0-12.26,1.724-24.116,4.94-35.344h-4.94c0,0-106.045,99.141-118.543,111.222
	c-7.019,6.784-6.902,18.093,0,24.995c6.584,6.584,16.616,6.313,24.005,0.896c24.67-18.087,79.079-66.415,79.079-66.415v79.166
	h70.697v-9.136C260.189,223.641,238.326,185.071,238.326,141.389z"/>
<path style="fill:#FFE5BA;" d="M256,0c-34.109,0-61.86,27.751-61.86,61.86s27.751,61.86,61.86,61.86
	c34.11,0,61.86-27.751,61.86-61.86S290.11,0,256,0z"/>
<path style="fill:#FFD686;" d="M256,110.459c-31.869,0-58.18-24.227-61.5-55.23c-0.233,2.179-0.36,4.39-0.36,6.63
	c0,34.109,27.751,61.86,61.86,61.86c34.11,0,61.86-27.751,61.86-61.86c0-2.24-0.127-4.451-0.36-6.63
	C314.18,86.233,287.87,110.459,256,110.459z"/>
<path style="fill:#FC9C47;" d="M282.511,0.552h-61.86c-24.059,0-43.633,19.574-43.633,43.633c0,4.575,3.709,8.285,8.285,8.285
	h88.923v57.989c0,4.575,3.708,8.285,8.285,8.285h17.674c14.314,0,25.959-11.645,25.959-25.959v-48.6
	C326.145,20.127,306.57,0.552,282.511,0.552z"/>
<rect x="222.861" y="181.161" style="fill:#58AB23;" width="70.697" height="17.674"/>
<path style="fill:#11BBA3;" d="M213.195,185.263c1.364-1.196,2.614-2.294,3.726-3.272
	C215.389,182.706,214.097,183.846,213.195,185.263z"/>
<rect x="222.861" y="216.509" style="fill:#58AB23;" width="70.697" height="17.674"/>
<g>
	<path style="fill:#8C823F;" d="M247.715,62.412h-1.105c-4.575,0-8.285,3.709-8.285,8.285s3.709,8.285,8.285,8.285h1.105
		c4.577,0,8.285-3.709,8.285-8.285S252.292,62.412,247.715,62.412z"/>
	<path style="fill:#8C823F;" d="M221.204,62.412h-1.105c-4.575,0-8.285,3.709-8.285,8.285s3.709,8.285,8.285,8.285h1.105
		c4.575,0,8.285-3.709,8.285-8.285S225.779,62.412,221.204,62.412z"/>
</g>
<g>
	<path style="fill:#A3682D;" d="M406.231,317.584h-70.697c-4.577,0-8.285-3.709-8.285-8.285s3.708-8.285,8.285-8.285h70.697
		c4.577,0,8.285,3.709,8.285,8.285S410.807,317.584,406.231,317.584z"/>
	<path style="fill:#A3682D;" d="M167.629,317.584h-61.86c-4.575,0-8.285-3.709-8.285-8.285s3.709-8.285,8.285-8.285h61.86
		c4.575,0,8.285,3.709,8.285,8.285S172.204,317.584,167.629,317.584z"/>
	<path style="fill:#A3682D;" d="M459.253,414.792h-44.186c-4.577,0-8.285-3.709-8.285-8.285s3.708-8.285,8.285-8.285h44.186
		c4.577,0,8.285,3.709,8.285,8.285S463.83,414.792,459.253,414.792z"/>
	<path style="fill:#A3682D;" d="M273.674,414.792h-44.186c-4.575,0-8.285-3.709-8.285-8.285s3.709-8.285,8.285-8.285h44.186
		c4.577,0,8.285,3.709,8.285,8.285S278.251,414.792,273.674,414.792z"/>
	<path style="fill:#A3682D;" d="M124.18,414.792H52.746c-4.575,0-8.285-3.709-8.285-8.285s3.709-8.285,8.285-8.285h71.434
		c4.575,0,8.285,3.709,8.285,8.285S128.756,414.792,124.18,414.792z"/>
	<path style="fill:#A3682D;" d="M503.439,512H8.561c-4.575,0-8.285-3.709-8.285-8.285s3.709-8.285,8.285-8.285h494.878
		c4.577,0,8.285,3.709,8.285,8.285S508.016,512,503.439,512z"/>
</g>
<g>
	<path style="fill:#FC9C47;" d="M405.679,44.186V8.837c0-5.303-5.143-9.321-10.294-8.037l-35.348,8.837
		c-3.688,0.921-6.275,4.235-6.275,8.037v27.064h-0.552c-4.577,0-8.285,3.709-8.285,8.285s3.708,8.285,8.285,8.285h8.837
		c4.577,0,8.285-3.709,8.285-8.285v-28.88l18.779-4.695v16.452h-0.552c-4.577,0-8.285,3.709-8.285,8.285s3.708,8.285,8.285,8.285
		h8.837C401.97,52.47,405.679,48.761,405.679,44.186z"/>
	<path style="fill:#FC9C47;" d="M455.514,46.492c-2.01-1.57-4.632-2.125-7.108-1.507l-35.348,8.837
		c-3.688,0.921-6.275,4.235-6.275,8.037v27.064h-0.552c-4.577,0-8.285,3.709-8.285,8.285c0,4.575,3.708,8.285,8.285,8.285h8.837
		c4.577,0,8.285-3.709,8.285-8.285v-28.88l18.779-4.695v16.452h-0.552c-4.577,0-8.285,3.709-8.285,8.285s3.708,8.285,8.285,8.285
		h8.837c4.577,0,8.285-3.709,8.285-8.285V53.023C458.701,50.471,457.526,48.063,455.514,46.492z"/>
</g>
<g>
</g>
<g>
</g>
<g>
</g>
<g>
</g>
<g>
</g>
<g>
</g>
<g>
</g>
<g>
</g>
<g>
</g>
<g>
</g>
<g>
</g>
<g>
</g>
<g>
</g>
<g>
</g>
<g>
</g>
</svg>
