<svg enable-background="new 0 0 74 74" viewBox="0 0 74 74" xmlns="http://www.w3.org/2000/svg"><path d="m30.5 73.9c10.6.1 19.4-8.4 19.5-19s-8.4-19.4-19-19.5-19.4 8.4-19.5 19 8.4 19.4 19 19.5" fill="#d0d0cf"/><path d="m30.9 46c-4.8-.1-8.7 3.8-8.8 8.5-.1 4.8 3.8 8.7 8.5 8.8 4.8.1 8.7-3.8 8.8-8.5.1-4.8-3.8-8.7-8.5-8.8z" fill="#9b9b9a"/><g fill="#fbe829"><path d="m24.5 30.3c0-.1 0-.2.1-.3l1.7-3.4c.2-.3.5-.4.8-.5.3 0 .4.2.4.5v3.1c0 .4.3.8.8.8h2.2c3.6 0 7.1.8 10.3 2.5.4.2.8.1 1-.3.1-.1.1-.3.1-.5l-.7-5.1-1.1-6.1c-.2-2.1-1.8-3.8-3.8-4.2l-6.6-.8c-2.6-.3-4.3.1-5.1 1.6l-3.7 6.9c-1.2 1.9-1.8 4.2-1.6 6.5v10.4c0 2.4 1.1 3.4 2.6 3.4 1.6 0 2.5-1.5 2.5-3.6z"/><circle cx="34.1" cy="5.6" r="5.6"/><path d="m59.7 68.7c1.9 0 3.1-1.8 3.1-4.6 0 0-.9-16-1.2-19.8s-3.7-6.2-9-6.2"/><path d="m52.8 38.1 3.5 26.9c.4 2.5 1.6 3.7 3.4 3.7"/></g><g fill="none" stroke="#010101" stroke-linecap="round" stroke-linejoin="round" stroke-width="2.0071"><path d="m56.3 65c.4 2.5 1.6 3.7 3.4 3.7"/><path d="m59.7 68.7c1.9 0 3.1-1.8 3.1-4.6 0 0-.9-16-1.2-19.8s-3.7-6.2-9-6.2"/><path d="m22.1 54.6c-.1 4.8 3.8 8.7 8.5 8.8 4.8.1 8.7-3.8 8.8-8.5.1-4.8-3.8-8.7-8.5-8.8"/><path d="m27.9 30.5h2.5c4.1 0 8.1 1.1 11.6 3.2l-.9-6.6-1-6.1c-.2-2.1-1.8-3.8-3.8-4.2l-6.6-.8c-2.6-.3-4.4.1-5.1 1.6l-5.1 11.6c-.1.2-.2.5-.2.8v11.4c0 2.4 1.1 3.4 2.6 3.4"/><circle cx="34.1" cy="5.6" r="5.6"/><path d="m15.7 42.7c-6.7 8.2-5.4 20.3 2.8 27s20.3 5.4 27-2.8 5.4-20.3-2.8-27c-4.3-3.5-9.9-4.9-15.3-4"/></g></svg>