<svg enable-background="new 0 0 74 74" viewBox="0 0 74 74" xmlns="http://www.w3.org/2000/svg"><path d="m27.2 0 2.2 22.6-20.4-16.8 11.4 22-12.2-4.6 5.4 9.8-12.9-.4 16.5 10.7-16.4 4.7 17.2 3.4c1.3-7.7 7.8-13.4 15.4-16.5 4.5-1.9 9.5-2.9 14.3-2.9 3 0 5.9.5 8.5 1.4l7.5-18.7-12.9 13 3-25.4-6.6 15.1-2.2-6.3-5.1 13.1c0 .1-12.7-24.2-12.7-24.2zm40.2 29.9c-2.8 0-6.1 1.4-8.8 4.1-.8.8-1.5 1.7-2.1 2.7-4.6-2.8-11.4-2.6-17.8-.6-1.4.4-2.9.9-4.2 1.4-6.9 2.9-12.3 7.8-13.5 14.1-1 4.7.8 9.9 7.5 14.9h-18.9l-4.1 7.5h40.4l-13.9-16.2c3.8-4.2 10.6-6.9 15.2-7.1 2.2 7.1 5.7 17.8 11.3 23.3h9.5c-6.8-7.3-12-17.1-12.9-28.2.3.5.6 1 1 1.4 2.9 2.9 8.8 1.8 13.1-2.5s5.4-10.1 2.5-13.1c-1.1-1.1-2.6-1.6-4.3-1.7z" fill="#010101"/></svg>