<svg enable-background="new 0 0 100 100" viewBox="0 0 100 100" xmlns="http://www.w3.org/2000/svg"><circle cx="50" cy="50.2" fill="#f3f3f3" r="48.3"/><circle cx="50" cy="50.2" fill="#e6e6e5" r="31.2"/><path d="m40.9 18.9c1.4-.9 3.1-1.1 4.6-.5.5.2 1 .5 1.4.9 3.5 2.9 5.6 7.4 5.3 12.4-.4 7.6-6.7 13.8-14.3 14.1-8.6.4-15.7-6.5-15.7-15 0-4.7 2.1-8.8 5.5-11.6.1-.1.1-.1.2-.2 1.7-1.3 4-1.2 5.8 0l.4.3c1.9 1.3 4.3 1.3 6.2.1z" fill="#f47e62"/><path d="m28.4 30.8c0-4.7 2.1-8.8 5.5-11.6l-.3-.2c-1.7-1.2-4.1-1.2-5.8 0-.1.1-.1.1-.2.2-3.3 2.8-5.5 6.9-5.5 11.6 0 8.5 7.1 15.4 15.7 15 .8 0 1.6-.1 2.4-.3-6.7-1.5-11.8-7.5-11.8-14.7z" fill="#e86b57"/><path d="m69.6 15.6c1.2.4 2.1 1 2.8 2.1 1.7 2.9 2 6.5.6 9.9-2.2 5.2-8.1 7.8-13.4 6.2-6.1-1.9-9.3-8.4-7.1-14.3 1.2-3.2 3.7-5.6 6.7-6.6 1.2-.4 2.3-.2 3.4.2 1.6 2.2 4.3 3.2 7 2.6z" fill="#f4c67e"/><path d="m63.7 33.8c-6.1-1.9-9.3-8.4-7.1-14.3 1.1-3 3.3-5.2 6-6.3 0 0 0 0-.1-.1-1.1-.4-2.2-.6-3.4-.2-3 1.1-5.5 3.4-6.7 6.6-2.1 5.9 1.1 12.4 7.1 14.3 1.8.6 3.6.6 5.3.3-.3-.1-.7-.2-1.1-.3z" fill="#e0b26e"/><path d="m65.4 56.3c-.4 3.7.2 7.3-4 14.6l7.9 4.6c4.3-7.3 7.7-8.5 10.8-10.7" fill="#bbda83"/><path d="m86.8 54.8c-.3-.2-.6-.3-.9-.4.7-3.5-.8-7.3-4.1-9.2s-7.3-1.4-10 .9c-.3-.2-.5-.4-.8-.6-2.9-1.7-6.6-.7-8.3 2.2s-.7 6.6 2.2 8.3c1.5.9 3.3 1 4.8.6.7 1.5 1.9 2.7 3.4 3.6s3.2 1.3 4.8 1.2c.3 1.6 1.3 3 2.9 3.9 2.9 1.7 6.6.7 8.3-2.2 1.6-2.9.6-6.6-2.3-8.3z" fill="#bbda83"/><g fill="#010101"><path d="m85.4 14.8c-9.5-9.4-22-14.6-35.4-14.6s-25.9 5.2-35.4 14.6c-9.4 9.4-14.6 22-14.6 35.3s5.2 25.9 14.5 35.3c.7.7 1.8.7 2.5 0s.7-1.8 0-2.5c-8.7-8.7-13.5-20.4-13.5-32.8 0-25.6 20.8-46.5 46.5-46.5s46.5 20.9 46.5 46.5-20.8 46.6-46.5 46.6c-10.7 0-20.7-3.5-29-10.1-.7-.6-1.8-.5-2.4.3-.6.7-.5 1.8.3 2.4 8.9 7.1 19.7 10.9 31.2 10.9 13.4 0 25.9-5.2 35.4-14.6s14.6-22 14.6-35.4-5.3-26-14.7-35.4z"/><path d="m77.2 31.9c-.5-.8-1.6-1-2.4-.5s-1 1.6-.5 2.4c1.2 1.7 2.2 3.6 2.9 5.6.3.7.9 1.1 1.6 1.1.2 0 .4 0 .6-.1.9-.4 1.3-1.4 1-2.3-.8-2.2-1.9-4.3-3.2-6.2z"/><path d="m18.5 41.1c-.8 2.9-1.3 5.9-1.3 9 0 18.1 14.7 32.8 32.8 32.8 4.4 0 8.7-.9 12.7-2.6.9-.4 1.3-1.4.9-2.3s-1.4-1.3-2.3-.9c-3.6 1.5-7.4 2.3-11.4 2.3-16.1 0-29.3-13.1-29.3-29.3 0-2.7.4-5.4 1.1-8.1.3-.9-.3-1.9-1.2-2.1-.8-.2-1.7.3-2 1.2z"/><path d="m22.8 26.1c-.9-.2-1.9.4-2 1.4-.2 1.1-.3 2.2-.3 3.3 0 4.6 1.8 8.9 5.2 12.1 3.2 3 7.2 4.6 11.6 4.6h.8c4.1-.2 8-1.9 11-4.8 2.8-2.8 4.6-6.4 4.9-10.3 1.4 1.4 3.2 2.5 5.2 3.1 1.2.4 2.5.6 3.8.6 1.8 0 3.7-.4 5.4-1.2 2.9-1.3 5.2-3.6 6.4-6.5 1.6-3.8 1.4-7.9-.7-11.5-1-1.7-2.6-2.4-3.7-2.8-.3-.1-.6-.1-1-.1h-.1c-2 .5-4-.3-5.2-2-.2-.3-.5-.5-.8-.6-1.1-.4-2.7-.9-4.6-.2-3.6 1.3-6.4 4.1-7.7 7.7-.2.5-.3 1-.4 1.5-.7-.9-1.5-1.7-2.4-2.5-.6-.5-1.2-.9-1.9-1.1-2-.8-4.3-.6-6.2.6l-.7.4c-1.3.8-3 .8-4.2-.1l-.4-.3c-2.4-1.6-5.5-1.6-7.8.1-.1.1-.2.1-.3.2-1.5 1.2-2.7 2.7-3.7 4.3-.5.8-.2 1.9.6 2.4s1.9.2 2.4-.6c.8-1.3 1.8-2.4 2.9-3.4 0 0 .1-.1.2-.1 1.1-.8 2.6-.8 3.8 0l.4.3c2.4 1.7 5.6 1.7 8.1.1l.7-.4c.9-.6 2-.7 3-.3.3.1.7.3.9.6 3.3 2.7 5 6.7 4.7 11-.4 6.7-5.9 12.2-12.6 12.5-3.7.2-7.2-1.1-9.8-3.7-2.7-2.5-4.1-5.9-4.1-9.6 0-.9.1-1.8.3-2.6-.2-1-.8-1.9-1.7-2.1zm31.3-6.1c1-2.6 3-4.7 5.6-5.6.2-.1.5-.1.7-.1.3 0 .6.1 1 .2 1.9 2.4 5 3.5 8 2.9.7.3 1.1.6 1.4 1.1 1.5 2.6 1.7 5.6.5 8.4-1.9 4.3-6.8 6.6-11.3 5.2-2.5-.8-4.4-2.5-5.6-4.8-1.1-2.3-1.2-4.9-.3-7.3z"/><path d="m82.6 43.7c-3.4-2-7.7-1.9-11 .3-1.8-1-3.8-1.3-5.8-.7-2 .5-3.7 1.8-4.7 3.6-2.1 3.6-1 8.2 2.5 10.4 0 .3 0 .6-.1.9-.2 3.1-.4 6.2-3.6 11.8-.5.8-.2 1.9.6 2.4l7.9 4.6c.3.2.6.2.9.2.1 0 .3 0 .4-.1.4-.1.8-.4 1.1-.8 2.5-4.3 4.7-6.3 6.3-7.5.8-.6.9-1.7.3-2.4-.6-.8-1.7-.9-2.4-.3-2.4 1.8-4.4 4-6.3 7l-5-2.9c2.9-5.4 3.1-8.9 3.3-11.8.6.1 1.2.1 1.8 0 .9 1.3 2 2.4 3.4 3.2s2.9 1.3 4.4 1.4c.6 1.5 1.8 2.9 3.3 3.7 1.2.7 2.6 1.1 3.9 1.1 2.7 0 5.3-1.4 6.7-3.9 2.1-3.7.9-8.4-2.7-10.6.2-3.8-1.7-7.6-5.2-9.6zm4.9 18.5c-1.2 2.1-3.8 2.7-5.9 1.5-1.1-.6-1.8-1.6-2-2.8-.2-.8-.9-1.4-1.7-1.4h-.1c-1.3.1-2.7-.3-3.8-.9-1.2-.7-2.1-1.7-2.7-2.9-.4-.8-1.3-1.1-2.1-.9-1.2.4-2.4.2-3.4-.4-2.1-1.2-2.7-3.8-1.5-5.9.6-1 1.5-1.7 2.6-2s2.3-.1 3.3.4c.2.1.4.3.6.4.7.5 1.6.5 2.2 0 2.2-1.9 5.5-2.2 8-.7 2.6 1.5 3.9 4.4 3.3 7.4-.2.8.3 1.7 1.1 2l.6.3c2 1.2 2.7 3.9 1.5 5.9z"/><circle cx="49.2" cy="65.1" r="1.7"/><circle cx="45.6" cy="58.1" r="1.7"/><circle cx="40.7" cy="64.4" r="1.7"/><circle cx="35.7" cy="66.8" r="1.7"/><circle cx="32.9" cy="60.5" r="1.7"/><circle cx="38.8" cy="57.4" r="1.7"/><circle cx="40.7" cy="51.2" r="1.7"/><circle cx="32.5" cy="54.3" r="1.7"/></g></svg>