<svg width="212" height="212" viewBox="0 0 212 212" fill="none" xmlns="http://www.w3.org/2000/svg">
<path d="M145.816 73.3058C124.948 47.7167 115.722 25.9536 110.439 12.9686C108.766 8.87766 103.218 8.87766 101.561 12.9686C96.2778 25.9536 87.0525 47.7167 66.1838 73.3058C53.116 89.3383 40.2303 112.807 40.2303 135.929C40.2303 175.38 68.7013 202.096 106 202.096C143.299 202.096 171.77 175.364 171.77 135.929C171.77 111.896 158.884 89.3383 145.816 73.3058Z" fill="#AAD1FF"/>
<path d="M124.186 132.235C134.703 112.227 133.212 92.6506 141.527 96.1784C152.822 100.998 165.327 125.759 160.64 148.201C157.294 164.201 146.495 173.89 132.732 169.269C121.618 165.542 114.712 150.255 124.186 132.235Z" fill="white"/>
<path d="M106.652 128.652C106.652 128.479 106.583 128.313 106.461 128.191C106.339 128.069 106.173 128 106 128C105.827 128 105.661 128.069 105.539 128.191C105.417 128.313 105.348 128.479 105.348 128.652V132.348H101.652C101.479 132.348 101.313 132.417 101.191 132.539C101.069 132.661 101 132.827 101 133C101 133.173 101.069 133.339 101.191 133.461C101.313 133.583 101.479 133.652 101.652 133.652H105.348V137.348C105.348 137.521 105.417 137.687 105.539 137.809C105.661 137.931 105.827 138 106 138C106.173 138 106.339 137.931 106.461 137.809C106.583 137.687 106.652 137.521 106.652 137.348V133.652H110.348C110.521 133.652 110.687 133.583 110.809 133.461C110.931 133.339 111 133.173 111 133C111 132.827 110.931 132.661 110.809 132.539C110.687 132.417 110.521 132.348 110.348 132.348H106.652V128.652Z" fill="white"/>
</svg>
