<svg enable-background="new 0 0 74 74" viewBox="0 0 74 74" xmlns="http://www.w3.org/2000/svg"><circle cx="37" cy="37" fill="#334b5e" r="37"/><g fill="#ffd15c"><path d="m44.9 37.9c0 .1 0 .1 0 0z"/><path d="m29.1 37.9c0 .1 0 .1 0 0z"/><path d="m52.7 23.5c-.3-3.4-4.6-5-4.6-5-1.7-4.1-5.2-1.9-5.2-1.9-.6-.9-2.1-.6-2.1-.6-1.8-.3-1.7-1.1-1.7-1.1h-2-2.1s.1.8-1.7 1.1c0 0-1.5-.2-2.1.6 0 0-3.6-2.2-5.2 1.9 0 0-4.2 1.7-4.6 5 0 0-.8 1.5.5 1.8 0 0 1.9 3.9 7.5 4.7 0 0 .8 1.1 2.4 1.4 0 0-.1.2-.2.5-.1.2-.1.3-.2.5-.1.5-.2 1-.1 1.5 0 0-1.9 3.7-2.1 4 .1-.1.1-.2.2-.2-.1.2-3.3 6-1.3 9.4 0 0-.7 2.6-.3 3.7 0 0-1.8 2.6-1.4 9 0 0 0 5.4-1.6 7 0 0-.2.6-.8.6 0 0-1.3 1.2 1.1.9l1.9.1s.5-1.2.5-1.5c0 0 1.5-.2 1.7-.9 0 0 .1-.3-.5-1.7 0 0 .1-4.1.9-5.5 0 0 2.2-1.9 1.5-4.6v-3.3s1-1 1.5-2.6c0 0 1.1-1.6 1.2-2 0 0 3.4-1.1 3-7.8h.2.3c-.5 6.8 3 7.9 3 7.9.1.5 1.2 2 1.2 2 .5 1.6 1.5 2.6 1.5 2.6v3.3c-.7 2.7 1.5 4.6 1.5 4.6.9 1.3.9 5.5.9 5.5-.6 1.4-.5 1.7-.5 1.7.2.6 1.7.9 1.7.9 0 .3.5 1.5.5 1.5l1.9-.1c2.4.3 1.1-.9 1.1-.9-.6 0-.8-.6-.8-.6-1.6-1.6-1.6-7-1.6-7 .4-6.4-1.4-9-1.4-9 .4-1.1-.3-3.7-.3-3.7 1.9-3.3-1.2-9.1-1.3-9.4 0 0 .1.1.2.2-.2-.3-2.1-4-2.1-4 .1-.5.1-1.1-.1-1.5-.1-.2-.1-.4-.2-.5-.1-.3-.2-.5-.2-.5 1.6-.3 2.4-1.4 2.4-1.4 5.7-.8 7.5-4.7 7.5-4.7 1.2-.5.5-1.9.5-1.9zm-21.7 5c-1-.5-3.7-2.6-3.7-2.6 0-.1-.1-.3-.1-.5-.2-.5-.4-1.1-.4-1.1.1 0 .3-.1.5-.2.3-.2.8-.5.8-.5.2 1.3 2.5 2.8 2.5 2.8.5.5 1.1 2.1 1.1 2.1zm15.8-3.2c-.1.2-.1.5-.1.5s-2.7 2.2-3.7 2.6l-.6-.1s.6-1.6 1.1-2.1c0 0 2.2-1.5 2.5-2.8 0 0 .4.3.8.5.2.1.4.2.5.2-.1.1-.3.7-.5 1.2z"/></g><g fill="#f8b54d"><path d="m37 22.1v1.4l1-.3c4.4.8 5.4-1.5 5.4-1.5-3 2.4-5.8.8-6.4.4z"/><path d="m37 25.9s2.9 1 3.6.4c0 0-1 1.1-3.6.2z"/><path d="m37 28.8s2.2.3 2.9-.3c0 0-.5 1.2-2.9 1z"/><path d="m43.8 22.5s-.1 2.1-.6 3c0 0-.3 1.5-.5 1.9 0 0 .6-2.3 0-3.1-.1-.1.9.8 1.1-1.8z"/><path d="m48.5 22.2c-.3.5-1.3 2.4-1.7 3.1.2-.5.4-1.1.4-1.1-.1 0-.3-.1-.5-.2 0 0 1.4-1.2 1.8-1.8z"/><path d="m48.6 22.1c0 .1-.1.1-.1.1.1-.1.1-.1.1-.1z"/><path d="m37 18.8s1.7-1.6 3.6-1.7c0 0-2.8-.2-3.6 1.2z"/><path d="m41.8 40.8c-.1 0 3.8 3.1 3.7 6.4 0 0 .3-6.2-.5-6.9 0 0 .3 1.9.2 3.5-.1-.1-2.1-2.7-3.4-3z"/><path d="m41.7 43.7s-.8 5.3 2 5.6c0 0 1.5-.9 1.7-1.7 0 0-.3 1.7-2.1 2.1 0 0-2.8-.8-1.6-6z"/><path d="m49.3 20.5s3.6 1.9 1.6 3.7c.1 0 1.1-1.8-1.6-3.7z"/><path d="m50.6 25.6s-2.7 2.6-5.1 2.9c-.1.1 2.3.4 5.1-2.9z"/><path d="m44.2 16.5s1.6 1.1 1.5 2.9c0 0-.5-2.2-1.5-2.9z"/><path d="m37 22.1v1.4l-1-.3c-4.4.8-5.4-1.5-5.4-1.5 3 2.4 5.8.8 6.4.4z"/><path d="m37 25.9s-2.9 1-3.6.4c0 0 1 1.1 3.6.2z"/><path d="m37 28.8s-2.2.3-2.9-.3c0 0 .5 1.2 2.9 1z"/><path d="m30.2 22.5s.1 2.1.6 3c0 0 .3 1.5.5 1.9 0 0-.6-2.3 0-3.1.1-.1-.9.8-1.1-1.8z"/><path d="m25.5 22.2c.3.5 1.3 2.4 1.7 3.1-.2-.5-.4-1.1-.4-1.1.1 0 .3-.1.5-.2 0 0-1.4-1.2-1.8-1.8z"/><path d="m25.4 22.1c0 .1.1.1.1.1-.1-.1-.1-.1-.1-.1z"/><path d="m37 18.8s-1.7-1.6-3.6-1.7c0 0 2.8-.2 3.6 1.2z"/><path d="m32.2 40.8c.1 0-3.8 3.1-3.7 6.4 0 0-.3-6.2.5-6.9 0 0-.3 1.9-.2 3.5.1-.1 2.1-2.7 3.4-3z"/><path d="m32.3 43.7s.8 5.3-2 5.6c0 0-1.5-.9-1.7-1.7 0 0 .3 1.7 2.1 2.1 0 0 2.8-.8 1.6-6z"/><path d="m24.7 20.5s-3.6 1.9-1.6 3.7c-.1 0-1.1-1.8 1.6-3.7z"/><path d="m23.4 25.6s2.7 2.6 5.1 2.9c.1.1-2.3.4-5.1-2.9z"/><path d="m29.8 16.5s-1.6 1.1-1.5 2.9c0 0 .5-2.2 1.5-2.9z"/><path d="m44.6 53.5s.6 2.7-.5 4.3c0-.1 1.5-1.1.5-4.3z"/><path d="m29 53.5s-.6 2.7.5 4.3c0-.1-1.5-1.1-.5-4.3z"/></g><path d="m42.6 33.6c-1.6.6-9.6.6-11.2 0-.1-.1-.3 0-.3.2-.1.1 0 .2.1.3 1.7 1.2 5.4 4.7 5.7 5h.4c.3-.3 4-3.8 5.7-5 .1-.1.2-.2.1-.3-.2-.2-.3-.3-.5-.2z" fill="#f3705b"/><g fill="#ffd15c"><path d="m40.3 9c0 2.4-1.5 5.3-3.3 5.3-1.9 0-3.3-2.9-3.3-5.3s1.5-3.3 3.3-3.3c1.9 0 3.3.9 3.3 3.3z"/><path d="m38.8 12.3h-1.8-1.8s.1 2.8-.9 3.3h2.7 2.7c-1-.5-.9-3.3-.9-3.3z"/><path d="m40.5 10.9c-.3.4-.8.6-1 .3-.2-.2-.2-.7.2-1.1.3-.4.8-.5 1-.3.1.2.1.7-.2 1.1z"/><path d="m33.5 10.9c.3.4.8.6 1 .3.2-.2.2-.7-.2-1.1-.3-.4-.8-.5-1-.3-.1.2-.1.7.2 1.1z"/></g></svg>