<svg enable-background="new 0 0 100 100" viewBox="0 0 100 100" xmlns="http://www.w3.org/2000/svg"><path d="m84.9 87.5-19.3-17.4h13l-18.1-18.5h8.1l-18.6-25.6-18.6 25.6h8.1l-18.1 18.5h13l-19.3 17.4z" fill="#3faf63"/><path d="m41.1 87.5h17.8v10.4h-17.8z" fill="#a18772"/><path d="m50 2.1 3.8 8.4 9.1 1-6.7 6.2 1.8 9-8-4.5-8 4.5 1.8-9-6.7-6.2 9.1-1z" fill="#f7a81b"/><g fill="#e87179"><circle cx="65.8" cy="72.9" r="5.2"/><circle cx="48.8" cy="46.1" r="5.2"/><circle cx="43.4" cy="66.4" r="5.2"/></g><path d="m86.3 85.9-13.2-11.9c.1-.4.1-.7.1-1.1 0-.2 0-.5 0-.7h5.5c.8 0 1.6-.5 1.9-1.3s.2-1.7-.4-2.3l-14.6-15h3.1c.8 0 1.5-.4 1.9-1.1s.3-1.5-.2-2.2l-17.8-24.2 4.3 2.4c.3.2.7.3 1 .3.4 0 .9-.1 1.2-.4.7-.5 1-1.3.8-2.1l-1.6-7.8 5.9-5.4c.6-.6.8-1.4.6-2.2-.3-.8-.9-1.3-1.8-1.4l-8-.9-3.3-7.3c-.1-.8-.9-1.3-1.7-1.3s-1.6.5-1.9 1.2l-3.3 7.3-8 .9c-.8.1-1.5.7-1.8 1.4-.3.8 0 1.6.6 2.2l5.9 5.4-1.5 7.9c-.2.8.2 1.6.8 2.1.7.5 1.5.5 2.3.1l4.3-2.4-17.7 24.3c-.5.6-.5 1.5-.2 2.2.4.7 1.1 1.1 1.9 1.1h3.1l-14.6 15c-.6.6-.8 1.5-.4 2.3.3.8 1.1 1.3 1.9 1.3h7.6l-15.3 13.6c-.6.6-.9 1.5-.6 2.3s1.1 1.3 2 1.3h23.9v8.3c0 1.2.9 2.1 2.1 2.1h17.8c1.2 0 2.1-.9 2.1-2.1v-8.3h23.9c.9 0 1.6-.5 2-1.3.3-.8.1-1.7-.6-2.3zm-17.3-13c0 1.7-1.4 3.1-3.1 3.1s-3.1-1.4-3.1-3.1 1.4-3.1 3.1-3.1 3.1 1.4 3.1 3.1zm-20.2-29.9c1.7 0 3.1 1.4 3.1 3.1s-1.4 3.1-3.1 3.1-3.1-1.4-3.1-3.1 1.4-3.1 3.1-3.1zm3.4-3.3c-1-.5-2.2-.8-3.4-.8-2.3 0-4.4 1.1-5.7 2.8-.7.1-1.3.1-1.9.2l8.8-12.3 6.1 8.4c-1.3.6-2.6 1.2-3.9 1.7zm-7-23.5-3.3-3.2 4.6-.5c.7-.1 1.4-.5 1.7-1.2l1.8-4.2 1.9 4.2c.3.7.9 1.1 1.7 1.2l4.6.5-3.4 3.1c-.5.5-.8 1.2-.6 2l.9 4.5-4-2.3c-.3-.2-.7-.3-1-.3-.4 0-.7.1-1 .3l-4 2.3.9-4.5c0-.7-.2-1.4-.8-1.9zm-18.8 51.8 14.6-15c.6-.6.8-1.5.4-2.3-.3-.8-1.1-1.3-1.9-1.3h-4l2.5-3.5h.6c.7 0 1.7 0 2.8-.1v.2c0 4 3.3 7.3 7.3 7.3s7.3-3.3 7.3-7.3c0-1.2-.3-2.3-.8-3.2 1.1-.4 2.2-1 3.2-1.5l5.9 8.1h-4c-.7 0-1.4.4-1.8 1-.1.1-3.7 5.8-10.1 10.8-1.3-1.4-3.2-2.2-5.2-2.2-4 0-7.3 3.3-7.3 7.3 0 .4 0 .8.1 1.2-.6.2-1.3.3-2 .4zm13.8-1.6c0-1.7 1.4-3.1 3.1-3.1s3.1 1.4 3.1 3.1-1.4 3.1-3.1 3.1-3.1-1.4-3.1-3.1zm-9.5 9.8c3.3 1.6 12.3 5.9 21.2 9.1h-31.4zm26.1 19.6h-13.6v-6.2h13.6zm10.8-10.4c-8.3-.6-26.5-8.9-33.5-12.2l1.3-1.2c.9-.2 1.8-.4 2.7-.7 1.3 1.4 3.2 2.3 5.3 2.3 4 0 7.3-3.3 7.3-7.3 0-.5 0-.9-.1-1.3 4.9-3.7 8.4-7.7 10.2-10.2l12.8 13.2h-2.4c-1.3-1.5-3.3-2.4-5.4-2.4-4 0-7.3 3.3-7.3 7.3s3.3 7.3 7.3 7.3c2.1 0 4-.9 5.3-2.3l8.3 7.5z" fill="#231f20"/></svg>