<svg enable-background="new 0 0 100 100" viewBox="0 0 100 100" xmlns="http://www.w3.org/2000/svg"><circle cx="50" cy="50" fill="#cb473d" r="47.6"/><path d="m73.3 19.9c-6.4-5-14.6-8-23.3-8-21 0-38.1 17.1-38.1 38.1 0 8.8 3 16.9 8 23.3z" fill="#f0efef"/><path d="m26.7 80.1c6.4 5 14.6 8 23.3 8 21 0 38.1-17.1 38.1-38.1 0-8.8-3-16.9-8-23.3z" fill="#f0efef"/><g fill="#010101"><path d="m50 0c-27.6 0-50 22.4-50 50s22.4 50 50 50 50-22.4 50-50-22.4-50-50-50zm0 95.2c-24.9 0-45.2-20.3-45.2-45.2s20.3-45.2 45.2-45.2 45.2 20.3 45.2 45.2-20.3 45.2-45.2 45.2z"/><path d="m75.7 19.8c0-.7-.4-1.3-.9-1.7-7.2-5.6-15.7-8.6-24.8-8.6-22.3 0-40.5 18.2-40.5 40.5 0 9.1 2.9 17.7 8.5 24.8.4.5 1.1.9 1.7.9h.2c.6 0 1.2-.3 1.7-.7l53.4-53.4c.5-.5.8-1.2.7-1.8zm-55.5 49.9c-3.9-5.8-5.9-12.6-5.9-19.7 0-19.7 16-35.7 35.7-35.7 7.1 0 13.8 2.1 19.7 5.9z"/><path d="m82 25.2c-.4-.5-1.1-.9-1.7-.9-.7 0-1.3.2-1.8.7l-53.5 53.4c-.5.5-.7 1.2-.7 1.8 0 .7.4 1.3.9 1.7 7.2 5.6 15.7 8.5 24.8 8.5 22.3 0 40.5-18.2 40.5-40.5 0-9-3-17.6-8.5-24.7zm-32 60.5c-7.1 0-13.8-2.1-19.7-5.9l49.5-49.5c3.9 5.8 5.9 12.6 5.9 19.7 0 19.7-16 35.7-35.7 35.7z"/></g><path d="m38.5 1.6h23v6.4h-23z" fill="#52c0c2"/><path d="m59.4 14.4 7.1 14c-4.1 0-4.1 3.1-8.2 3.1s-4.1-3.1-8.2-3.1-4.1 3.1-8.2 3.1-4.1-3.1-8.2-3.1l7.1-14v-6.4h18.8z" fill="#cfecf3"/><path d="m71.1 41.9v52.2c0 2.3-1.9 4.3-4.3 4.3h-33.7c-2.3 0-4.3-1.9-4.3-4.3v-52.2c0-2.3.9-6 1.9-8l2.8-5.5c4.1 0 4.1 3.1 8.2 3.1s4.1-3.1 8.2-3.1 4.1 3.1 8.2 3.1 4.1-3.1 8.2-3.1l2.8 5.5c1.2 2 2 5.7 2 8z" fill="#f8eada"/><path d="m70.6 33.1-9.6-19.1v-4.4h.5c.9 0 1.6-.7 1.6-1.6v-6.4c0-.9-.7-1.6-1.6-1.6h-23c-.9 0-1.6.7-1.6 1.6v6.4c0 .9.7 1.6 1.6 1.6h.5v4.4l-9.6 19.1c-1.2 2.3-2.1 6.2-2.1 8.8v52.2c0 3.2 2.6 5.9 5.9 5.9h33.8c3.2 0 5.9-2.6 5.9-5.9v-52.2c-.2-2.6-1.1-6.5-2.3-8.8zm-30.5-29.9h19.8v3.2h-19.8zm1.9 11.9c.1-.2.2-.5.2-.7v-4.8h15.6v4.8c0 .3.1.5.2.7l6.1 12c-1.2.4-2 1-2.7 1.5-1 .7-1.6 1.2-3.2 1.2s-2.2-.5-3.2-1.2c-1.1-.8-2.5-1.9-5.1-1.9s-4 1-5.1 1.9c-.9.7-1.6 1.2-3.2 1.2-1.5 0-2.2-.5-3.2-1.2-.7-.5-1.5-1.1-2.7-1.5zm27.5 79c0 1.5-1.2 2.7-2.7 2.7h-33.7c-1.5 0-2.7-1.2-2.7-2.7v-52.2c0-2.1.8-5.5 1.7-7.3l2.3-4.5c.9.2 1.5.6 2.2 1.1 1.1.8 2.5 1.9 5.1 1.9s4-1 5.1-1.9c.9-.7 1.6-1.2 3.2-1.2s2.2.5 3.2 1.2c1.1.8 2.5 1.9 5.1 1.9s4-1 5.1-1.9c.7-.5 1.3-1 2.2-1.1l2.3 4.5c.9 1.9 1.7 5.2 1.7 7.3z" fill="#6f1511"/><g fill="#fff"><path d="m35.3 93.6c-.9 0-1.6-.7-1.6-1.6v-6.4c0-.9.7-1.6 1.6-1.6s1.6.7 1.6 1.6v6.4c-.1.9-.8 1.6-1.6 1.6z"/><path d="m35.3 80.9c-.9 0-1.6-.7-1.6-1.6v-37.4c0-1.6.7-4.5 1.4-5.9.4-.8 1.3-1.1 2.1-.7s1.1 1.3.7 2.1c-.5 1-1.1 3.4-1.1 4.5v37.4c0 .8-.7 1.6-1.5 1.6z"/><path d="m53 16h-6c-.9 0-1.6-.7-1.6-1.6s.7-1.6 1.6-1.6h6c.9 0 1.6.7 1.6 1.6s-.7 1.6-1.6 1.6z"/></g></svg>