<svg enable-background="new 0 0 100 100" viewBox="0 0 100 100" xmlns="http://www.w3.org/2000/svg"><path d="m74.7 63c8.1 0 14.8 6.6 14.8 14.8s-6.6 14.8-14.8 14.8-14.8-6.6-14.8-14.8 6.6-14.8 14.8-14.8z" fill="#8f4a43"/><path d="m25.3 63c8.1 0 14.8 6.6 14.8 14.8s-6.6 14.8-14.8 14.8c-8.1 0-14.8-6.6-14.8-14.8s6.7-14.8 14.8-14.8z" fill="#8f4a43"/><path d="m44.4 16c-4.1 4-9.6 8.5-12.5 8.6h-.1c-3.3 0-11.4-3.9-18.2-7.7 6.5-4.6 14.3-9.3 17.4-9.5h.1c3 .1 8.9 4.6 13.3 8.6z" fill="#7bc1a4"/><path d="m76.9 55.6c11.2 1.1 20 10.6 20 22.1 0 12.3-10 22.2-22.2 22.2s-22.3-9.9-22.3-22.1c0-10.2 6.9-18.8 16.3-21.4l-18.2-32-14.5 33.8c6.9 3.8 11.6 11.1 11.6 19.5 0 12.3-10 22.2-22.2 22.2-12.3.1-22.3-9.9-22.3-22.1s10-22.2 22.2-22.2c1.2 0 2.4.1 3.6.3l11.5-26.9c-2.7 1.7-5.5 3-8.1 3.1-.2 0-.3 0-.5 0-7.7 0-23.8-9.7-26.9-11.7-1-.6-1.7-1.8-1.8-3s.5-2.4 1.5-3.2c3-2.2 18.5-13.8 26.1-14.2h.5c7.5 0 17.8 9.9 20.7 12.9.5.3 1 .8 1.3 1.4zm12.5 22.2c0-8.1-6.6-14.8-14.8-14.8s-14.8 6.6-14.8 14.8 6.6 14.8 14.8 14.8 14.8-6.7 14.8-14.8zm-57.5-53.1c2.9-.1 8.5-4.6 12.5-8.6-4.4-4.1-10.3-8.6-13.3-8.6h-.1c-3.1.2-11 4.9-17.4 9.5 6.8 3.8 14.9 7.7 18.2 7.7zm8.2 53.1c0-8.1-6.6-14.8-14.8-14.8-8.1 0-14.8 6.6-14.8 14.8s6.6 14.8 14.8 14.8c8.2-.1 14.8-6.7 14.8-14.8z" fill="#010101"/></svg>