<svg enable-background="new 0 0 74 74" viewBox="0 0 74 74" xmlns="http://www.w3.org/2000/svg"><circle cx="37" cy="37" fill="#566181" r="37"/><path d="m.1 39.5v.6c.1.7.1 1.5.2 2.2v.2c.1.8.3 1.6.4 2.4 0 .2.1.4.1.6.2.7.3 1.4.5 2.1 0 .1.1.2.1.3.2.8.5 1.5.8 2.3.1.1.1.3.2.4.3.7.5 1.3.8 2 0 .1.1.2.1.3.3.7.7 1.5 1.1 2.2 0 .1.1.2.1.2.4.7.8 1.3 1.2 1.9 0 .1.1.1.1.2.8.6 1.2 1.3 1.8 2 .5.7 1 1.3 1.6 1.9 0 0 .1.1.1.1 1.1 1.3 2.3 2.5 3.6 3.6h.1c1.3 1.1 2.7 2.2 4.1 3.1 1.5.9 3 1.8 4.6 2.5v-10.6c6.9 5.8 21.7 0 21.7 0 10.4 0 12.8-6.4 12.8-6.4 3-2.8 3.8-6.9 3.8-10.6s-1.2-7.4-2.9-10.7c-1-2-2.2-5.6-2.2-11.9 0-11.5-15.3-10.2-15.3-10.2-7.4-2.5-10.4-.7-11.9 1.3s-.9 5 1.1 7c2.9 2.9 4.2 7.7 8.3 5.7 2.6-1.3 7.7-2.6 7.7-2.6v5.1c-1.3 1.3-2 3.2-2.3 5-.2 1.1-1.2 1.7-2.1 1.7-1.8-1.7-4.3-2.8-7-2.8-.4 0-.8 0-1.3.1-1.4.1-2.5.5-3.5 1.1-.7.3-1.3.8-1.8 1.2-.8.4-1.9.1-2.5-.6-4.8-5.9-9.6-6.8-12.6-6.9 0 0-.8 0-1.6 0-1.2 0-2.2-1-2.2-2.2v-8.3c0-.2-.2-.2-.3-.1-3.9 5.2-6.5 11.5-7.2 18.3-.3 1.2-.4 2.5-.4 3.8 0 .8 0 1.7.1 2.5z" fill="#fdd7ae"/><g fill="#f9c076"><path d="m42.6 38.3c-.5 0-1-.3-1.2-.8-1.4-3.4-4.6-5.6-8.3-5.6s-6.9 2.2-8.3 5.6c-.3.7-1 1-1.7.7s-1-1-.7-1.7c1.8-4.4 5.9-7.2 10.6-7.2s8.9 2.8 10.6 7.2c.3.7-.1 1.4-.7 1.7.1 0-.1.1-.3.1z"/><path d="m23 62.5c-.3 0-.5-.1-.8-.2l-.2-.2c-1.3-1-5.4-3.9-5.4-9.8 0-.7.6-1.3 1.3-1.3s1.3.6 1.3 1.3c0 4.6 3.2 6.9 4.3 7.7l.2.2c.6.4.7 1.2.3 1.8-.3.3-.6.5-1 .5z"/></g></svg>