<svg fill="none" height="24" viewBox="0 0 24 24" width="24" xmlns="http://www.w3.org/2000/svg"><path d="m12 0c6.6 0 12 5.4 12 12s-5.4 12-12 12-12-5.4-12-12 5.4-12 12-12z" fill="#ff961b"/><path d="m16.1 11.4998c-.2-.6-.6-1-1-1.5l-.4-.3h-.1l-.2.5c-.1.3-.3.6-.6.9 0 0 0 0-.1 0 0 0 0 0-.1 0 0 0 0 0 0-.1 0-.8-.2-1.6-.7-2.6-.4-.8-1-1.4-1.7-1.8l-.5-.3c-.1 0-.2 0-.2.1v.6c0 .4 0 .8-.1 1.1-.1.4-.3.7-.6 1-.1.3-.3.5-.5.7-.5.4-1 .9-1.3 1.5s-.5 1.3-.5 2c0 .6.1 1.2.4 1.7.2.5.5 1 1 1.4.4.4.9.7 1.4.9s1.1.3 1.7.3 1.2-.1 1.7-.3 1-.5 1.4-.9.7-.9 1-1.4c.2-.5.4-1.1.4-1.7-.1-.7-.2-1.3-.4-1.8z" fill="#fff"/></svg>