<svg enable-background="new 0 0 74 74" viewBox="0 0 74 74" xmlns="http://www.w3.org/2000/svg"><circle cx="37" cy="37" fill="#896d61" r="37"/><path d="m52 70.8c-2.7 1.2-5.7 2.1-8.7 2.6-2.2-2.1-5.9-6.9-6.3-16.3-.4 9.4-4.1 14.2-6.2 16.3-3.1-.5-6-1.4-8.8-2.7.6-13.8 7.2-17.3 7.2-17.3.4 0 6.8-.6 7.8 3.4v.2-.1c1-4.1 7.8-3.4 7.8-3.4s6.6 3.5 7.2 17.3z" fill="#f4a065"/><path d="m44.8 53.5s-6.8-.7-7.8 3.4v.1-.1c-1-4.1-7.8-3.4-7.8-3.4 1-3.7 1.9-3.8 1.9-3.8h11.9c-.1 0 .8.1 1.8 3.8z" fill="#424854"/><path d="m62.6 12.1c-3 0-5.5 1.6-6.9 4-15.4-6.9-30.8-2.4-37.3.1-1.3-2.5-4-4.1-7-4.1-4.4 0-8 3.6-8 8s3.6 8 8 8 8-3.6 8-8c0-.7-.1-1.4-.2-2 6.2-2.4 21-6.8 35.8-.1-.2.7-.3 1.4-.3 2.1 0 4.4 3.6 8 8 8s8-3.6 8-8-3.7-8-8.1-8z" fill="#343943"/><path d="m40.5 19.9c0 .5-.1 1-.3 1.5-.1-1.5-.6-3-1.5-3.7.3-.1.5-.2.7-.3.1 0 .1-.1.2-.2.2.3.3.6.5.8.1.3.3.5.4.8.1.4 0 .8 0 1.1z" fill="#3a3e48"/><g fill="#f4a065"><path d="m31.5 29.7c-3.1-4.2-8.3-1.2-8.3-1.2v-.8c3.2-4.6 1-9.9 1-9.9l3.4-1s-.6-3.8-2.8-4.2-5.2 2.5-5.2 2.5l1.3 2.7s-4.6 6.7-5.2 11.8 3.1 4.2 3.1 4.2c6.2 4.9 10.4 3.5 10.4 3.5 5.1-4.6 2.3-7.6 2.3-7.6z"/><path d="m42.5 29.7c3.1-4.2 8.3-1.2 8.3-1.2v-.8c-3.2-4.6-1-9.9-1-9.9l-3.4-1s.6-3.8 2.8-4.2 5.2 2.5 5.2 2.5l-1.3 2.7s4.6 6.7 5.2 11.8-3.1 4.2-3.1 4.2c-6.2 4.9-10.4 3.5-10.4 3.5-5.1-4.6-2.3-7.6-2.3-7.6z"/><path d="m41.5 28c-.4 2-1.5 4.6-4.5 5.1-3-.4-4.1-3.1-4.5-5.1l1.2-1.8c.7.9 1.6 1.4 2.7 1.4 1.4 0 2.6-.9 3.3-2.4z"/></g><path d="m44.7 37.2c-5-4.5-2.2-7.5-2.2-7.5l-1-1.7c-.4 1.9-1.5 4.6-4.5 5-3-.4-4.1-3.1-4.5-5l-1 1.7s2.8 3.1-2.2 7.5c-.3.8.3 4.2 1.5 6.6 1.2 2.3.3 5.9.3 5.9h5.9 5.9s-.9-3.6.3-5.9 1.8-5.8 1.5-6.6z" fill="#2bb370"/><path d="m40.3 22.3c0 2.9-1.7 5.2-3.9 5.2s-3.9-2.3-3.9-5.2 1.8-4.8 3.9-5.2c2.7-.5 3.9 2.3 3.9 5.2z" fill="#fcbe86"/><path d="m32.5 21.5c-.6-1-1.3-2.1-1.2-3.2s1.1-2.1 2.2-2.6 2.4-.5 3.6-.5c.5 0 1.1.1 1.6 0s1.1-.3 1.4-.7c.1 1 .1 2.2-.7 2.8-.6.4-1.4.4-2.2.5-2.1.3-3.9 1.7-4.5 3.5" fill="#424854"/><g fill="#343943"><path d="m26.9 13.7-1.3.3.7 1.8 1.4-.3z"/><path d="m47.5 13.5 1.3.3-.7 1.8-1.4-.3z"/></g></svg>