<?xml version="1.0" encoding="iso-8859-1"?>
<!-- Generator: Adobe Illustrator 19.0.0, SVG Export Plug-In . SVG Version: 6.00 Build 0)  -->
<svg version="1.1" id="Layer_1" xmlns="http://www.w3.org/2000/svg" xmlns:xlink="http://www.w3.org/1999/xlink" x="0px" y="0px"
	 viewBox="0 0 512 512" style="enable-background:new 0 0 512 512;" xml:space="preserve">
<circle style="fill:#FAD55C;" cx="256" cy="256" r="256"/>
<path style="fill:#E3C04D;" d="M511.758,266.919L342.211,97.372L166.511,415.967l95.952,95.952
	C397.222,508.583,506.125,401.1,511.758,266.919z"/>
<g>
	<path style="fill:#AD7A68;" d="M161.548,229.845h184.61V109.861c0-12.027-9.846-21.873-21.884-21.873H183.433
		c-12.039,0-21.884,9.846-21.884,21.873V229.845z"/>
	<rect x="180.016" y="110.727" style="fill:#AD7A68;" width="58.797" height="58.797"/>
</g>
<polygon style="fill:#A06D5E;" points="180.016,169.524 209.415,169.524 238.813,169.524 230.699,158.42 209.415,158.42 
	188.13,158.42 "/>
<g>
	<polygon style="fill:#BC9385;" points="238.813,169.524 238.813,140.125 238.813,110.727 227.698,118.841 227.698,140.125 
		227.698,158.42 	"/>
	<polygon style="fill:#BC9385;" points="180.016,169.524 180.016,110.727 191.12,118.841 191.12,140.125 191.12,158.42 	"/>
</g>
<polygon style="fill:#B3897D;" points="180.016,110.727 238.813,110.727 227.698,121.842 191.12,121.842 "/>
<rect x="268.893" y="110.727" style="fill:#AD7A68;" width="58.797" height="58.797"/>
<polygon style="fill:#A06D5E;" points="268.893,169.524 298.292,169.524 327.69,169.524 319.576,158.42 298.292,158.42 
	277.007,158.42 "/>
<g>
	<polygon style="fill:#BC9385;" points="327.69,169.524 327.69,140.125 327.69,110.727 316.586,118.841 316.586,140.125 
		316.586,158.42 	"/>
	<polygon style="fill:#BC9385;" points="268.893,169.524 268.893,110.727 280.008,118.841 280.008,140.125 280.008,158.42 	"/>
</g>
<polygon style="fill:#B3897D;" points="268.893,110.727 327.69,110.727 316.586,121.842 280.008,121.842 "/>
<rect x="180.016" y="182.001" style="fill:#AD7A68;" width="58.797" height="58.797"/>
<polygon style="fill:#A06D5E;" points="180.016,240.799 209.415,240.799 238.813,240.799 230.699,229.695 209.415,229.695 
	188.13,229.695 "/>
<g>
	<polygon style="fill:#BC9385;" points="238.813,240.799 238.813,211.4 238.813,182.001 227.698,190.116 227.698,211.4 
		227.698,229.695 	"/>
	<polygon style="fill:#BC9385;" points="180.016,240.799 180.016,182.001 191.12,190.116 191.12,211.4 191.12,229.695 	"/>
</g>
<polygon style="fill:#B3897D;" points="180.016,182.001 238.813,182.001 227.698,193.117 191.12,193.117 "/>
<rect x="268.893" y="182.001" style="fill:#AD7A68;" width="58.797" height="58.797"/>
<polygon style="fill:#A06D5E;" points="268.893,240.799 298.292,240.799 327.69,240.799 319.576,229.695 298.292,229.695 
	277.007,229.695 "/>
<g>
	<polygon style="fill:#BC9385;" points="327.69,240.799 327.69,211.4 327.69,182.001 316.586,190.116 316.586,211.4 
		316.586,229.695 	"/>
	<polygon style="fill:#BC9385;" points="268.893,240.799 268.893,182.001 280.008,190.116 280.008,211.4 280.008,229.695 	"/>
</g>
<polygon style="fill:#B3897D;" points="268.893,182.001 327.69,182.001 316.586,193.117 280.008,193.117 "/>
<path style="fill:#8C95C9;" d="M161.548,229.845l184.61-52.645v224.939c0,12.039-9.846,21.884-21.884,21.884H183.433
	c-12.039,0-21.884-9.846-21.884-21.884V229.845z"/>
<g>
	<path style="fill:#9EA7DB;" d="M205.813,219.872c0-0.877-0.104-1.743-0.3-2.562l-21.573,6.152
		c2.424,12.35,16.956,18.618,21.873,27.159c5.367-9.338,22.208-15.952,22.208-30.749c0-3.151-1.316-5.991-3.417-8.01l-18.456,5.263
		C205.929,218.002,205.813,218.926,205.813,219.872z"/>
	<path style="fill:#9EA7DB;" d="M253.853,248.07c0-6.129-4.975-11.104-11.104-11.104c-6.141,0-11.104,4.975-11.104,11.104
		c0,14.797,16.84,21.411,22.208,30.749c5.367-9.338,22.208-15.952,22.208-30.749c0-6.129-4.963-11.104-11.104-11.104
		C258.828,236.966,253.853,241.941,253.853,248.07z"/>
</g>
<polygon style="fill:#7982AF;" points="346.158,177.2 310.365,280.632 161.548,229.845 "/>
<g>
	<polygon style="fill:#EAEAED;" points="346.158,177.2 302.158,265.523 161.548,229.845 	"/>
	<polygon style="fill:#EAEAED;" points="161.548,229.845 129.991,294.54 161.548,288.654 	"/>
</g>
<path style="fill:#9EA7DB;" d="M205.813,286.587c0-6.129-4.975-11.104-11.115-11.104c-6.129,0-11.104,4.975-11.104,11.104
	c0,14.797,16.84,21.411,22.219,30.738c5.367-9.326,22.208-15.94,22.208-30.738c0-6.129-4.975-11.104-11.104-11.104
	C210.777,275.484,205.813,280.458,205.813,286.587z"/>
<path style="fill:#7D85B5;" d="M324.274,412.4H183.433c-12.039,0-21.884-9.846-21.884-21.873v11.612
	c0,12.039,9.846,21.884,21.884,21.884h140.841c12.039,0,21.884-9.846,21.884-21.884v-11.612
	C346.158,402.554,336.312,412.4,324.274,412.4z"/>
<g>
	<path style="fill:#9EA7DB;" d="M205.813,359.316c0-6.141-4.975-11.104-11.115-11.104c-6.129,0-11.104,4.963-11.104,11.104
		c0,14.797,16.84,21.411,22.219,30.738c5.367-9.326,22.208-15.94,22.208-30.738c0-6.141-4.975-11.104-11.104-11.104
		C210.777,348.213,205.813,353.176,205.813,359.316z"/>
	<path style="fill:#9EA7DB;" d="M253.853,321.988c0-6.141-4.975-11.104-11.104-11.104c-6.141,0-11.104,4.963-11.104,11.104
		c0,14.797,16.84,21.411,22.208,30.738c5.367-9.326,22.208-15.94,22.208-30.738c0-6.141-4.963-11.104-11.104-11.104
		C258.828,310.884,253.853,315.848,253.853,321.988z"/>
	<path style="fill:#9EA7DB;" d="M307.849,286.587c0-6.129-4.975-11.104-11.104-11.104c-6.141,0-11.104,4.975-11.104,11.104
		c0,14.797,16.84,21.411,22.208,30.738c5.367-9.326,22.208-15.94,22.208-30.738c0-6.129-4.963-11.104-11.104-11.104
		C312.823,275.484,307.849,280.458,307.849,286.587z"/>
	<path style="fill:#9EA7DB;" d="M307.849,359.316c0-6.141-4.975-11.104-11.104-11.104c-6.141,0-11.104,4.963-11.104,11.104
		c0,14.797,16.84,21.411,22.208,30.738c5.367-9.326,22.208-15.94,22.208-30.738c0-6.141-4.963-11.104-11.104-11.104
		C312.823,348.213,307.849,353.176,307.849,359.316z"/>
	<path style="fill:#9EA7DB;" d="M253.853,400.523c0-6.141-4.975-11.104-11.104-11.104c-6.141,0-11.104,4.963-11.104,11.104
		c0,4.652,1.662,8.507,4.121,11.877h36.174c2.459-3.37,4.121-7.226,4.121-11.877c0-6.141-4.963-11.104-11.104-11.104
		C258.828,389.419,253.853,394.382,253.853,400.523z"/>
</g>
<g>
</g>
<g>
</g>
<g>
</g>
<g>
</g>
<g>
</g>
<g>
</g>
<g>
</g>
<g>
</g>
<g>
</g>
<g>
</g>
<g>
</g>
<g>
</g>
<g>
</g>
<g>
</g>
<g>
</g>
</svg>
