<?xml version="1.0" encoding="iso-8859-1"?>
<!-- Generator: Adobe Illustrator 19.0.0, SVG Export Plug-In . SVG Version: 6.00 Build 0)  -->
<svg version="1.1" id="Layer_1" xmlns="http://www.w3.org/2000/svg" xmlns:xlink="http://www.w3.org/1999/xlink" x="0px" y="0px"
	 viewBox="0 0 511.996 511.996" style="enable-background:new 0 0 511.996 511.996;" xml:space="preserve">
<path style="fill:#E54728;" d="M112.431,144.828L85.97,109.983c-3.522-4.638-2.618-11.253,2.021-14.776l20.73-15.745
	c4.639-3.523,11.255-2.618,14.777,2.021l26.66,35.108"/>
<rect x="214.524" y="34.411" style="fill:#666666;" width="83.197" height="78.615"/>
<rect x="214.524" y="34.411" style="fill:#4D4D4D;" width="83.197" height="32.615"/>
<path style="fill:#F95428;" d="M307.634,48.936H204.354c-7.34,0-13.29-5.95-13.29-13.29V13.29c0-7.34,5.95-13.29,13.29-13.29
	h103.279c7.34,0,13.29,5.95,13.29,13.29v22.356C320.923,42.986,314.974,48.936,307.634,48.936z"/>
<path style="fill:#E54728;" d="M227.028,48.936h-22.675c-7.34,0-13.29-5.95-13.29-13.29V13.29c0-7.34,5.95-13.29,13.29-13.29h22.675
	V48.936z"/>
<circle style="fill:#F95428;" cx="255.998" cy="298.372" r="213.625"/>
<circle style="fill:#E6E6E6;" cx="255.998" cy="298.372" r="169.084"/>
<path style="fill:#CCCCCC;" d="M287.377,436.079c-93.384,0-169.087-75.703-169.087-169.087c0-38.691,13.005-74.34,34.869-102.834
	c-40.278,30.907-66.253,79.524-66.253,134.217c0,93.384,75.703,169.087,169.087,169.087c54.693,0,103.311-25.975,134.217-66.253
	C361.717,423.073,326.069,436.079,287.377,436.079z"/>
<g>
	<path style="fill:#4D4D4D;" d="M202.649,291.939c-25.865,0-46.907-21.043-46.907-46.909c0-25.865,21.044-46.907,46.907-46.907
		c25.866,0,46.909,21.043,46.909,46.907C249.557,270.897,228.515,291.939,202.649,291.939z M202.649,222.265
		c-12.553,0-22.766,10.213-22.766,22.766s10.213,22.767,22.766,22.767s22.767-10.213,22.767-22.767S215.203,222.265,202.649,222.265
		z"/>
	<path style="fill:#4D4D4D;" d="M309.338,398.627c-25.865,0-46.907-21.043-46.907-46.909c0-25.866,21.044-46.909,46.907-46.909
		c25.866,0,46.909,21.043,46.909,46.909C356.246,377.585,335.204,398.627,309.338,398.627z M309.338,328.953
		c-12.553,0-22.766,10.213-22.766,22.767c0,12.555,10.213,22.767,22.766,22.767c12.553,0,22.767-10.213,22.767-22.767
		C332.105,339.165,321.891,328.953,309.338,328.953z"/>
	<path style="fill:#4D4D4D;" d="M211.655,354.785c-3.09,0-6.178-1.178-8.535-3.535c-4.714-4.714-4.714-12.357,0-17.07l88.679-88.677
		c4.716-4.714,12.357-4.714,17.071,0c4.714,4.714,4.714,12.357,0,17.07l-88.679,88.677
		C217.832,353.605,214.743,354.785,211.655,354.785z"/>
</g>
<path style="fill:#E54728;" d="M255.993,479.533c-99.891,0-181.157-81.267-181.157-181.157s81.267-181.157,181.157-181.157
	s181.157,81.267,181.157,181.157S355.884,479.533,255.993,479.533z M255.993,141.359c-86.58,0-157.016,70.436-157.016,157.016
	s70.436,157.016,157.016,157.016s157.016-70.436,157.016-157.016S342.573,141.359,255.993,141.359z"/>
<g>
</g>
<g>
</g>
<g>
</g>
<g>
</g>
<g>
</g>
<g>
</g>
<g>
</g>
<g>
</g>
<g>
</g>
<g>
</g>
<g>
</g>
<g>
</g>
<g>
</g>
<g>
</g>
<g>
</g>
</svg>
