<svg enable-background="new 0 0 100 100" viewBox="0 0 100 100" xmlns="http://www.w3.org/2000/svg"><path d="m30.6 34.3c0 .6-.3 7.3-1 15.6h-6.3c-1.1 0-1.9.1-1.9 1.2s.9 1.8 1.9 1.8h6c-.5 5.3-1.1 10.5-1.9 16.5h-4.1c-1.1 0-1.9 1-1.9 2s.9 1.3 1.9 1.3l3.7.1c-1.1 6.6-2.5 14.1-4.6 18.9-2.3-7.4-4.2-19.7-5.3-28.9h-2 4.9c1.1 0 1.9-.6 1.9-1.6s-.9-1.6-1.9-1.6h-3.4c-.5-5.3-1.1-14.5-1.3-18h4.7c1.1 0 1.9.7 1.9-.6s-.9-1.9-1.9-1.9h-4.9c-.1-1.3-.1-2-.1-2.1 0-1.5 1.6-3 4-4 .1 0 1.9-.8 4.9-.8 2.5 0 4.8.8 4.9.9 0-.1 1.2.4 1.8 1.2z" fill="#ee8826"/><path d="m22.4 91.9c-.1.3-.2.6-.3.9.1-.3.2-.6.3-.9z" fill="#ee8826"/><path d="m21.7 5c.4 0 .6.3.6.6v-1.2c0-.4-.3-.6-.6-.6s-.6.2-.6.6v1.2c0-.3.3-.6.6-.6z" fill="#fff"/><path d="m31.3 12.8c-.1-.1-.3-.3-.7.2-2.2 2.2-3.3 5.3-4.6 8.2-.4.8-1.2 1.3-2.1 1.2-.9-.2-1.6-1-1.6-1.9v-1.2-14.9c0-.4-.3-.6-.6-.6s-.7.2-.7.6v14.8 1.2c0 .9-.6 1.7-1.5 1.9s-1.8-.3-2.1-1.2c-1.2-3-2.7-5.7-4.6-8.2-.1-.2-.5-.5-.7-.2 0 0 0 .1-.1.1 0 0 0 0 0-.1 2.9 3.9 4.8 8.4 5.8 13.4 1.2-.3 2.5-.4 3.9-.4s2.7.2 3.9.4c.9-4.8 2.9-9.4 5.7-13.3 0 .1 0 .1 0 0z" fill="#85bd94"/><path d="m34 8.9c-.9-.9-2-1.3-3.2-1.3-1.3.1-2.4.7-3.2 1.7-.5.7-1 1.4-1.5 2.1v-7c0-2.4-2-4.4-4.4-4.4s-4.4 2-4.4 4.4v7.1c-.5-.7-1-1.4-1.5-2.1-.8-1.1-2-1.7-3.2-1.7-1.2-.1-2.3.4-3.2 1.3-1.6 1.7-1.8 4.2-.4 6.1 2.6 3.5 4.4 7.8 5.2 12.4-3.2 1.5-5.2 4-5.2 6.9v.1c.1 2 1.8 48.4 11 64.6.3.6 1 1 1.6 1s1.3-.4 1.6-1c9.2-16.2 11-62.7 11-64.6v-.1c0-2.9-2-5.4-5.2-6.9.8-4.6 2.6-8.8 5.2-12.4 1.6-1.9 1.4-4.5-.2-6.2zm-4.3 40.3h-6.4c-1.1 0-1.9.9-1.9 1.9 0 1.1.9 1.9 1.9 1.9h6c-.5 5.2-1.1 10.9-1.9 16.6h-4.1c-1.1 0-1.9.9-1.9 1.9s.9 1.9 1.9 1.9h3.5c-1.3 7.7-2.9 15.1-5.1 20.4-3.1-7.6-5.2-19.5-6.5-30.6h4.9c1.1 0 1.9-.9 1.9-1.9 0-1.1-.9-1.9-1.9-1.9h-5.4c-.7-6.3-1.2-12.1-1.5-16.6h6.8c1.1 0 1.9-.9 1.9-1.9 0-1.1-.9-1.9-1.9-1.9h-7c-.2-2.7-.2-4.4-.2-4.7 0-1.5 1.6-3 4-3.9.1 0 1.9-.8 4.9-.8 2.5 0 4.8.8 4.9.8 2.5.9 4 2.5 4 3.9 0 .6-.3 6.6-.9 14.9zm-17.6-37.6c.3-.3.6 0 .7.2 1.9 2.4 3.4 5.2 4.6 8.2.3.9 1.2 1.3 2.1 1.2.9-.2 1.5-1 1.5-1.9v-14.9c0-.4.3-.6.6-.6.4 0 .6.3.6.6v14.8c0 .9.7 1.7 1.5 1.9.9.2 1.7-.4 2.1-1.2 1.3-2.8 2.4-6 4.6-8.2.5-.5.6-.3.7-.2.3.4.4.9.1 1.3-2.9 3.9-4.8 8.4-5.8 13.4-1.2-.3-2.5-.4-3.9-.4s-2.7.2-3.9.4c-.9-4.9-2.9-9.5-5.8-13.4 0-.3 0-.9.3-1.2z" fill="#402e21"/><path d="m56.4 84.8c2.8 0 5.1-2.3 5.1-5.1 0-1.1-.4-2.1-1-3l-4.1-5.4-4.1 5.4c-.7.9-1 1.9-1 3 0 2.9 2.3 5.1 5.1 5.1z" fill="#fff"/><path d="m72.2 91.1c0-.6.5-1 1-1h16.7v-24.7h-16.7c-.6 0-1-.5-1-1h-2v26.7z" fill="#99d6d3"/><path d="m44.5 90.1h23.8v-24.7h-23.8zm11.1-21c.2-.3.5-.4.8-.4s.6.2.8.4l4.8 6.5c.9 1.2 1.4 2.7 1.4 4.2 0 3.9-3.2 7-7 7s-7-3.2-7-7c0-1.5.5-3 1.4-4.2z" fill="#c3e6e4"/><g fill="#ffcc76"><path d="m89.9 92.1h-16.7c-.6 0-1-.5-1-1h-2v6.9h19.6v-5.9z"/><path d="m72.2 64.4c0-.6.5-1 1-1h16.7v-5.9h-19.6v6.9z"/><path d="m71.5 55.5h17.2l-8.6-9.7z"/></g><path d="m58.2 43.3c.6 0 1 .5 1 1h2c0-.6.5-1 1-1h16.9v-3.2h-23.8v3.2z" fill="#f2ebd9"/><path d="m59.2 44.3c0 .6-.5 1-1 1h-3.5l-9 10.3h23.2l9-10.3h-15.7c-.6 0-1-.5-1-1z" fill="#fff"/><path d="m44.5 92.1h23.8v5.9h-23.8z" fill="#f2ebd9"/><path d="m44.5 57.5h23.8v5.9h-23.8z" fill="#f2ebd9"/><g fill="#082a47"><path d="m91.9 56.4c0-.1 0-.1 0-.1s0 0 0-.1 0 0 0-.1 0 0 0-.1c0 0 0 0 0-.1 0 0 0 0 0-.1s0 0 0-.1 0 0 0-.1 0 0 0 0l-10.6-12v-4.6c0-.6-.5-1-1-1h-26c-.6 0-1 .5-1 1v4.8l-10.6 12v.1.1.1.1.1.1.1.1.1 42.5c0 .6.5 1 1 1h47.4c.6 0 1-.5 1-1zm-23.6 1.1v5.9h-23.8v-5.9zm0 32.6h-23.8v-24.7h23.8zm3.2-34.6 8.6-9.8 8.6 9.8zm7.6-15.4v3.2h-16.9c-.6 0-1 .5-1 1 0 .6.5 1 1 1h15.7l-9 10.3h-23.2l9-10.3h3.5c.6 0 1-.5 1-1 0-.6-.5-1-1-1h-3v-3.2zm-34.6 52h23.8v5.9h-23.8zm25.8-34.6h19.6v5.9h-16.7c-.6 0-1 .5-1 1 0 .6.5 1 1 1h16.7v24.7h-16.7c-.6 0-1 .5-1 1 0 .6.5 1 1 1h16.7v6h-19.6z"/><path d="m56.4 86.8c3.9 0 7-3.2 7-7 0-1.5-.5-3-1.4-4.2l-4.8-6.5c-.2-.3-.5-.4-.8-.4s-.6.2-.8.4l-4.9 6.5c-.9 1.2-1.4 2.7-1.4 4.2.1 3.8 3.2 7 7.1 7zm0-15.5 4.1 5.4c.7.9 1 1.9 1 3 0 2.8-2.3 5.1-5.1 5.1s-5.1-2.3-5.1-5.1c0-1.1.4-2.1 1-3z"/></g></svg>