<svg enable-background="new 0 0 496.2 496.2" viewBox="0 0 496.2 496.2" xmlns="http://www.w3.org/2000/svg"><g fill="#d89d75"><path d="m388.8 253.1c-4.2-8.7-12.4-22.5-12.4-22.5-6.1-11.1-8.7-22.3-14.2-32.3-8.7-16.8-11.1-21.9-12.5-26.6-2.6-7.4-7.7-17.3-15.1-19.4-11.4-3.1-27.5 3.7-25.1 16.4 3.5 18.6 41.3 73.2 54.6 85.7 5.5 5.2 10.1 7.9 12.2 8.1 2.2.2 7-1.8 10.9-7 .7-.7 1-1.4 1.6-2.4z"/><path d="m437.3 286.9c-14.8-8.9-22.1-20.7-33.2-31-7.9-7.4-20.3-14.4-22.1-15.3-1.1 1.1-2 2-2.8 3-5.2 5.5-5.5 10.1-5.7 12.4 0 0-.2 7 5 10.9 10.1 7.6 55.9 35.2 55.9 35.2z"/><path d="m437.3 286.9c-.4 0-1.5 2-3 15.1 0 0 3.7.9 9.2 4.2 7.7 4.6 20.3 6.5 27.7 4.6 6.3-1.5 12.4-7.4 13.6-14.2 1.3-6.8-28-9-36.1-12.7z"/><path d="m456.8 288.7s8.9 2.6 10.7-2c1.5-3.9 1.7-5.3-19-2.6.2 0-.1 2.8 8.3 4.6z"/></g><path d="m481 488.1c-7.6-.4-37.4.2-40.2.6-6.6.9-13.6-1.7-13.5-7.9.2-4.8-.4-9.6.9-12.4 7.6-17.1 8.5-57.3 13.1-85 1.1-6.3 45.9-12.4 43.9-5.9-12 36.5-33.6 78.9-38.4 92.4 0 0 39.5 1.7 39.8 8.7.3 3.7 2 9.8-5.6 9.5z" fill="#e2a379"/><path d="m452.8 348.3c-3.1 7.9-6.1 11.8-11.4 34.9 5.7-2.8 38.2-7.2 43.9-5.9 2.8-11.1 19.4-60.9 5.5-75.2-14.6-15.1-147.9 18.1-151 13.3 0 0-67.1 45.4-39.3 64.2 34.3 22.7 152.3-31.3 152.3-31.3z" fill="#333"/><path d="m.6 481.6c.7-7.6 32.8-9.4 37.8-12.5 2.4-1.5 4.4-5.9 10.7-7 8.3-1.5 14 4.4 17 3.7 14.9-3.5 56.4-8.5 74.7-12.5 4.2-.9 8.5-1.8 12.9-2.6 18.1-3.1 12.9 35.6 6.3 36.1-26.6 1.8-90.4-1.8-99.9-2.2 0 0-29.1 3.7-36.1 3.9-4.4-.1-23.9.7-23.4-6.9z" fill="#f4b382"/><path d="m212.3 446c-21.4.2-41.5 1.8-59.6 5 3.1 5.7 7.2 30.2 6.3 36 6.6-.4 58.1-.9 58.1-.9 14.4-.2 102.3-86.1 138.3-129.1 2.8-3.1 7.4-11.1 11.8-19.5 0 0-57.3-34.9-63.8-33.6-10.7 5.5-21.2 16.4-25.4 30.2-2.4 7.6-1.8 21.2-4.4 25.1-24 34.1-61.3 86.8-61.3 86.8z" fill="#3d3c3c"/><path d="m381.2 201.1c.7-22.7-18.1-28.4-30.4-52.6-1.5-3-15.5-11.2-22.9-11.4-8.1-.2-16.4 1.1-22.7 7.7-4.8 5.2-14.4 21.2-6.5 63.6 1.8 16.4 16.2 84.1 3.5 95.9 0 0 22.5 17.1 37.2 20.8s28.2 11.6 28.2 11.6c15.5-36.3 1.8-96.6 5.2-119.3.3.3 8.2-10 8.4-16.3z" fill="#b3233b"/><path d="m344.5 139.2s-5.9-16.4-9.6-31.2l-24.7-1.7c4.8 14.8 1.3 34.7 1.3 34.7 23.1-2.4 32.6 5.5 38.7 7.9z" fill="#e2a379"/><path d="m354.1 73c4.4-10.9-2.2-19-6.6-23.4-14-13.6-25.1-12.5-38.7-8.9-18.1 4.8-12.4 54.4-8.7 62 9.6 19.9 40.8 20.3 52.6 17.5 13.1-3.1 8.7-6.6 6.8-11.8 0-.2.4-1.1.4-1.1-.4-1.8-1.3-4.2-.6-6.8 0 0-.9-1.5-1.1-2.4-.2-.6-.2-.9.4-1.3 1.7-1.1 3.3-2.2 3.9-3.1 1.6-3.2-10.4-15.6-8.4-20.7z" fill="#f4b382"/><path d="m352.1 104.7s1.5.4 7.4-1.1c.6-.6 1.7-1.7.2-3-1.2-.9-3.5 2.6-7.6 4.1z" fill="#d6876b"/><path d="m352.1 104.7s2 2.8 7.7 2.6c.7-.4 1.1-1.1 1.3-1.5.2-2-1.7-2.2-1.7-2.2-5.8 1.6-7.3 1.1-7.3 1.1z" fill="#cc785e"/><path d="m306.7 37.9c-22.1 5.9-43.2 45.5-3.1 75.1 2.6 2 8.1 3.7 13.6-3.1 3.9-5 5.9-10.7 5.9-10.7.6-1.7 1.3-3.5 1.8-5.5.7-2.2-3.7-12.7-1.5-13.6 20.8-9.2 26.9-23.1 25.4-28.8-6.1-13.4-18.6-19.5-42.1-13.4z" fill="#602f0f"/><path d="m317.6 93.8c5.9 8.9 10.1 8.3 15.9 6.3l-7.4-14.4-4.6-5.3c-5.5 2-9.8 4.4-3.9 13.4z" fill="#f4b382"/><path d="m280.9 80.7c-6.3-3.1-6.8-14.4-.9-25.3 5.7-10.9 15.7-17.3 21.9-14.2 6.3 3.1 5.3 12-.4 22.9s-14.3 19.8-20.6 16.6z" fill="#4c230c"/><path d="m326.3 81.6c-.7-1.7-1.3-3.3-1.5-4.6-.4-1.8-.6-3.1-.6-3.1l-5.9 4.1c.2.9.6 1.8.7 2.8 0 0 .6-.4 1.7-1.1 0 0-.2 0-.2.2 1.3 1.3 3 3.1 4.8 6.1.4-.1 3.4 1 1-4.4z" fill="#602f0f"/><path d="m277.2 81.1c-6.6-3.1-7-15.5-.6-27.5 6.3-12 17-19 23.6-15.7 6.6 3.1 5.5 12.9-.7 24.7-6.4 12-15.6 21.6-22.3 18.5z" fill="#602f0f"/><path d="m275.6 60.4c-.7-.4.2-3.7 2.2-7.2 2-3.7 4.1-6.3 4.8-5.9s-.2 3-2.2 6.6c-1.9 3.8-4.1 6.9-4.8 6.5z" fill="#4c230c"/><path d="m366.5 274.2c-1.7-9.4-5.9-24.5-5.9-24.5-3-12.4-5.9-29-8.5-40-3.9-18.4-4.8-24.2-5-29-.4-7.7-2.8-18.8-9.4-22.7-10.1-6.1-27.5-3.9-28.4 9-1.5 18.8 23.8 86.3 33.2 102 3.9 6.5 7.6 10.3 9.6 11.1 2 .7 7.2.2 12.4-3.7.5-1 1.2-1.5 2-2.2z" fill="#f4b382"/><path d="m434.5 293.5c-37.8-14.6-48.3-22.1-57.3-28.4-8.9-6.3-21-10.9-22.7-11.8-1.1 1.1-2 2-2.8 3-5.2 5.5-5.5 10.1-5.7 12.4 0 0-.2 7 5 10.9 10.1 7.6 81.5 29.5 81.5 29.5z" fill="#f4b382"/><path d="m434.5 293.5c-.4 0-1.5 2-3 15.1 0 0 3.7.9 9.2 4.2 7.7 4.6 20.3 6.5 27.7 4.6 6.3-1.5 12.4-7.4 13.6-14.2 1.3-6.8-28-9-36.1-12.7z" fill="#f4b382"/><path d="m454.1 295.2s8.9 2.6 10.7-2c1.5-3.9 1.7-5.3-19-2.6.2 0 0 2.7 8.3 4.6z" fill="#f4b382"/></svg>